<svg width="40" height="40" viewBox="0 0 40 40" fill="none" xmlns="http://www.w3.org/2000/svg">
<path fill-rule="evenodd" clip-rule="evenodd" d="M10 0H1H0V1V39V40H1H10V39H1V1H10V0ZM30 39H39V1H30V0H39H40V1V39V40H39H30V39Z" fill="#18FEFE"/>
<path d="M24.2778 21.4002C25.4867 21.4001 26.6496 21.8663 27.5269 22.7029C28.4042 23.5395 28.9292 24.6826 28.9937 25.8969L29 26.1502V28.0503C28.9999 28.291 28.909 28.5227 28.7457 28.6986C28.5823 28.8744 28.3587 28.9814 28.1199 28.9978C27.8812 29.0142 27.6452 28.9388 27.4596 28.7869C27.2739 28.635 27.1525 28.4179 27.1199 28.1795L27.1111 28.0503V26.1502C27.1112 25.4281 26.8387 24.7328 26.3488 24.2049C25.8588 23.6771 25.188 23.356 24.4717 23.3065L24.2778 23.3002H16.7222C16.0043 23.3001 15.3131 23.5742 14.7883 24.067C14.2635 24.5599 13.9443 25.2347 13.8952 25.9552L13.8889 26.1502V28.0503C13.8888 28.291 13.7979 28.5227 13.6346 28.6986C13.4712 28.8744 13.2476 28.9814 13.0088 28.9978C12.7701 29.0142 12.5341 28.9388 12.3484 28.7869C12.1628 28.635 12.0414 28.4179 12.0088 28.1795L12 28.0503V26.1502C11.9999 24.9342 12.4634 23.7645 13.2951 22.882C14.1267 21.9994 15.2632 21.4714 16.4704 21.4065L16.7222 21.4002H24.2778ZM20.5 10C21.1202 9.99995 21.7343 10.1228 22.3072 10.3615C22.8802 10.6002 23.4008 10.95 23.8393 11.3911C24.2779 11.8322 24.6258 12.3559 24.8631 12.9322C25.1004 13.5085 25.2226 14.1263 25.2226 14.7501C25.2226 15.3739 25.1004 15.9916 24.8631 16.5679C24.6258 17.1443 24.2779 17.6679 23.8393 18.109C23.4008 18.5501 22.8802 18.9 22.3072 19.1387C21.7343 19.3774 21.1202 19.5002 20.5 19.5001C19.2477 19.5001 18.0466 18.9996 17.1611 18.1088C16.2756 17.218 15.7781 16.0098 15.7781 14.7501C15.7781 13.4903 16.2756 12.2822 17.1611 11.3914C18.0466 10.5006 19.2477 10.0001 20.5 10ZM20.5 11.9C19.7486 11.9 19.0279 12.2003 18.4965 12.7348C17.9652 13.2693 17.6667 13.9942 17.6667 14.7501C17.6667 15.506 17.9652 16.2309 18.4965 16.7654C19.0279 17.2998 19.7486 17.6001 20.5 17.6001C21.2514 17.6001 21.9721 17.2998 22.5035 16.7654C23.0348 16.2309 23.3333 15.506 23.3333 14.7501C23.3333 13.9942 23.0348 13.2693 22.5035 12.7348C21.9721 12.2003 21.2514 11.9 20.5 11.9Z" fill="#00F7FF"/>
</svg>
