<svg width="40" height="40" viewBox="0 0 40 40" fill="none" xmlns="http://www.w3.org/2000/svg">
<path fill-rule="evenodd" clip-rule="evenodd" d="M10 0H1H0V1V39V40H1H10V39H1V1H10V0ZM30 39H39V1H30V0H39H40V1V39V40H39H30V39Z" fill="#18FEFE"/>
<g clip-path="url(#clip0_2287_7257)">
<g clip-path="url(#clip1_2287_7257)">
<path d="M26.9444 25.2001C27.7267 25.2 28.4791 25.4945 29.0468 26.0229C29.6145 26.5512 29.9542 27.2732 29.9959 28.0402L30 28.2002V29.4002C30 29.5522 29.9411 29.6985 29.8354 29.8096C29.7297 29.9207 29.585 29.9882 29.4305 29.9986C29.2761 30.009 29.1233 29.9614 29.0032 29.8654C28.8831 29.7695 28.8046 29.6324 28.7835 29.4818L28.7778 29.4002V28.2002C28.7778 27.744 28.6015 27.3049 28.2845 26.9715C27.9675 26.6381 27.5334 26.4353 27.0699 26.4041L26.9444 26.4001H22.0556C21.591 26.4001 21.1438 26.5732 20.8042 26.8844C20.4646 27.1957 20.2581 27.6219 20.2263 28.077L20.2222 28.2002V29.4002C20.2222 29.5522 20.1634 29.6985 20.0577 29.8096C19.9519 29.9207 19.8072 29.9882 19.6528 29.9986C19.4983 30.009 19.3456 29.9614 19.2255 29.8654C19.1054 29.7695 19.0268 29.6324 19.0057 29.4818L19 29.4002V28.2002C18.9999 27.4321 19.2999 26.6934 19.838 26.136C20.3761 25.5786 21.1115 25.2451 21.8926 25.2041L22.0556 25.2001H26.9444ZM24.5 18C24.9013 18 25.2986 18.0775 25.6694 18.2283C26.0401 18.3791 26.377 18.6 26.6608 18.8786C26.9445 19.1572 27.1696 19.4879 27.3232 19.8519C27.4767 20.2159 27.5558 20.6061 27.5558 21C27.5558 21.394 27.4767 21.7842 27.3232 22.1482C27.1696 22.5122 26.9445 22.8429 26.6608 23.1215C26.377 23.4001 26.0401 23.621 25.6694 23.7718C25.2986 23.9225 24.9013 24.0001 24.5 24.0001C23.6897 24 22.9125 23.6839 22.3395 23.1213C21.7666 22.5587 21.4447 21.7957 21.4447 21C21.4447 20.2044 21.7666 19.4414 22.3395 18.8788C22.9125 18.3162 23.6897 18.0001 24.5 18ZM24.5 19.2C24.0138 19.2 23.5475 19.3897 23.2036 19.7272C22.8598 20.0648 22.6667 20.5226 22.6667 21C22.6667 21.4774 22.8598 21.9353 23.2036 22.2729C23.5475 22.6104 24.0138 22.8001 24.5 22.8001C24.9862 22.8001 25.4525 22.6104 25.7964 22.2729C26.1402 21.9353 26.3333 21.4774 26.3333 21C26.3333 20.5226 26.1402 20.0648 25.7964 19.7272C25.4525 19.3897 24.9862 19.2 24.5 19.2Z" fill="#00F7FF"/>
</g>
<path fill-rule="evenodd" clip-rule="evenodd" d="M12.5027 28.0228C13.1824 28.4347 13.9597 28.6314 14.7373 28.5884C15.515 28.5454 16.2584 28.2646 16.8747 27.781C17.491 27.2974 17.9528 26.6325 18.2023 25.8696C18.4518 25.1066 18.478 24.2794 18.2775 23.4914L22.481 15.8276C23.2492 14.4269 22.7675 12.6203 21.4049 11.7922C20.0423 10.9641 18.315 11.4282 17.5468 12.8289L13.3433 20.4927C12.5948 20.704 11.9273 21.1414 11.4244 21.7503C10.9214 22.3593 10.6053 23.1127 10.5156 23.9163C10.4259 24.7199 10.5666 25.5381 10.92 26.2685C11.2734 26.9989 11.8239 27.6091 12.5027 28.0228ZM20.8485 12.8066C21.2411 13.0452 21.5297 13.4343 21.6507 13.8884C21.7718 14.3425 21.7155 14.8243 21.4942 15.2278L17.0431 23.3431L17.1225 23.5942C17.3076 24.163 17.3235 24.7734 17.1679 25.3444C17.0123 25.9155 16.6926 26.4204 16.2511 26.7922C15.8097 27.164 15.2673 27.3852 14.6958 27.4265C14.1243 27.4678 13.5506 27.3272 13.0508 27.0234C12.551 26.7197 12.1485 26.267 11.8967 25.7254C11.645 25.1837 11.5558 24.5787 11.6409 23.9904C11.7261 23.4021 11.9816 22.8582 12.3736 22.4308C12.7657 22.0034 13.2757 21.7127 13.8363 21.5971L14.0826 21.5439L18.5336 13.4286C18.755 13.0251 19.1232 12.7328 19.5573 12.6162C19.9915 12.4995 20.4559 12.568 20.8485 12.8066ZM20.7859 14.1204L19.7991 13.5207L14.7436 22.7378C14.4963 22.6875 14.24 22.694 13.9936 22.7602C13.5594 22.8769 13.1912 23.1691 12.9699 23.5727C12.7485 23.9762 12.6922 24.4581 12.8133 24.9121C12.9344 25.3662 13.223 25.7553 13.6156 25.9939C13.8099 26.1121 14.024 26.1897 14.2456 26.2224C14.4671 26.255 14.6917 26.2421 14.9067 26.1844C15.1217 26.1266 15.3227 26.0251 15.4983 25.8857C15.674 25.7463 15.8208 25.5717 15.9304 25.3719C16.04 25.1721 16.1102 24.951 16.1371 24.7211C16.164 24.4913 16.1469 24.2573 16.087 24.0325C16.027 23.8076 15.9253 23.5964 15.7877 23.4108C15.7692 23.3859 15.7501 23.3615 15.7304 23.3376L20.7859 14.1204ZM14.9957 24.3257C14.9554 24.1743 14.8592 24.0446 14.7283 23.9651C14.5975 23.8856 14.4426 23.8627 14.2979 23.9016C14.1532 23.9405 14.0305 24.0379 13.9567 24.1724C13.8829 24.3069 13.8642 24.4676 13.9045 24.6189C13.9449 24.7703 14.0411 24.9 14.1719 24.9795C14.3028 25.059 14.4576 25.0819 14.6023 25.043C14.747 25.0041 14.8698 24.9067 14.9436 24.7722C15.0173 24.6377 15.0361 24.477 14.9957 24.3257Z" fill="#00F7FF"/>
</g>
<defs>
<clipPath id="clip0_2287_7257">
<rect width="20" height="20" fill="white" transform="translate(10 10)"/>
</clipPath>
<clipPath id="clip1_2287_7257">
<rect width="20" height="20" fill="white" transform="translate(10 10)"/>
</clipPath>
</defs>
</svg>
