<svg width="20" height="20" viewBox="0 0 20 20" fill="none" xmlns="http://www.w3.org/2000/svg">
<path d="M6.68103 5.51684C6.68103 6.00714 6.87593 6.47736 7.22285 6.82406C7.56977 7.17075 8.0403 7.36552 8.53092 7.36552C9.02155 7.36552 9.49208 7.17075 9.839 6.82406C10.1859 6.47736 10.3808 6.00714 10.3808 5.51684C10.3808 5.02654 10.1859 4.55632 9.839 4.20963C9.49208 3.86293 9.02155 3.66816 8.53092 3.66816C8.0403 3.66816 7.56977 3.86293 7.22285 4.20963C6.87593 4.55632 6.68103 5.02654 6.68103 5.51684V5.51684ZM16.9159 1H3.08478C1.93607 1 1 1.93545 1 3.08341V18.3055C1 18.4897 1.07322 18.6664 1.20354 18.7966C1.33386 18.9268 1.51062 19 1.69493 19C1.87923 19 2.05599 18.9268 2.18631 18.7966C2.31664 18.6664 2.38985 18.4897 2.38985 18.3055V10.983H6.2877C6.39992 10.9828 6.51038 10.9551 6.60945 10.9025L8.83322 9.73923L9.94093 12.9532L7.54969 17.3937C7.49224 17.4992 7.46329 17.6178 7.46566 17.7379C7.46804 17.858 7.50167 17.9754 7.56324 18.0786C7.62481 18.1817 7.7122 18.2671 7.81681 18.3263C7.92142 18.3854 8.03964 18.4163 8.15983 18.416C8.40723 18.416 8.64628 18.2833 8.77206 18.0514L11.6602 12.6907C11.6771 12.6612 11.6908 12.6301 11.7012 12.5977L12.1313 12.4504V15.4388C12.1317 15.6228 12.205 15.7993 12.3353 15.9294C12.4655 16.0596 12.6421 16.1329 12.8263 16.1332H17.6101V18.3055C17.6101 18.4897 17.6834 18.6664 17.8137 18.7966C17.944 18.9268 18.1208 19 18.3051 19C18.4894 19 18.6661 18.9268 18.7965 18.7966C18.9268 18.6664 19 18.4897 19 18.3055V3.08341C19 1.93545 18.0639 1 16.9152 1H16.9159ZM13.5219 14.7443V12.0511C13.5226 11.9265 13.4887 11.8041 13.4239 11.6976L12.1515 8.00374L13.287 7.40928L15.5302 9.01073C15.6803 9.10893 15.8625 9.14538 16.0387 9.11244C16.215 9.0795 16.3718 8.97972 16.4761 8.83398C16.5805 8.68823 16.6245 8.5078 16.5988 8.33042C16.5731 8.15304 16.4798 7.99244 16.3384 7.88221L13.7477 6.03353C13.6433 5.95897 13.5201 5.91482 13.3921 5.906C13.264 5.89717 13.136 5.92401 13.0222 5.98353L6.11605 9.59478H2.38985V3.08411C2.38985 2.70215 2.70257 2.38964 3.08478 2.38964H16.9159C17.2981 2.38964 17.6108 2.70215 17.6108 3.08411V14.745H13.5219V14.7443Z" fill="#00F7FF"/>
</svg>
