<svg width="20" height="20" viewBox="0 0 20 20" fill="none" xmlns="http://www.w3.org/2000/svg">
<g clip-path="url(#clip0_2337_7630)">
<path d="M10 20C4.47715 20 0 15.5229 0 10C0 4.47715 4.47715 0 10 0C15.5229 0 20 4.47715 20 10C20 15.5229 15.5229 20 10 20ZM10 18.5938C14.7462 18.5938 18.5938 14.7462 18.5938 10C18.5938 5.25381 14.7462 1.40625 10 1.40625C5.25381 1.40625 1.40625 5.25381 1.40625 10C1.40625 14.7462 5.25381 18.5938 10 18.5938ZM11.772 7.69305C12.1039 7.15379 12.6466 6.7425 13.3852 6.51127L13.8418 6.36834V6.84678C13.8418 7.27156 13.8915 7.64955 13.987 8.016C14.0624 8.30553 14.1547 8.5576 14.3152 8.93869C14.3342 8.98387 14.3999 9.13865 14.4026 9.14506C14.432 9.21438 14.461 9.2839 14.4896 9.35361C14.7325 9.94932 14.8438 10.3929 14.8438 10.9369C14.8438 12.2072 14.288 13.4192 13.3411 14.3279C12.4171 15.2146 11.1981 15.7346 9.98088 15.7346C8.7633 15.7346 7.55307 15.2162 6.6385 14.3296C5.70334 13.423 5.15625 12.2112 5.15625 10.9369C5.15625 10.3605 5.27686 9.74928 5.50328 9.22035C5.76047 8.61963 6.1418 8.14674 6.6309 7.87379L7.09613 7.61418L7.15186 8.144C7.15217 8.14693 7.15305 8.15467 7.15459 8.16686C7.15727 8.18846 7.1607 8.21389 7.16496 8.24281C7.17885 8.33643 7.19525 8.42965 7.21414 8.52238C7.26818 8.78898 7.34127 9.0552 7.43531 9.30389C7.44133 9.10846 7.45055 8.94191 7.46578 8.74758C7.50613 8.2332 7.58162 7.7568 7.70504 7.30252C7.8902 6.621 8.17705 6.01646 8.58777 5.4982C9.06027 4.90197 9.68522 4.43633 10.4756 4.1193L10.958 3.92578V4.44559C10.958 5.55945 11.0206 6.34324 11.1752 7.01482C11.2669 7.4132 11.3932 7.77662 11.5631 8.12287C11.6183 7.97302 11.6883 7.82904 11.772 7.69305V7.69305ZM6.44531 10.7375C6.44531 12.6466 8.24594 14.4065 10.1705 14.4065C10.8635 14.4065 11.7147 14.0109 12.3945 13.3632C13.122 12.67 13.5552 11.7918 13.5547 10.9191C13.5547 10.6427 13.513 10.3852 13.4315 10.1184C13.3671 9.90756 13.2943 9.72967 13.1427 9.39434C13.1375 9.38301 13.1136 9.33008 13.107 9.31547C13.0931 9.28473 13.0819 9.25986 13.0711 9.23582C13.0084 9.09605 12.9542 8.96902 12.9078 8.85004C12.8456 9.21439 12.8338 9.6499 12.8728 10.0048L12.9244 10.4742L12.4599 10.389C11.4116 10.1966 10.6311 9.46516 10.1586 8.36682C9.8748 7.70725 9.71273 6.93178 9.67645 6.14908C9.3316 6.68475 9.09221 7.41365 8.95209 8.29887C8.79748 9.27561 8.77611 10.3291 8.83721 11.3767L8.85713 11.7183L8.51615 11.7475C8.06863 11.7857 7.66371 11.6942 7.31033 11.4902C7.01023 11.3169 6.7582 11.0692 6.55353 10.7687C6.51559 10.7128 6.47966 10.6557 6.4458 10.5972C6.44545 10.6398 6.44531 10.6863 6.44531 10.7375V10.7375Z" fill="#00F7FF"/>
</g>
<defs>
<clipPath id="clip0_2337_7630">
<rect width="20" height="20" fill="white"/>
</clipPath>
</defs>
</svg>
