<svg width="10" height="10" viewBox="0 0 10 10" fill="none" xmlns="http://www.w3.org/2000/svg">
<path
    d="M5.71683 5.00582L9.50774 1.21504C9.69915 1.02362 9.69915 0.708221 9.50774 0.516807L9.48703 0.4961C9.29562 0.304686 8.98021 0.304686 8.7888 0.4961L4.99789 4.29219L1.20711 0.4961C1.01569 0.304686 0.70029 0.304686 0.508876 0.4961L0.488169 0.516807C0.291704 0.708221 0.291704 1.02362 0.488169 1.21504L4.27908 5.00595L0.488169 8.79673C0.296881 8.98814 0.296881 9.30355 0.488169 9.49496L0.508876 9.51567C0.70029 9.70708 1.01569 9.70708 1.20711 9.51567L4.99789 5.72476L8.7888 9.51554C8.98021 9.70696 9.29562 9.70696 9.48703 9.51554L9.50774 9.49484C9.69915 9.30342 9.69915 8.98802 9.50774 8.79661L5.71683 5.00582Z"
    fill="white" />
</svg>