<svg width="20" height="20" viewBox="0 0 20 20" fill="none" xmlns="http://www.w3.org/2000/svg">
<path d="M15.9167 6.83333C15.1667 4.25 12.75 2.5 10 2.5C7.25 2.5 4.83333 4.25 4.08333 6.83333C1.66667 7.41667 0 9.58333 0 12.0833C0 15.0833 2.41667 17.5 5.41667 17.5H14.5833C17.5833 17.5 20 15.0833 20 12.0833C20 9.58333 18.3333 7.41667 15.9167 6.83333V6.83333ZM14.5833 15.8333H5.41667C3.33333 15.8333 1.66667 14.1667 1.66667 12.0833C1.66667 10.25 3 8.66667 4.83333 8.41667C5.16667 8.33333 5.41667 8.08333 5.5 7.75C6 5.66667 7.91667 4.16667 10 4.16667C12.0833 4.16667 14 5.66667 14.5 7.75C14.5833 8.08333 14.8333 8.33333 15.1667 8.41667C17 8.66667 18.3333 10.25 18.3333 12.0833C18.3333 14.1667 16.6667 15.8333 14.5833 15.8333Z" fill="#00F7FF"/>
<path d="M15.7503 13.5837H15.167L15.5003 13.3337C15.7503 13.167 15.8337 12.8337 15.917 12.5837C15.917 12.2503 15.8337 12.0003 15.5837 11.8337C15.167 11.417 14.5837 11.417 14.167 11.7503L13.917 12.0003C13.7503 12.167 13.7503 12.417 13.8337 12.5837C14.0003 12.7503 14.2503 12.7503 14.417 12.667L14.667 12.417C14.7503 12.3337 14.8337 12.3337 14.917 12.417C15.0003 12.417 15.0003 12.5003 15.0003 12.5003C15.0003 12.5003 15.0003 12.5837 14.917 12.667L13.667 13.667C13.5003 13.7503 13.5003 14.0003 13.5003 14.167C13.5837 14.3337 13.7503 14.417 13.917 14.417H15.667C15.917 14.417 16.0837 14.2503 16.0837 14.0003C16.0837 13.7503 15.917 13.5837 15.7503 13.5837V13.5837ZM11.167 9.16699C10.0003 9.16699 9.00033 10.167 9.00033 11.3337V12.2503C9.00033 13.417 10.0003 14.417 11.167 14.417C12.3337 14.417 13.3337 13.417 13.3337 12.2503V11.3337C13.2503 10.167 12.3337 9.16699 11.167 9.16699V9.16699ZM12.0003 12.2503C12.0003 12.7503 11.5837 13.167 11.0837 13.167C10.5837 13.167 10.167 12.7503 10.167 12.2503V11.3337C10.167 10.8337 10.5837 10.417 11.0837 10.417C11.5837 10.417 12.0003 10.8337 12.0003 11.3337V12.2503V12.2503ZM6.75033 10.417H7.91699C8.25033 10.417 8.58366 10.167 8.58366 9.75033C8.58366 9.33366 8.25033 9.16699 7.91699 9.16699H6.75033C5.33366 9.16699 4.16699 10.3337 4.16699 11.7503C4.16699 13.167 5.33366 14.3337 6.75033 14.3337H7.91699C8.25033 14.3337 8.58366 14.0837 8.58366 13.667C8.58366 13.2503 8.33366 13.0003 7.91699 13.0003H6.75033C6.00033 13.0003 5.41699 12.417 5.41699 11.667C5.41699 10.917 6.00033 10.417 6.75033 10.417Z" fill="#00F7FF"/>
</svg>
