<svg width="20" height="20" viewBox="0 0 20 20" fill="none" xmlns="http://www.w3.org/2000/svg">
<path opacity="0.01" d="M0 0H20V20H0V0Z" fill="white"/>
<path d="M8.15 4.58006C7.79108 4.21551 7.36323 3.926 6.89136 3.72839C6.41948 3.53078 5.91301 3.42901 5.40143 3.42901C4.88985 3.42901 4.38337 3.53078 3.9115 3.72839C3.43962 3.926 3.01177 4.21551 2.65286 4.58006L2.57071 4.66292C1.04929 6.20006 1.04786 8.69506 2.56643 10.2344L9.48071 16.9522C9.61379 17.0816 9.79198 17.1541 9.97757 17.1543C10.1632 17.1546 10.3416 17.0826 10.475 16.9536L14.0393 13.5129L11.0321 10.5058C10.9904 10.464 10.9409 10.4309 10.8863 10.4083C10.8318 10.3857 10.7733 10.374 10.7143 10.374C10.6552 10.374 10.5968 10.3857 10.5422 10.4083C10.4877 10.4309 10.4382 10.464 10.3964 10.5058L10.2779 10.6251C9.84821 11.0547 9.26548 11.2961 8.65786 11.2961C8.05024 11.2961 7.46751 11.0547 7.03786 10.6251C6.60821 10.1954 6.36683 9.61268 6.36683 9.00506C6.36683 8.39745 6.60821 7.81471 7.03786 7.38506L8.99214 5.43078L8.15 4.58006ZM10 4.41792L10.8343 3.57506C11.3261 3.07619 11.9121 2.68003 12.5583 2.40964C13.2045 2.13924 13.8981 2 14.5986 2C15.2991 2 15.9926 2.13924 16.6388 2.40964C17.2851 2.68003 17.8711 3.07619 18.3629 3.57506L18.4443 3.65792C20.5186 5.75364 20.5186 9.14792 18.4443 11.2436L18.4329 11.2551L11.4671 17.9815C11.0669 18.368 10.532 18.5837 9.97556 18.5829C9.41915 18.5821 8.88486 18.3649 8.48571 17.9772L1.56571 11.2536L1.55571 11.2436C-0.518571 9.14792 -0.518571 5.75364 1.55571 3.65792L1.63714 3.57506C2.12891 3.07619 2.71494 2.68003 3.36117 2.40964C4.00739 2.13924 4.70092 2 5.40143 2C6.10194 2 6.79547 2.13924 7.44169 2.40964C8.08791 2.68003 8.67394 3.07619 9.16571 3.57506L10 4.41792ZM15.0664 12.5201L17.435 10.2336C18.9521 8.69363 18.9507 6.20006 17.4293 4.66221L17.3471 4.58006C16.9882 4.21551 16.5604 3.926 16.0885 3.72839C15.6166 3.53078 15.1102 3.42901 14.5986 3.42901C14.087 3.42901 13.5805 3.53078 13.1086 3.72839C12.6368 3.926 12.2089 4.21551 11.85 4.58006L10.505 5.93864L8.04786 8.39578C7.89238 8.55871 7.80683 8.776 7.8095 9.00119C7.81217 9.22638 7.90284 9.44158 8.06213 9.60078C8.22142 9.75998 8.43668 9.85053 8.66187 9.85306C8.88706 9.8556 9.10431 9.76992 9.26714 9.61435L9.38643 9.49506C9.5608 9.32069 9.76782 9.18236 9.99565 9.08799C10.2235 8.99361 10.4677 8.94504 10.7143 8.94504C10.9609 8.94504 11.2051 8.99361 11.4329 9.08799C11.6608 9.18236 11.8678 9.32069 12.0421 9.49506L15.0664 12.5201Z" fill="white"/>
</svg>
