<svg width="20" height="20" viewBox="0 0 20 20" fill="none" xmlns="http://www.w3.org/2000/svg">
<g clip-path="url(#clip0_1669_6345)">
<path d="M19 6.40476C19 5.60884 18.4719 4.94558 17.6797 4.76871L10.3741 3.04422C10.2421 3 10.11 3 10.022 3C9.88998 3 9.75795 3 9.62592 3.04422L2.32029 4.76871C1.57213 4.94558 1 5.60884 1 6.40476C1 7.20068 1.52812 7.86395 2.32029 8.04082L3.81663 8.39456V13.1701C3.81663 14.6735 5.53301 16 9.978 16C14.467 16 16.1394 14.6735 16.1394 13.1701V8.39456L17.6357 8.04082C18.4719 7.86395 19 7.20068 19 6.40476ZM15.0391 13.1701C15.0391 13.7891 13.3667 14.8503 9.978 14.8503C6.58924 14.8503 4.96088 13.7891 4.96088 13.1701V8.65986L9.62592 9.76531C9.75795 9.80952 9.88998 9.80952 9.978 9.80952C10.11 9.80952 10.2421 9.80952 10.3741 9.76531L15.0391 8.65986V13.1701ZM10.11 8.65986H9.84597L2.58435 6.93537C2.32029 6.89116 2.14425 6.67007 2.14425 6.40476C2.14425 6.13946 2.32029 5.91837 2.58435 5.87415L9.88998 4.19388H10.154L17.4597 5.87415C17.7237 5.91837 17.8998 6.13946 17.8998 6.40476C17.8998 6.67007 17.7237 6.89116 17.4597 6.93537L10.11 8.65986Z" fill="#00F7FF"/>
<path d="M17.5385 9.56522V14.5652C17.5385 14.8696 17.7692 15.1304 18.0385 15.1304C18.3077 15.1304 18.5385 14.8696 18.5385 14.5652V9.56522C18.5385 9.26087 18.3077 9 18.0385 9C17.7308 9 17.5385 9.26087 17.5385 9.56522ZM18 15.6522C17.4615 15.6522 17 17.2609 17 17.8696C17 18.4783 17.4231 19 18 19C18.5385 19 19 18.5217 19 17.8696C19 17.2174 18.5385 15.6522 18 15.6522Z" fill="#00F7FF"/>
</g>
<defs>
<clipPath id="clip0_1669_6345">
<rect width="20" height="20" fill="white"/>
</clipPath>
</defs>
</svg>
