<svg width="40" height="40" viewBox="0 0 40 40" fill="none" xmlns="http://www.w3.org/2000/svg">
<path fill-rule="evenodd" clip-rule="evenodd" d="M10 0H1H0V1V39V40H1H10V39H1V1H10V0ZM30 39H39V1H30V0H39H40V1V39V40H39H30V39Z" fill="#18FEFE"/>
<path d="M10 30V13.3333L23.3333 10V14.8333L30 17.5V30H10ZM21.6667 12.1342L11.6667 14.6342V28.3333H21.6667V12.1342ZM23.3333 16.6275V28.3333H28.3333V18.6275L23.3333 16.6275ZM26.6667 22.5V25H25V22.5H26.6667ZM19.1667 23.3333V25H14.1667V23.3333H19.1667ZM19.1667 18.3333V20H14.1667V18.3333H19.1667Z" fill="#00F7FF"/>
</svg>
