<svg width="20" height="20" viewBox="0 0 20 20" fill="none" xmlns="http://www.w3.org/2000/svg">
<path d="M10.0214 18C5.61089 18.0098 2.00878 14.427 2.00002 10.0216C1.99123 5.61006 5.57249 2.00959 9.97882 2.00002C14.371 1.99048 17.9891 5.56997 18 9.93548C18.011 14.3872 14.4465 17.9902 10.0214 18ZM3.34858 10.0606C3.35641 13.7521 6.32722 16.7155 10.0198 16.7151C13.6978 16.7148 16.6943 13.725 16.6979 10.052C16.7015 6.36232 13.6902 3.36435 9.9894 3.37319C6.30727 3.38195 3.34076 6.3693 3.34858 10.0606Z" fill="#00F7FF"/>
<path d="M10.6113 12C10.0737 12 9.61823 12 9.12569 12C8.97122 11.0338 9.17952 10.2043 9.89039 9.52617C10.1478 9.28063 10.4099 9.03498 10.6314 8.75713C10.7824 8.56773 10.8988 8.3333 10.9742 8.09984C11.133 7.60811 10.9107 7.05471 10.5047 6.84165C10.0818 6.6197 9.5477 6.73304 9.21993 7.14364C9.08693 7.31024 8.99039 7.51318 8.90467 7.71201C8.82521 7.89633 8.78226 8.0972 8.70582 8.34787C8.14001 8.20706 7.58371 8.06863 7 7.92337C7.19288 6.79181 7.58847 5.81655 8.6571 5.35387C9.80026 4.85891 10.9733 4.84355 12.0434 5.56184C13.0273 6.22222 13.3028 7.83121 12.6321 8.89835C12.3801 9.29937 12.0334 9.65587 11.6737 9.9637C11.0556 10.4927 10.4692 11.0126 10.6113 12Z" fill="#00F7FF"/>
<path d="M11 14C10.3146 14 9.67442 14 9 14C9 13.6646 9 13.3397 9 13C9.66984 13 10.3207 13 11 13C11 13.3343 11 13.6529 11 14Z" fill="#00F7FF"/>
</svg>
