  <svg width="18" height="18" viewBox="0 0 18 18" fill="none" xmlns="http://www.w3.org/2000/svg">
    <path
      d="M1.60245 8.49042C1.43108 8.49042 1.25971 8.43678 1.14546 8.27586C0.916965 8.0613 0.974088 7.68582 1.20258 7.5249L7.94321 2.32184C8.57157 1.89272 9.48555 1.89272 10.0568 2.32184L16.7974 7.47126C17.0259 7.63218 17.083 8.00766 16.8545 8.22222C16.626 8.43678 16.2833 8.49042 16.0548 8.27586L9.37131 3.23372C9.19993 3.12644 8.85719 3.12644 8.68582 3.23372L1.9452 8.38314C1.83095 8.49042 1.7167 8.49042 1.60245 8.49042ZM14.4553 16H10.7423C10.3995 16 10.171 15.7854 10.171 15.4636V12.9425C10.171 12.567 9.48555 12.1916 8.97144 12.1916C8.45732 12.1916 7.82896 12.5134 7.82896 12.9425V15.4636C7.82896 15.7854 7.60046 16 7.25772 16H3.65891C2.80205 16 2.17369 15.41 2.17369 14.659V9.56322C2.17369 9.24138 2.40219 9.02682 2.74493 9.02682C3.08767 9.02682 3.31617 9.24138 3.31617 9.56322V14.659C3.31617 14.8199 3.43042 14.9272 3.65891 14.9272H6.7436V12.9425C6.7436 11.8697 7.94321 11.1188 9.02856 11.1188C10.1139 11.1188 11.3706 11.8697 11.3706 12.9425V14.9272H14.5125C14.6838 14.9272 14.7981 14.9272 14.7981 14.6054V9.56322C14.7981 9.24138 15.0266 9.02682 15.3693 9.02682C15.7121 9.02682 15.9406 9.24138 15.9406 9.56322V14.659C15.8834 15.4636 15.3122 16 14.4553 16Z"
      fill="#00F7FF" />
  </svg>