<svg width="20" height="20" viewBox="0 0 20 20" fill="none" xmlns="http://www.w3.org/2000/svg">
<path d="M7.77805 10.2776C8.85138 10.2776 9.72249 11.1487 9.72249 12.222V16.6664C9.72249 17.1821 9.51763 17.6767 9.15298 18.0414C8.78832 18.406 8.29375 18.6109 7.77805 18.6109H3.3336C2.81791 18.6109 2.32333 18.406 1.95867 18.0414C1.59402 17.6767 1.38916 17.1821 1.38916 16.6664V12.222C1.38916 11.1487 2.26027 10.2776 3.3336 10.2776H7.77805ZM16.6669 10.2776C17.7403 10.2776 18.6114 11.1487 18.6114 12.222V16.6664C18.6114 17.1821 18.4065 17.6767 18.0419 18.0414C17.6772 18.406 17.1826 18.6109 16.6669 18.6109H12.2225C11.7068 18.6109 11.2122 18.406 10.8476 18.0414C10.4829 17.6767 10.278 17.1821 10.278 16.6664V12.222C10.278 11.1487 11.1492 10.2776 12.2225 10.2776H16.6669ZM7.77805 11.9442H3.3336C3.29713 11.9442 3.26101 11.9514 3.2273 11.9654C3.1936 11.9793 3.16298 11.9998 3.13719 12.0256C3.11139 12.0514 3.09093 12.082 3.07697 12.1157C3.06301 12.1494 3.05583 12.1855 3.05583 12.222V16.6664C3.05583 16.8198 3.18027 16.9442 3.3336 16.9442H7.77805C7.81453 16.9442 7.85065 16.937 7.88435 16.9231C7.91805 16.9091 7.94867 16.8887 7.97447 16.8629C8.00026 16.8371 8.02072 16.8065 8.03468 16.7727C8.04864 16.739 8.05583 16.7029 8.05583 16.6664V12.222C8.05583 12.1483 8.02656 12.0777 7.97447 12.0256C7.92237 11.9735 7.85172 11.9442 7.77805 11.9442V11.9442ZM16.6669 11.9442H12.2225C12.1488 11.9442 12.0782 11.9735 12.0261 12.0256C11.974 12.0777 11.9447 12.1483 11.9447 12.222V16.6664C11.9447 16.8198 12.0692 16.9442 12.2225 16.9442H16.6669C16.7034 16.9442 16.7395 16.937 16.7732 16.9231C16.8069 16.9091 16.8376 16.8887 16.8634 16.8629C16.8891 16.8371 16.9096 16.8065 16.9236 16.7727C16.9375 16.739 16.9447 16.7029 16.9447 16.6664V12.222C16.9447 12.1855 16.9375 12.1494 16.9236 12.1157C16.9096 12.082 16.8891 12.0514 16.8634 12.0256C16.8376 11.9998 16.8069 11.9793 16.7732 11.9654C16.7395 11.9514 16.7034 11.9442 16.6669 11.9442V11.9442ZM7.77805 1.38867C8.85138 1.38867 9.72249 2.25978 9.72249 3.33312V7.77756C9.72249 8.29326 9.51763 8.78784 9.15298 9.15249C8.78832 9.51714 8.29375 9.72201 7.77805 9.72201H3.3336C2.81791 9.72201 2.32333 9.51714 1.95867 9.15249C1.59402 8.78784 1.38916 8.29326 1.38916 7.77756V3.33312C1.38916 2.25978 2.26027 1.38867 3.3336 1.38867H7.77805ZM14.4447 1.38867C14.9919 1.38867 15.5337 1.49645 16.0392 1.70584C16.5448 1.91524 17.0041 2.22215 17.391 2.60906C17.7779 2.99597 18.0848 3.4553 18.2942 3.96082C18.5036 4.46635 18.6114 5.00816 18.6114 5.55534C18.6114 6.10251 18.5036 6.64433 18.2942 7.14985C18.0848 7.65538 17.7779 8.11471 17.391 8.50162C17.0041 8.88853 16.5448 9.19544 16.0392 9.40484C15.5337 9.61423 14.9919 9.72201 14.4447 9.72201C13.3396 9.722 12.2798 9.28302 11.4984 8.50162C10.717 7.72022 10.278 6.66041 10.278 5.55534C10.278 4.45027 10.717 3.39046 11.4984 2.60906C12.2798 1.82766 13.3396 1.38867 14.4447 1.38867V1.38867ZM7.77805 3.05534H3.3336C3.29713 3.05534 3.26101 3.06252 3.2273 3.07648C3.1936 3.09044 3.16298 3.1109 3.13719 3.1367C3.11139 3.16249 3.09093 3.19311 3.07697 3.22682C3.06301 3.26052 3.05583 3.29664 3.05583 3.33312V7.77756C3.05583 7.93089 3.18027 8.05534 3.3336 8.05534H7.77805C7.85172 8.05534 7.92237 8.02607 7.97447 7.97398C8.02656 7.92189 8.05583 7.85123 8.05583 7.77756V3.33312C8.05583 3.29664 8.04864 3.26052 8.03468 3.22682C8.02072 3.19311 8.00026 3.16249 7.97447 3.1367C7.94867 3.1109 7.91805 3.09044 7.88435 3.07648C7.85065 3.06252 7.81453 3.05534 7.77805 3.05534ZM14.4447 3.05534C13.7817 3.05534 13.1458 3.31873 12.6769 3.78757C12.2081 4.25641 11.9447 4.8923 11.9447 5.55534C11.9447 6.21838 12.2081 6.85426 12.6769 7.32311C13.1458 7.79195 13.7817 8.05534 14.4447 8.05534C15.1078 8.05534 15.7436 7.79195 16.2125 7.32311C16.6813 6.85426 16.9447 6.21838 16.9447 5.55534C16.9447 4.8923 16.6813 4.25641 16.2125 3.78757C15.7436 3.31873 15.1078 3.05534 14.4447 3.05534Z" fill="#00F7FF"/>
</svg>
