
<svg width="30" height="30" viewBox="0 0 30 30" fill="none" xmlns="http://www.w3.org/2000/svg">
<path d="M14.9999 27C11.2199 27 8.25586 21.732 8.25586 15C8.25586 8.268 11.2199 3 14.9999 3C18.7799 3 21.7559 8.268 21.7559 15C21.7439 21.732 18.7799 27 14.9999 27ZM14.9999 4.5C12.1559 4.5 9.75586 9.312 9.75586 15C9.75586 20.688 12.1559 25.5 14.9999 25.5C17.8439 25.5 20.2559 20.688 20.2559 15C20.2559 9.312 17.8439 4.5 14.9999 4.5Z" fill="#00F7FF"/>
<path d="M14.9995 27C11.4235 27 8.06348 25.428 5.77148 22.668L5.23148 22.02L5.95148 21.564C8.21948 20.112 11.5195 19.284 14.9995 19.284C18.4915 19.284 21.7915 20.112 24.0475 21.564L24.7675 22.02L24.2275 22.668C21.9355 25.428 18.5755 27 14.9995 27ZM7.53548 22.38C9.50348 24.372 12.1795 25.5 14.9995 25.5C17.8195 25.5 20.4955 24.372 22.4635 22.38C20.4835 21.36 17.8195 20.784 14.9995 20.784C12.1795 20.784 9.51548 21.36 7.53548 22.38V22.38ZM14.9995 11.1C11.3755 11.1 8.00348 10.212 5.73548 8.676L5.06348 8.22L5.55548 7.584C7.85948 4.668 11.2915 3 14.9995 3C18.7075 3 22.1395 4.668 24.4315 7.584L24.9235 8.22L24.2515 8.676C21.9955 10.212 18.6235 11.1 14.9995 11.1V11.1ZM7.29548 7.872C9.28748 8.976 12.0475 9.6 14.9995 9.6C17.9515 9.6 20.7115 8.976 22.7035 7.872C20.7235 5.724 17.9515 4.5 14.9995 4.5C12.0475 4.5 9.27548 5.724 7.29548 7.872Z" fill="#00F7FF"/>
<path d="M6.192 23.1842L5.772 22.6802C3.984 20.5202 3 17.7962 3 15.0002C3 12.2882 3.888 9.72023 5.568 7.58423L6 7.03223L6.576 7.42823C8.604 8.80823 11.676 9.60023 15 9.60023C18.324 9.60023 21.396 8.80823 23.424 7.44023L24 7.04423L24.432 7.59623C26.112 9.72023 27 12.2882 27 15.0002C27 17.7962 26.016 20.5202 24.228 22.6682L23.808 23.1722L23.256 22.8122C21.228 21.5162 18.228 20.7722 15.012 20.7722C11.796 20.7722 8.796 21.5162 6.768 22.8122L6.192 23.1842V23.1842ZM15 19.2842C18.204 19.2842 21.24 19.9802 23.46 21.2162C24.78 19.4282 25.5 17.2442 25.5 15.0002C25.5 12.8522 24.864 10.8122 23.652 9.06023C21.408 10.3682 18.3 11.1002 15 11.1002C11.7 11.1002 8.592 10.3682 6.348 9.06023C5.136 10.8122 4.5 12.8522 4.5 15.0002C4.5 17.2322 5.22 19.4162 6.54 21.2162C8.76 19.9802 11.796 19.2842 15 19.2842Z" fill="#00F7FF"/>
<path d="M14.2441 3.74414H15.7441V26.2441H14.2441V3.74414Z" fill="#00F7FF"/>
<path d="M3.75586 14.2441H26.2559V15.7441H3.75586V14.2441Z" fill="#00F7FF"/>
</svg>
