<svg width="20" height="20" viewBox="0 0 20 20" fill="none" xmlns="http://www.w3.org/2000/svg">
<path d="M19.6933 2.77868L17.3933 0.482253C17.1946 0.295423 16.9321 0.191406 16.6594 0.191406C16.3866 0.191406 16.1242 0.295423 15.9255 0.482253L13.629 2.78225C13.5324 2.87849 13.4557 2.99286 13.4034 3.11881C13.351 3.24475 13.3241 3.3798 13.3241 3.51618C13.3241 3.65257 13.351 3.78761 13.4034 3.91356C13.4557 4.03951 13.5324 4.15388 13.629 4.25011C13.7253 4.34676 13.8396 4.42344 13.9656 4.47577C14.0915 4.5281 14.2266 4.55504 14.363 4.55504C14.4993 4.55504 14.6344 4.5281 14.7603 4.47577C14.8863 4.42344 15.0007 4.34676 15.0969 4.25011L15.6576 3.6894V15.118C15.6698 15.4264 15.6195 15.7342 15.5099 16.0228C15.4003 16.3114 15.2335 16.5749 15.0195 16.7974C14.8056 17.02 14.5489 17.1971 14.2648 17.318C13.9808 17.439 13.6753 17.5013 13.3665 17.5013C13.0578 17.5013 12.7523 17.439 12.4682 17.318C12.1842 17.1971 11.9275 17.02 11.7136 16.7974C11.4996 16.5749 11.3328 16.3114 11.2232 16.0228C11.1135 15.7342 11.0633 15.4264 11.0755 15.118V5.18225C11.0429 4.04216 10.5671 2.95969 9.7492 2.16478C8.93128 1.36988 7.83566 0.925199 6.69511 0.925199C5.55455 0.925199 4.45893 1.36988 3.64101 2.16478C2.82308 2.95969 2.34731 4.04216 2.31475 5.18225V16.2858L1.78618 15.7394C1.59105 15.5433 1.32603 15.4328 1.04942 15.4321C0.772801 15.4315 0.507248 15.5407 0.311178 15.7358C0.115107 15.9309 0.00457909 16.196 0.00390931 16.4726C0.00323953 16.7492 0.112483 17.0148 0.307606 17.2108L2.60761 19.5073C2.80243 19.7016 3.06637 19.8107 3.34153 19.8107C3.6167 19.8107 3.88064 19.7016 4.07546 19.5073L6.37189 17.2073C6.55044 17.0095 6.64621 16.7507 6.63941 16.4843C6.63261 16.2179 6.52376 15.9644 6.33535 15.7759C6.14694 15.5875 5.89336 15.4787 5.62699 15.4719C5.36062 15.4651 5.10182 15.5608 4.90403 15.7394L4.39689 16.2501V5.17868C4.42034 4.58296 4.67349 4.01945 5.10326 3.60626C5.53304 3.19308 6.10607 2.96229 6.70225 2.96229C7.29843 2.96229 7.87146 3.19308 8.30124 3.60626C8.73101 4.01945 8.98415 4.58296 9.00761 5.17868V15.1037C9.04011 16.24 9.51436 17.3189 10.3296 18.1112C11.1449 18.9034 12.2369 19.3467 13.3737 19.3467C14.5105 19.3467 15.6025 18.9034 16.4177 18.1112C17.233 17.3189 17.7072 16.24 17.7397 15.1037V3.75368L18.2147 4.24654C18.4125 4.42509 18.6713 4.52086 18.9377 4.51406C19.2041 4.50726 19.4577 4.39841 19.6461 4.21C19.8345 4.02158 19.9433 3.768 19.9501 3.50164C19.9569 3.23527 19.8612 2.97646 19.6826 2.77868H19.6933Z" fill="#00F7FF"/>
</svg>
