<svg width="30" height="30" viewBox="0 0 30 30" fill="none" xmlns="http://www.w3.org/2000/svg">
<path d="M10.0443 9.85048C9.54839 9.85048 9.14669 9.44588 9.14669 8.94708V3.1811C9.14669 2.6823 9.54839 2.2777 10.0443 2.2777C10.5401 2.2777 10.9419 2.6823 10.9419 3.1811V8.94713C10.9419 9.4459 10.5401 9.85053 10.0443 9.85053L10.0443 9.85048ZM15.076 3.17802V14.1449C15.0826 14.7383 14.8575 15.311 14.4482 15.7416L13.5922 16.6248C13.5028 16.7124 13.4515 16.8315 13.4495 16.9566V24.5899C13.4495 26.4732 11.9222 28 10.038 28C9.59081 27.9989 9.14841 27.9086 8.73677 27.7344C8.32513 27.5601 7.95257 27.3055 7.64101 26.9854C7.00967 26.3478 6.65516 25.4871 6.65427 24.5899V16.9852C6.65247 16.8596 6.60099 16.7397 6.51107 16.6518L5.65636 15.7974C5.44395 15.5841 5.27648 15.3305 5.16381 15.0515C5.05113 14.7726 4.99553 14.474 5.00028 14.1733V3.17802C5.00028 2.67961 5.40448 2.27556 5.90313 2.27556C6.40178 2.27556 6.80598 2.67963 6.80598 3.17802V14.1447C6.8078 14.2703 6.85928 14.3901 6.94921 14.478L7.80391 15.3324C8.01632 15.5458 8.18379 15.7994 8.29647 16.0783C8.40915 16.3572 8.46475 16.6558 8.46 16.9566V24.5895C8.46189 25.0149 8.63266 25.4222 8.9349 25.7222C9.07799 25.8704 9.24928 25.9885 9.43872 26.0697C9.62816 26.1509 9.83194 26.1935 10.0381 26.1951C10.9249 26.1951 11.6438 25.4765 11.6438 24.5899V16.985C11.6371 16.3915 11.8623 15.8188 12.2716 15.3882L13.1276 14.505C13.217 14.4175 13.2683 14.2983 13.2702 14.1733V3.17802C13.2702 2.67961 13.6744 2.27556 14.1731 2.27556C14.6718 2.27556 15.076 2.67963 15.076 3.17802V3.17802ZM24.9999 4.25273V24.3143C24.9999 26.4187 23.5366 28 21.5879 28C19.7148 27.9845 18.2046 26.4622 18.2047 24.5899V16.9852C18.2029 16.8598 18.1516 16.7402 18.062 16.6524L18.0598 16.6501L17.2055 15.7411C16.8033 15.3177 16.5789 14.7567 16.5783 14.1733V8.02806C16.5783 6.88168 16.8089 5.91871 17.2418 5.10256C17.6007 4.42577 18.0839 3.87076 18.7012 3.36736C19.757 2.50639 21.1783 2 22.5258 2C23.1528 2 23.7476 2.20064 24.1999 2.56799C24.4518 2.77058 24.6546 3.02732 24.7931 3.31904C24.9316 3.61076 25.0023 3.92993 24.9999 4.25273H24.9999ZM23.1942 24.3143V24.3142L23.2218 4.28031C23.2218 4.11011 23.137 3.98839 22.9828 3.90618C22.8581 3.83965 22.6936 3.80487 22.5534 3.80487C21.6172 3.80487 20.7088 4.07865 19.8719 4.7526C18.8979 5.53694 18.4115 6.61736 18.4115 8.00049V14.1722C18.4133 14.2976 18.4646 14.4172 18.5542 14.505L18.5564 14.5073L19.4107 15.4164C19.8129 15.8397 20.0373 16.4007 20.038 16.9841V24.5886C20.052 25.4548 20.751 26.1535 21.6167 26.1676C21.8227 26.1691 22.0269 26.128 22.2163 26.047C22.4057 25.966 22.5762 25.8468 22.7172 25.6969C23.0216 25.3365 23.1942 24.8525 23.1942 24.3143V24.3143Z" fill="#00F7FF"/>
</svg>
