<svg width="20" height="18" viewBox="0 0 20 18" fill="none" xmlns="http://www.w3.org/2000/svg">
<path d="M0 7.92H7.85714V0H0V7.92ZM1.42857 1.44H6.42857V6.48H1.42857V1.44ZM0 18H7.85714V10.08H0V18ZM1.42857 11.52H6.42857V16.56H1.42857V11.52ZM10.3314 2.16H19.2857C19.4752 2.16 19.6568 2.08414 19.7908 1.94912C19.9247 1.81409 20 1.63096 20 1.44C20 1.24904 19.9247 1.06591 19.7908 0.930883C19.6568 0.795857 19.4752 0.72 19.2857 0.72H10.3314C10.142 0.72 9.96031 0.795857 9.82635 0.930883C9.6924 1.06591 9.61714 1.24904 9.61714 1.44C9.61714 1.63096 9.6924 1.81409 9.82635 1.94912C9.96031 2.08414 10.142 2.16 10.3314 2.16ZM19.2857 10.8H10.3314C10.142 10.8 9.96031 10.8759 9.82635 11.0109C9.6924 11.1459 9.61714 11.329 9.61714 11.52C9.61714 11.711 9.6924 11.8941 9.82635 12.0291C9.96031 12.1641 10.142 12.24 10.3314 12.24H19.2857C19.4752 12.24 19.6568 12.1641 19.7908 12.0291C19.9247 11.8941 20 11.711 20 11.52C20 11.329 19.9247 11.1459 19.7908 11.0109C19.6568 10.8759 19.4752 10.8 19.2857 10.8ZM19.2857 5.76H10.3314C10.142 5.76 9.96031 5.83586 9.82635 5.97088C9.6924 6.10591 9.61714 6.28904 9.61714 6.48C9.61714 6.67096 9.6924 6.85409 9.82635 6.98912C9.96031 7.12414 10.142 7.2 10.3314 7.2H19.2857C19.4752 7.2 19.6568 7.12414 19.7908 6.98912C19.9247 6.85409 20 6.67096 20 6.48C20 6.28904 19.9247 6.10591 19.7908 5.97088C19.6568 5.83586 19.4752 5.76 19.2857 5.76ZM19.2857 15.84H10.3314C10.142 15.84 9.96031 15.9159 9.82635 16.0509C9.6924 16.1859 9.61714 16.369 9.61714 16.56C9.61714 16.751 9.6924 16.9341 9.82635 17.0691C9.96031 17.2041 10.142 17.28 10.3314 17.28H19.2857C19.4752 17.28 19.6568 17.2041 19.7908 17.0691C19.9247 16.9341 20 16.751 20 16.56C20 16.369 19.9247 16.1859 19.7908 16.0509C19.6568 15.9159 19.4752 15.84 19.2857 15.84Z" fill="#00F7FF"/>
</svg>
