<svg width="30" height="30" viewBox="0 0 30 30" fill="none" xmlns="http://www.w3.org/2000/svg">
<path fill-rule="evenodd" clip-rule="evenodd" d="M27 18.3155V27.6313H24.9474V23.9997H22.1053V25.2629H20.0526V23.9997H9.94737V25.2629H7.89474V23.9997H5.05263V27.6313H3V18.1576C3 17.3682 3.31579 16.5787 3.63158 15.9471V5.84185C3.63158 3.94711 5.21053 2.36816 7.10526 2.36816H22.8947C24.7895 2.36816 26.3684 3.94711 26.3684 5.84185V16.105C26.8421 16.7366 27 17.5261 27 18.3155ZM7.10526 4.4208C6.31579 4.4208 5.68421 5.05237 5.68421 5.84185V13.8945C5.76316 13.8945 5.88158 13.855 6 13.8155C6.11842 13.7761 6.23684 13.7366 6.31579 13.7366C6.93876 13.5808 7.68121 13.4251 8.52632 13.2862V13.2629C8.52632 9.94711 9 8.52606 9.15789 8.36816C9.19517 8.33089 9.23244 8.28482 9.27179 8.23618C9.39914 8.07877 9.54823 7.89448 9.78947 7.89448C11.5263 7.42079 13.2632 7.2629 15 7.2629C16.9987 7.2629 18.7347 7.61307 19.6215 7.79193C19.9256 7.85328 20.1299 7.89448 20.2105 7.89448C20.5263 7.89448 20.6842 8.05237 20.8421 8.36816C21 8.52606 21.4737 9.78922 21.4737 12.6313V13.3347C22.1855 13.4609 22.8171 13.5987 23.3684 13.7366C23.5263 13.7366 23.8421 13.7366 24 13.8945L24.3158 14.0524V5.84185C24.3158 5.05237 23.6842 4.4208 22.8947 4.4208H7.10526ZM19.5789 13.0565V12.6313C19.5789 11.2103 19.4211 10.2629 19.2632 9.78922V9.63132H19.1053C18.975 9.61685 18.8461 9.60237 18.7182 9.58802C17.4513 9.4458 16.2908 9.31553 15 9.31553C13.2632 9.31553 11.6842 9.47343 11.0526 9.63132H10.8947V9.78922C10.7446 10.3897 10.5945 11.4182 10.5801 13.0106C11.8616 12.8752 13.2945 12.7892 14.8421 12.7892C16.6325 12.7892 18.2115 12.895 19.5789 13.0565ZM5.05263 18.3155V21.9471H25.1053V18.3155C25.1053 17.2103 24.1579 16.105 23.0526 15.7892C21.3158 15.3155 18.4737 14.8418 15 14.8418C11.5263 14.8418 8.68421 15.3155 7.10526 15.7892C5.8421 16.105 5.05263 17.0524 5.05263 18.3155Z" fill="#00F7FF"/>
</svg>
