<svg width="30" height="30" viewBox="0 0 30 30" fill="none" xmlns="http://www.w3.org/2000/svg">
<path fill-rule="evenodd" clip-rule="evenodd" d="M20.5704 8.38682L15.5757 13.3416L19.3281 19.7947C19.3701 19.8666 19.41 19.9396 19.4477 20.0136H20.1405C23.1958 20.0178 25.7065 22.3198 26.0072 25.2679H28.0594C28.5361 25.2679 28.9209 25.6501 28.9209 26.1206C28.9205 26.2332 28.8979 26.3445 28.8543 26.4484C28.8108 26.5522 28.7473 26.6464 28.6674 26.7257C28.5875 26.8049 28.4927 26.8677 28.3885 26.9103C28.2844 26.953 28.1728 26.9747 28.0603 26.9742H0.861573C0.748935 26.9748 0.637286 26.9532 0.533011 26.9106C0.428736 26.868 0.333879 26.8053 0.253863 26.726C0.173846 26.6467 0.11024 26.5524 0.0666808 26.4486C0.0231213 26.3447 0.000462515 26.2332 0 26.1206C0 25.6501 0.385766 25.2679 0.861573 25.2679H2.90109C3.20148 22.314 5.72056 20.0103 8.78116 20.0136H9.34171L7.81878 17.4002C6.72282 16.5569 6.01758 15.2388 6.01758 13.7575C6.01758 11.7136 7.36134 9.98052 9.22163 9.37735L15.3895 3.26859C15.9036 2.76072 16.5557 2.41522 17.2647 2.27506C17.9737 2.1349 18.7082 2.20627 19.3769 2.48028C19.7033 2.61279 20.0067 2.79136 20.2787 3.00909H25.9266C26.0814 3.00909 26.2295 3.03684 26.3632 3.0866C26.4294 3.10566 26.4933 3.13259 26.5536 3.16702C26.6804 3.23933 26.7865 3.34299 26.8616 3.46798C26.9386 3.58576 26.9824 3.7197 26.9824 3.86184L26.9824 3.86398C26.9831 3.87792 26.9835 3.89189 26.9835 3.90589V6.41651H27.5579C27.8651 6.41651 28.1493 6.57893 28.3038 6.84288L29.7392 9.28194C29.8149 9.41144 29.8548 9.55875 29.8548 9.70875C29.8548 9.85876 29.8149 10.0061 29.7392 10.1356L28.3038 12.5746C28.1884 12.7712 28.0001 12.9144 27.7798 12.9731C27.5595 13.0317 27.325 13.0012 27.1271 12.888C27.0294 12.8327 26.9436 12.7585 26.8748 12.6698C26.8059 12.5812 26.7553 12.4797 26.7259 12.3713C26.6965 12.263 26.6889 12.1498 26.7036 12.0385C26.7182 11.9272 26.7547 11.8199 26.8111 11.7228L27.9851 9.7092L27.0609 8.122H25.1947L24.2705 9.7092L25.4446 11.7219C25.599 11.9867 25.599 12.3116 25.4446 12.5755C25.3683 12.7055 25.2593 12.8133 25.1284 12.8881C24.9975 12.9629 24.8494 13.0021 24.6986 13.0019C24.5477 13.0022 24.3992 12.9629 24.2682 12.8879C24.1372 12.8129 24.0281 12.7049 23.9518 12.5746L22.5164 10.1356C22.4464 10.0047 22.412 9.85761 22.4167 9.7092C22.4164 9.55913 22.456 9.41169 22.5315 9.28194L23.9668 6.84288C24.043 6.71281 24.152 6.605 24.2829 6.53019C24.4138 6.45538 24.562 6.41618 24.7127 6.41651H25.2612V4.71547H21.4599C21.5764 5.07271 21.6373 5.44784 21.6385 5.8277C21.6395 6.30385 21.5456 6.77541 21.3622 7.21481C21.1787 7.65422 20.9096 8.05265 20.5704 8.38682ZM4.6364 25.2679H24.2727C23.983 23.2631 22.2431 21.7215 20.1405 21.7191H10.3562L10.3407 21.728L10.3356 21.7191H8.78116C7.67423 21.716 6.61083 22.15 5.82216 22.9267C5.43402 23.309 5.12557 23.7645 4.91464 24.2668C4.77972 24.5882 4.68642 24.9245 4.6364 25.2679ZM19.3504 7.18362L14.8226 11.6753C14.2134 10.4863 13.0988 9.59424 11.7589 9.27625L16.6059 4.47355C16.9766 4.14554 17.458 3.97041 17.9528 3.98351C18.4476 3.99662 18.919 4.19699 19.2719 4.54417C19.6227 4.88917 19.8267 5.35632 19.8413 5.84812C19.8559 6.33991 19.6801 6.81837 19.3504 7.18362ZM14.921 15.6346L17.4815 20.0136H11.331L10.366 18.3576C10.4667 18.364 10.5683 18.3673 10.6706 18.3673H10.6715C12.5656 18.366 14.1952 17.2441 14.921 15.6346ZM9.04555 11.3443C9.52742 11.0254 10.0928 10.8561 10.6706 10.8577C12.2878 10.8594 13.5987 12.1562 13.6014 13.7575C13.6005 14.3337 13.4282 14.8965 13.1064 15.3744C12.7846 15.8523 12.3279 16.2237 11.7944 16.4411C10.6988 16.8922 9.43827 16.6442 8.59965 15.8144C8.18979 15.4107 7.91009 14.8936 7.79651 14.3296C7.68293 13.7656 7.74066 13.1806 7.9623 12.6497C8.1868 12.1173 8.56368 11.6631 9.04555 11.3443ZM10.3459 14.3137C10.1446 14.1989 10.021 13.987 10.021 13.7575C10.0213 13.6444 10.0516 13.5334 10.1086 13.4358C10.1657 13.3381 10.2475 13.2572 10.3459 13.2014C10.4447 13.145 10.5565 13.1153 10.6703 13.1153C10.7841 13.1153 10.8959 13.145 10.9947 13.2014C11.0924 13.2577 11.1736 13.3387 11.23 13.4363C11.2865 13.534 11.3162 13.6448 11.3162 13.7575C11.3162 13.8703 11.2865 13.9811 11.23 14.0787C11.1736 14.1763 11.0924 14.2574 10.9947 14.3137C10.7934 14.4284 10.5462 14.4284 10.3459 14.3137Z" fill="#00F7FF"/>
</svg>
