<svg width="30" height="30" viewBox="0 0 30 30" fill="none" xmlns="http://www.w3.org/2000/svg">
<g clip-path="url(#clip0_2221_7278)">
<path d="M16.6909 27H13.3075C11.4416 27 9.9242 25.44 9.9242 23.5217V22.0087C9.9242 20.7991 9.22638 18.9565 8.4313 18.0652C8.35517 17.9783 6.54085 15.9104 6.54085 12.8939C6.54085 8.09913 10.3353 4.19826 14.9992 4.19826C19.6632 4.19826 23.4576 8.09913 23.4576 12.8939C23.4576 15.9113 21.6433 17.9791 21.5671 18.0652C20.7712 18.9557 20.0742 20.7991 20.0742 22.0087V23.5217C20.0742 25.44 18.5568 27 16.6909 27ZM14.9992 5.93739C11.2682 5.93739 8.23253 9.05826 8.23253 12.8939C8.23253 15.2417 9.66368 16.8739 9.67891 16.8904C10.765 18.1078 11.6159 20.3565 11.6159 22.0096V23.5226C11.6159 24.4817 12.3746 25.2617 13.3075 25.2617H16.6909C17.6238 25.2617 18.3826 24.4817 18.3826 23.5226V22.0096C18.3826 20.3565 19.2335 18.1087 20.3195 16.8904C20.3322 16.8757 21.7659 15.2165 21.7659 12.8939C21.7659 9.05826 18.7302 5.93739 14.9992 5.93739ZM18.3826 15.7826C18.0282 15.7826 17.6983 15.5522 17.5807 15.1878L17.1671 13.9139L15.5981 15.5278C15.2673 15.8678 14.7328 15.8678 14.4021 15.5278L12.8322 13.9139L12.4194 15.1878C12.2714 15.6426 11.7935 15.8913 11.3494 15.7374C10.9062 15.5861 10.6668 15.0939 10.8149 14.6374L11.6607 12.0287C11.7064 11.8881 11.7863 11.7619 11.8927 11.6619C11.9991 11.562 12.1286 11.4916 12.2689 11.4574C12.5531 11.3878 12.8542 11.4757 13.0614 11.6887L14.9992 13.6835L16.9387 11.6896C17.1451 11.4765 17.4454 11.3896 17.7313 11.4583C17.8716 11.4923 18.0011 11.5626 18.1076 11.6626C18.214 11.7626 18.2938 11.8889 18.3394 12.0296L19.1853 14.6383C19.3333 15.0939 19.0939 15.587 18.6507 15.7383C18.561 15.7678 18.4705 15.7826 18.3826 15.7826ZM24.295 7.09565C24.0641 7.09565 23.834 6.99913 23.6674 6.8087C23.3544 6.45217 23.3815 5.90261 23.7283 5.58L24.5876 4.78348C24.9336 4.46174 25.4681 4.48956 25.7819 4.84696C26.0949 5.20348 26.0678 5.75304 25.721 6.07565L24.8617 6.8713C24.7001 7.02174 24.4971 7.09565 24.295 7.09565ZM5.70432 7.09565C5.49526 7.09591 5.29357 7.01626 5.13845 6.87217L4.27908 6.07478C3.93229 5.75304 3.90522 5.20348 4.21734 4.84609C4.52945 4.4887 5.06402 4.46087 5.41251 4.78261L6.27188 5.57913C6.61867 5.90087 6.64574 6.45043 6.33362 6.80783C6.25424 6.8985 6.15718 6.97099 6.04876 7.02058C5.94034 7.07017 5.82298 7.09575 5.70432 7.09565ZM14.9992 3.6087C14.5323 3.6087 14.1534 3.21913 14.1534 2.73913V1.86957C14.1534 1.38957 14.5323 1 14.9992 1C15.4661 1 15.8451 1.38957 15.8451 1.86957V2.73913C15.8451 3.21913 15.4661 3.6087 14.9992 3.6087ZM16.6909 23.6087H13.3075C12.8406 23.6087 12.4617 23.22 12.4617 22.7391C12.4617 22.2583 12.8406 21.8696 13.3075 21.8696H16.6909C17.1586 21.8696 17.5367 22.2583 17.5367 22.7391C17.5367 23.22 17.1586 23.6087 16.6909 23.6087Z" fill="#00F7FF"/>
</g>
<defs>
<clipPath id="clip0_2221_7278">
<rect width="30" height="30" fill="white"/>
</clipPath>
</defs>
</svg>