<svg width="20" height="20" viewBox="0 0 20 20" fill="none" xmlns="http://www.w3.org/2000/svg">
<path d="M17.2735 1.8184H2.72813C2.47707 1.8184 2.26347 1.9076 2.08507 2.08453C1.90773 2.2632 1.81867 2.4768 1.81867 2.72787V5.4552H18.1824V2.728C18.1824 2.47693 18.0932 2.26333 17.916 2.08467C17.7373 1.90773 17.5243 1.8184 17.2735 1.8184ZM18.1824 17.2732V7.2728H8.182V18.1821H17.2729C17.5237 18.1821 17.7375 18.0929 17.916 17.9157C18.0933 17.7375 18.1824 17.524 18.1824 17.2732ZM6.36413 18.1821V7.2728H1.8188V17.2732C1.8188 17.5244 1.90787 17.7388 2.08507 17.9159C2.26347 18.0944 2.47707 18.1827 2.72813 18.1827L6.36413 18.1821ZM2.7276 0H17.2729C18.0252 0 18.6685 0.2664 19.2013 0.798933C19.7339 1.33173 20 1.97427 20 2.72693V17.2727C20 18.0249 19.7339 18.668 19.2013 19.2008C18.6685 19.7336 18.0252 20 17.2729 20H2.7276C1.9748 20 1.332 19.7336 0.7992 19.2008C0.2664 18.668 0 18.0248 0 17.2727V2.72707C0 1.97427 0.2664 1.33173 0.7992 0.798933C1.332 0.2664 1.9748 0 2.7276 0Z" fill="#00F7FF"/>
</svg>
