<svg width="18" height="18" viewBox="0 0 18 18" fill="none" xmlns="http://www.w3.org/2000/svg">
<path fill-rule="evenodd" clip-rule="evenodd" d="M2.22543 11.7698C2.31698 11.8386 2.42844 11.8757 2.54297 11.8756C2.66559 11.8756 2.78441 11.8331 2.87913 11.7552C2.8895 11.7467 3.93524 10.8951 5.74412 9.83389C6.34764 9.47974 6.97762 9.45709 7.61608 9.76679C7.93965 9.92669 8.23195 10.1433 8.47913 10.4063C8.56059 10.5022 8.67381 10.5657 8.79815 10.5851C8.9225 10.6046 9.04969 10.5787 9.15653 10.5121L15.0107 6.91291L15.3808 7.49672L7.16333 12.9159L5.83223 10.8969C5.79397 10.8388 5.74465 10.7889 5.68709 10.7499C5.62952 10.711 5.56485 10.6837 5.49676 10.6697C5.42867 10.6558 5.35849 10.6553 5.29023 10.6685C5.22198 10.6816 5.15698 10.7081 5.09894 10.7464C5.04091 10.7846 4.99099 10.8339 4.95202 10.8915C4.91305 10.9491 4.8858 11.0137 4.87182 11.0818C4.85784 11.1499 4.85742 11.2201 4.87056 11.2884C4.88371 11.3566 4.91017 11.4216 4.94843 11.4796L5.70901 12.6328L5.08178 13.0224L4.45328 11.9347C4.3826 11.8142 4.2671 11.7265 4.132 11.6908C3.99689 11.655 3.85314 11.6742 3.73211 11.7441C3.61108 11.814 3.52261 11.9289 3.48599 12.0637C3.44938 12.1986 3.46759 12.3425 3.53667 12.464L4.43867 14.025C4.48513 14.1053 4.55191 14.1721 4.63232 14.2185C4.71272 14.2649 4.80393 14.2893 4.89676 14.2894C4.99549 14.2895 5.09228 14.262 5.17619 14.21L6.29202 13.5167L6.57145 13.9403C6.61965 14.0134 6.68524 14.0734 6.76235 14.115C6.83946 14.1565 6.92566 14.1782 7.01324 14.1782C7.11662 14.1784 7.21777 14.1481 7.3041 14.0912L10.2978 12.1175C10.3144 12.307 10.3598 12.4939 10.4334 12.6715C10.5754 13.0144 10.816 13.3075 11.1246 13.5137C11.1492 13.5302 11.1742 13.546 11.1994 13.5612C11.2512 13.9831 11.4423 14.3783 11.7459 14.682C12.1045 15.0407 12.5909 15.2426 13.0982 15.2431H16.9416V16.5482C16.9416 16.6885 16.9973 16.8231 17.0966 16.9224C17.1958 17.0216 17.3304 17.0774 17.4708 17.0774C17.6112 17.0774 17.7458 17.0216 17.845 16.9224C17.9443 16.8231 18 16.6885 18 16.5482V10.2553C18 10.1149 17.9443 9.98033 17.845 9.88108C17.7458 9.78183 17.6112 9.72607 17.4708 9.72607C17.3304 9.72607 17.1958 9.78183 17.0966 9.88108C16.9973 9.98033 16.9416 10.1149 16.9416 10.2553V11.4162H13.9653C13.912 11.2378 13.8322 11.0674 13.7277 10.9109C13.5563 10.6544 13.3249 10.4449 13.0547 10.2999L16.3976 8.09601C16.5134 8.01964 16.5946 7.90085 16.6237 7.76521C16.6528 7.62957 16.6275 7.48792 16.5532 7.37077L15.9116 6.359L16.2324 6.16174C16.2929 6.12453 16.3453 6.07554 16.3865 6.01766C16.4276 5.95979 16.4567 5.89422 16.472 5.82487C16.4873 5.75552 16.4885 5.6838 16.4755 5.61399C16.4624 5.54417 16.4355 5.47769 16.3963 5.4185L14.4822 2.53107C14.478 2.52451 14.4735 2.51816 14.4689 2.51181C14.2137 2.16134 13.8362 1.91956 13.4111 1.83443C12.9861 1.7493 12.5446 1.82704 12.1741 2.05223L12.1718 2.0535L0.251863 9.38554C0.178396 9.43075 0.117094 9.49323 0.0732942 9.56754C0.0294944 9.64186 0.00452476 9.72576 0.000559479 9.81193C-0.0034058 9.8981 0.0137536 9.98394 0.0505433 10.062C0.087333 10.14 0.142638 10.2078 0.211643 10.2596L2.22543 11.7698ZM12.985 11.9454L12.9851 11.933C12.9796 11.7236 12.894 11.5238 12.7455 11.3753C12.5921 11.2219 12.3841 11.1356 12.1672 11.1354C12.0054 11.1354 11.8472 11.1834 11.7126 11.2733C11.5781 11.3632 11.4732 11.491 11.4113 11.6405C11.3494 11.79 11.3332 11.9545 11.3647 12.1132C11.3963 12.2719 11.4742 12.4177 11.5887 12.5321C11.6698 12.6133 11.7667 12.6761 11.8728 12.717C11.8802 12.7192 11.8876 12.7216 11.895 12.7242C12.0179 12.7676 12.1494 12.7809 12.2785 12.7632C12.4076 12.7454 12.5306 12.697 12.6373 12.6221C12.7439 12.5472 12.8311 12.4478 12.8916 12.3324C12.9521 12.2169 12.9841 12.0887 12.985 11.9583V11.9454ZM12.3954 13.8163C12.6431 13.7855 12.8811 13.7059 13.0959 13.5832C13.2401 13.501 13.374 13.3993 13.4935 13.2798C13.6165 13.1568 13.7207 13.0184 13.8043 12.8693C13.8738 12.7453 13.9294 12.6132 13.9695 12.4753H16.9414V14.1851H13.0982C12.96 14.1851 12.8238 14.1515 12.7014 14.0873C12.579 14.023 12.474 13.9301 12.3954 13.8163ZM2.53767 10.6804L1.46886 9.87856L12.725 2.95635C12.8671 2.87111 13.0358 2.84125 13.1986 2.87249C13.3614 2.90374 13.507 2.99388 13.6075 3.1257L15.2117 5.54636L8.95162 9.39506C8.69739 9.17431 8.4169 8.98575 8.11651 8.83367C7.14168 8.34657 6.13595 8.37684 5.20812 8.92109C3.90539 9.6855 2.9928 10.3375 2.53767 10.6804ZM11.9717 12.2002C11.9042 12.1327 11.8663 12.0412 11.8663 11.9457C11.8663 11.8503 11.9042 11.7587 11.9717 11.6912C12.0392 11.6238 12.1308 11.5858 12.2262 11.5858C12.3216 11.5858 12.4132 11.6238 12.4807 11.6912C12.5482 11.7587 12.5861 11.8503 12.5861 11.9457C12.5861 12.0412 12.5482 12.1327 12.4807 12.2002C12.4132 12.2677 12.3216 12.3056 12.2262 12.3056C12.1308 12.3056 12.0392 12.2677 11.9717 12.2002Z" fill="#FFFFFF"/>
</svg>