<svg width="20" height="20" viewBox="0 0 20 20" fill="none" xmlns="http://www.w3.org/2000/svg">
<path d="M10.8333 11C11.9 10.9999 12.9261 11.4089 13.7002 12.1427C14.4743 12.8765 14.9376 13.8793 14.9944 14.9444L15 15.1667V16.8333C14.9999 17.0445 14.9197 17.2477 14.7756 17.402C14.6314 17.5563 14.4341 17.6501 14.2235 17.6645C14.0128 17.6789 13.8046 17.6128 13.6408 17.4795C13.477 17.3463 13.3699 17.1558 13.3411 16.9467L13.3333 16.8333V15.1667C13.3334 14.5332 13.093 13.9233 12.6607 13.4603C12.2284 12.9972 11.6364 12.7156 11.0044 12.6722L10.8333 12.6667H4.16667C3.53319 12.6666 2.92331 12.907 2.46027 13.3393C1.99724 13.7716 1.71558 14.3636 1.67222 14.9956L1.66667 15.1667V16.8333C1.6666 17.0445 1.5864 17.2477 1.44225 17.402C1.29811 17.5563 1.10078 17.6501 0.890133 17.6645C0.679487 17.6789 0.471231 17.6128 0.307446 17.4795C0.14366 17.3463 0.0365572 17.1558 0.00777786 16.9467L1.68601e-08 16.8333V15.1667C-9.58797e-05 14.1 0.408891 13.0739 1.14271 12.2998C1.87653 11.5257 2.8793 11.0624 3.94444 11.0056L4.16667 11H10.8333ZM16.8744 11.1344C17.7325 11.3558 18.4977 11.845 19.0588 12.531C19.6199 13.2169 19.9476 14.0639 19.9944 14.9489L20 15.1667V16.8333C19.9999 17.0445 19.9197 17.2477 19.7756 17.402C19.6314 17.5563 19.4341 17.6501 19.2235 17.6645C19.0128 17.6789 18.8046 17.6128 18.6408 17.4795C18.477 17.3463 18.3699 17.1558 18.3411 16.9467L18.3333 16.8333V15.1667C18.3327 14.613 18.1484 14.0752 17.8091 13.6376C17.4699 13.2 16.995 12.8874 16.4589 12.7489C16.2448 12.6938 16.0614 12.5559 15.949 12.3655C15.8365 12.1752 15.8043 11.948 15.8594 11.7339C15.9145 11.5198 16.0524 11.3364 16.2428 11.224C16.4331 11.1115 16.6604 11.0793 16.8744 11.1344V11.1344ZM7.5 1C8.0472 0.999959 8.58905 1.1077 9.09461 1.31708C9.60017 1.52645 10.0595 1.83336 10.4465 2.22028C10.8334 2.60719 11.1404 3.06654 11.3498 3.57208C11.5592 4.07762 11.667 4.61947 11.667 5.16667C11.667 5.71387 11.5592 6.25571 11.3498 6.76125C11.1404 7.2668 10.8334 7.72614 10.4465 8.11306C10.0595 8.49997 9.60017 8.80688 9.09461 9.01625C8.58905 9.22563 8.0472 9.33337 7.5 9.33333C6.39499 9.33325 5.33526 8.89423 4.55393 8.11283C3.77259 7.33144 3.33365 6.27168 3.33365 5.16667C3.33365 4.06165 3.77259 3.00189 4.55393 2.2205C5.33526 1.43911 6.39499 1.00008 7.5 1V1ZM13.54 1.13333C14.4369 1.36228 15.2321 1.8834 15.8 2.61445C16.3679 3.3455 16.6762 4.24485 16.6762 5.17056C16.6762 6.09626 16.3679 6.99561 15.8 7.72666C15.2321 8.45771 14.4369 8.97883 13.54 9.20778C13.3258 9.26259 13.0985 9.23005 12.9083 9.11732C12.718 9.00459 12.5804 8.8209 12.5256 8.60667C12.4707 8.39243 12.5033 8.1652 12.616 7.97495C12.7287 7.78471 12.9124 7.64703 13.1267 7.59222C13.6642 7.45439 14.1407 7.1416 14.4809 6.70315C14.8211 6.26471 15.0058 5.72552 15.0058 5.17056C15.0058 4.61559 14.8211 4.07641 14.4809 3.63796C14.1407 3.19951 13.6642 2.88672 13.1267 2.74889C13.0194 2.72295 12.9183 2.67596 12.8293 2.61064C12.7404 2.54533 12.6652 2.46298 12.6084 2.36839C12.5515 2.27381 12.5139 2.16886 12.4979 2.05965C12.4819 1.95043 12.4878 1.83913 12.5152 1.7322C12.5426 1.62527 12.5909 1.52485 12.6574 1.43676C12.7239 1.34867 12.8073 1.27467 12.9026 1.21905C12.998 1.16344 13.1034 1.12733 13.2128 1.1128C13.3222 1.09828 13.4334 1.10563 13.54 1.13444V1.13333ZM7.5 2.66667C6.83696 2.66667 6.20107 2.93006 5.73223 3.3989C5.26339 3.86774 5 4.50363 5 5.16667C5 5.82971 5.26339 6.46559 5.73223 6.93443C6.20107 7.40327 6.83696 7.66667 7.5 7.66667C8.16304 7.66667 8.79893 7.40327 9.26777 6.93443C9.73661 6.46559 10 5.82971 10 5.16667C10 4.50363 9.73661 3.86774 9.26777 3.3989C8.79893 2.93006 8.16304 2.66667 7.5 2.66667V2.66667Z" fill="#00F7FF"/>
</svg>
