<svg width="20" height="20" viewBox="0 0 20 20" fill="none" xmlns="http://www.w3.org/2000/svg">
<path d="M7.09111 5.4047C6.33272 4.70015 5.45862 4.05015 4.49274 3.47251C2.85173 2.49125 1.51132 2.05597 1.45492 2.03814C1.35191 2.00507 1.24324 1.99332 1.13554 2.00361C1.02784 2.01391 0.923362 2.04602 0.828472 2.098C0.733522 2.14991 0.650125 2.2206 0.583358 2.30577C0.51659 2.39094 0.467848 2.48881 0.440099 2.59342C0.424936 2.65063 0.0679529 4.01423 0.00836691 5.92566C-0.0267462 7.05087 0.0488002 8.13776 0.232346 9.15653C0.464838 10.4459 0.872629 11.6299 1.44428 12.6758C2.01593 13.7217 2.79241 14.7038 3.75244 15.5954C4.51083 16.2999 5.38494 16.9499 6.35081 17.5276C7.99182 18.5088 9.33224 18.9441 9.38863 18.962C9.46817 18.9875 9.55037 19 9.6323 19C9.76477 19 9.89671 18.967 10.0151 18.9021C10.11 18.8502 10.1934 18.7795 10.2602 18.6943C10.327 18.6091 10.3757 18.5113 10.4035 18.4067C10.4186 18.3495 10.7756 16.9859 10.8352 15.0744C10.8703 13.9492 10.7948 12.8623 10.6109 11.8436C10.3785 10.5542 9.97066 9.37019 9.39901 8.32427C8.82735 7.27836 8.05087 6.2963 7.09111 5.4047ZM9.24126 14.984C9.21679 15.8399 9.12502 16.5806 9.0375 17.1136C8.54193 16.8997 7.86892 16.5772 7.13501 16.136C5.78927 15.3267 3.95248 13.9362 2.84455 11.9093C1.73636 9.88237 1.55734 7.5854 1.60203 6.01533C1.6265 5.15939 1.71827 4.41839 1.80552 3.88572C2.3011 4.09964 2.9741 4.42211 3.70802 4.86325C5.05375 5.67263 6.89054 7.06311 7.99847 9.09002C9.10693 11.1172 9.28622 13.4142 9.24126 14.984ZM15.8931 13.4615C15.0357 14.3925 13.8914 15.1455 12.4919 15.7002C12.0822 15.8625 11.8817 16.3265 12.0439 16.7363C12.1682 17.0497 12.4685 17.2408 12.7861 17.2408C12.884 17.2408 12.9835 17.2227 13.0798 17.1843C14.704 16.5407 16.0455 15.6521 17.067 14.5434C17.7623 13.7883 18.3494 12.8842 18.8117 11.8558C19.1762 11.0451 19.4645 10.1554 19.6685 9.21134C20.0152 7.60802 20.0005 6.39581 19.9997 6.34499C19.998 6.2368 19.9743 6.13009 19.9301 6.03134C19.8859 5.93259 19.822 5.84387 19.7425 5.77055C19.6629 5.69724 19.5693 5.64088 19.4673 5.60488C19.3652 5.56888 19.257 5.554 19.149 5.56115C19.0982 5.56461 17.8892 5.64895 16.32 6.12548C15.3962 6.40618 14.533 6.76618 13.7552 7.19561C12.7683 7.74052 11.9154 8.39957 11.2198 9.15467C10.9211 9.47901 10.9419 9.98374 11.2659 10.2825C11.5901 10.5813 12.0947 10.5606 12.3935 10.2365C13.7052 8.81251 15.484 8.05208 16.7451 7.66495C17.3633 7.47525 17.9222 7.35365 18.355 7.27703C18.3032 7.82723 18.218 8.37376 18.0999 8.91361C17.8174 10.2022 17.205 12.0375 15.8931 13.4615Z" fill="white"/>
</svg>
