<svg width="20" height="20" viewBox="0 0 20 20" fill="none" xmlns="http://www.w3.org/2000/svg">
<path d="M19.8182 8.74063L17.9378 10.6264V13.0957C18.3158 13.1571 19.7608 13.463 19.7608 13.8276V14.7945C19.7608 15.2045 18.3932 15.5891 17.9819 15.6492L10.7208 17.002C10.224 17.0621 9.72178 17.0621 9.225 17.002L2.01329 15.6492C1.59929 15.5891 0.263784 15.2045 0.263784 14.7945V13.8276C0.263784 13.463 1.73284 13.1598 2.03199 13.0957V10.625L0.17297 8.73662C0.108035 8.6692 0.0592559 8.58792 0.030309 8.4989C0.00136202 8.40988 -0.0069967 8.31545 0.005863 8.22273C0.0187227 8.13002 0.0524652 8.04143 0.104546 7.96365C0.156627 7.88587 0.225688 7.82093 0.30652 7.77372L9.3452 3.17025C9.53583 3.05876 9.7527 3 9.97355 3C10.1944 3 10.4113 3.05876 10.6019 3.17025L19.702 7.77907C19.7822 7.82709 19.8503 7.89282 19.9012 7.97122C19.9521 8.04961 19.9844 8.13861 19.9956 8.2314C20.0068 8.32418 19.9966 8.4183 19.9659 8.50656C19.9351 8.59482 19.8846 8.67489 19.8182 8.74063ZM12.3394 6.30868H11.8519C10.9732 6.30868 10.0503 5.17751 9.97422 5.05865C9.42311 5.69282 8.68138 6.13139 7.86012 6.30868H7.34996V8.19841C7.36233 8.35652 7.404 8.51095 7.47282 8.65382C7.56683 8.86335 7.694 9.05636 7.84943 9.22542C8.04761 9.44765 8.26675 9.65025 8.50383 9.8304C8.96241 10.1548 9.45777 10.4237 9.97956 10.6317C10.4191 10.3998 10.8385 10.1318 11.2336 9.8304C11.469 9.65018 11.6864 9.44757 11.8827 9.22542C12.0325 9.05553 12.1538 8.8625 12.2419 8.65382C12.3029 8.50954 12.336 8.35501 12.3394 8.19841V6.30868ZM16.1896 11.7842H3.87765V13.5017H16.1896V11.7842Z" fill="#00F7FF"/>
</svg>
