<svg width="20" height="20" viewBox="0 0 20 20" fill="none" xmlns="http://www.w3.org/2000/svg">
<g clip-path="url(#clip0_2100_11550)">
<g clip-path="url(#clip1_2100_11550)">
<path d="M11.6337 14.3327C11.5464 14.3329 11.4625 14.2987 11.4001 14.2376C11.3376 14.1765 11.3017 14.0934 11.3001 14.006L11.2904 13.3204C11.2908 13.277 11.2998 13.2341 11.3168 13.1942C11.3338 13.1544 11.3585 13.1182 11.3895 13.0879C11.4205 13.0575 11.4572 13.0336 11.4974 13.0174C11.5377 13.0013 11.5807 12.9932 11.6241 12.9937H19.6697C19.8511 12.9937 19.9987 13.139 20.0011 13.3204V14.0064C20.0003 14.0936 19.9651 14.177 19.9029 14.2382C19.8408 14.2995 19.7569 14.3336 19.6697 14.333C19.5487 14.331 16.8701 14.331 11.6337 14.333V14.3327ZM11.6177 17.3377C11.5304 17.3379 11.4465 17.3037 11.3841 17.2426C11.3216 17.1815 11.2857 17.0983 11.2841 17.011L11.2907 16.326C11.2912 16.2827 11.3001 16.2399 11.3171 16.2C11.3341 16.1601 11.3588 16.124 11.3897 16.0936C11.4207 16.0633 11.4573 16.0394 11.4975 16.0232C11.5377 16.007 11.5807 15.9989 11.6241 15.9994H19.6697C19.8511 15.9994 19.9987 16.1447 20.0011 16.326L19.9944 17.0087C19.9933 17.096 19.9581 17.1793 19.8962 17.2409C19.8343 17.3024 19.7507 17.3372 19.6634 17.3377H11.6177ZM11.6244 20C11.537 20.0003 11.453 19.9662 11.3905 19.9051C11.328 19.844 11.2921 19.7607 11.2904 19.6733V18.9977C11.2908 18.9543 11.2998 18.9115 11.3168 18.8716C11.3338 18.8317 11.3585 18.7955 11.3895 18.7652C11.4205 18.7348 11.4572 18.7109 11.4974 18.6948C11.5377 18.6786 11.5807 18.6705 11.6241 18.671H19.6697C19.8511 18.671 19.9987 18.8163 20.0011 18.9977V19.671C19.9987 19.8523 19.8511 19.9977 19.6697 20H11.6244ZM9.83941 14.1814C7.49609 14.1814 5.58809 12.3047 5.58809 9.9977C5.58809 7.69071 7.49375 5.81405 9.83941 5.81405C12.1827 5.81405 14.0907 7.69071 14.0907 9.9977C14.0907 10.486 14.0061 10.97 13.8371 11.427H12.2021C12.4732 10.9995 12.6174 10.5039 12.6181 9.9977C12.6181 8.49337 11.3704 7.26738 9.83941 7.26738C8.31108 7.26738 7.06342 8.49337 7.06342 9.9977C7.06342 11.5044 8.30875 12.7304 9.83941 12.7304V14.1814ZM10.0011 19V19.6733C9.99875 19.8647 9.85808 19.9977 9.66475 19.9977H7.99908C7.33909 20.005 7.03342 19.3243 6.99709 18.6663L6.65709 17.333C6.05076 17.0793 5.47709 16.7857 4.94709 16.3963L3.55943 16.9553C2.96943 17.2553 2.24877 17.0473 1.9101 16.4787L0.168774 13.5217C0.00832813 13.249 -0.03923 12.9244 0.0362432 12.6172C0.111716 12.3099 0.304247 12.0443 0.572773 11.877L1.76277 10.9704C1.67571 10.326 1.67571 9.67277 1.76277 9.02837L0.575107 8.12137C0.307761 7.95488 0.115796 7.69078 0.0399365 7.3851C-0.0359231 7.07942 0.0102908 6.75622 0.168774 6.48405L1.90777 3.52172C2.07054 3.24818 2.33106 3.0466 2.6367 2.95769C2.94234 2.86878 3.27033 2.89917 3.55443 3.04272L4.94509 3.60139C5.47308 3.20994 6.0473 2.88505 6.65476 2.63406L6.85809 1.16873C6.87425 0.851231 7.01259 0.552288 7.24414 0.334464C7.4757 0.116639 7.78253 -0.00318667 8.10042 6.44683e-05H11.5754C12.2431 6.44683e-05 12.7871 0.510396 12.8187 1.16573L13.0217 2.63372C13.6292 2.88619 14.204 3.21098 14.7337 3.60105L16.1244 3.04506C16.4083 2.90216 16.7358 2.87183 17.0412 2.96017C17.3465 3.0485 17.6072 3.24896 17.7711 3.52139L19.5051 6.48138C19.6658 6.75376 19.7138 7.07816 19.6387 7.3854C19.5637 7.69265 19.3716 7.95842 19.1034 8.12604C18.7446 8.43094 18.3764 8.72442 17.9991 9.00604C17.9991 9.43504 18.0071 10.2127 18.0227 11.34H16.3314L16.3127 8.41337L18.1267 7.03271L16.5767 4.38705L14.4774 5.27471L14.1341 4.98672C13.5292 4.48494 12.8396 4.09516 12.0977 3.83572L11.6794 3.68572L11.3701 1.45139H8.30608L7.99642 3.68572L7.57809 3.83572C6.83609 4.09748 6.14599 4.48789 5.53943 4.98905L5.19843 5.27238L3.08243 4.42105L1.54944 7.02771L3.3631 8.40871L3.2831 8.8417C3.2111 9.22197 3.17395 9.60802 3.1721 9.99503C3.17443 10.3824 3.21077 10.7717 3.28077 11.1514L3.35843 11.584L1.5471 12.965L3.1021 15.6107L5.01009 14.677L7.99875 16.3354L8.33442 18.6663C9.19275 18.6647 9.63641 18.6647 9.66475 18.6663C9.70741 18.67 10.0011 18.832 10.0011 19Z" fill="#00F7FF"/>
</g>
</g>
<defs>
<clipPath id="clip0_2100_11550">
<rect width="20" height="20" fill="white"/>
</clipPath>
<clipPath id="clip1_2100_11550">
<rect width="20" height="20" fill="white"/>
</clipPath>
</defs>
</svg>
