<svg width="20" height="20" viewBox="0 0 20 20" fill="none" xmlns="http://www.w3.org/2000/svg">
<path d="M14.9904 6.24219C14.9904 6.24219 11.259 11.3045 11.259 13.3756C11.259 15.4467 12.9379 17.4967 15.009 17.4967C17.0801 17.4967 18.759 15.4662 18.759 13.3951C18.759 11.324 14.9904 6.24219 14.9904 6.24219ZM15.009 16.2297C13.6283 16.2297 12.509 14.8209 12.509 13.3975C12.509 11.974 14.9967 8.49531 14.9967 8.49531C14.9967 8.49531 17.509 11.9877 17.509 13.4109C17.509 14.8342 16.3896 16.2297 15.009 16.2297ZM7.50195 10.4297V11.8867C8.2543 12.4574 8.74023 13.3607 8.74023 14.3779C8.74023 16.1039 7.34121 17.5029 5.61523 17.5029C3.88926 17.5029 2.49023 16.1039 2.49023 14.3779C2.49023 13.3504 2.98633 12.4387 3.75195 11.8689V10.4186C2.26758 11.1184 1.24023 12.6279 1.24023 14.3777C1.24023 16.7939 3.19902 18.7527 5.61523 18.7527C8.03144 18.7527 9.99023 16.7939 9.99023 14.3777C9.99023 12.6375 8.97363 11.1344 7.50195 10.4297Z" fill="#00F7FF"/>
<path d="M5.60938 1.24707C3.89062 1.24707 2.48438 2.65332 2.48438 4.37207V13.7471H2.54531C2.69961 12.976 3.1377 12.3074 3.74609 11.8549V4.36973C3.74609 3.33848 4.58984 2.49473 5.62109 2.49473C6.65234 2.49473 7.49609 3.33848 7.49609 4.36973V11.8727C8.09219 12.3248 8.52109 12.9859 8.67344 13.7471H8.73438V4.37207C8.73438 2.65332 7.32812 1.24707 5.60938 1.24707V1.24707Z" fill="#00F7FF"/>
<path d="M5.61914 15.2881C5.27539 15.2881 4.99414 15.0068 4.99414 14.6631V8.12207C4.99414 7.77832 5.27539 7.49707 5.61914 7.49707C5.96289 7.49707 6.24414 7.77832 6.24414 8.12207V14.6631C6.24414 15.0068 5.96289 15.2881 5.61914 15.2881Z" fill="#00F7FF"/>
<path d="M4.36914 14.5859C4.36914 14.9175 4.50084 15.2354 4.73526 15.4698C4.96968 15.7042 5.28762 15.8359 5.61914 15.8359C5.95066 15.8359 6.2686 15.7042 6.50302 15.4698C6.73744 15.2354 6.86914 14.9175 6.86914 14.5859C6.86914 14.2544 6.73744 13.9365 6.50302 13.7021C6.2686 13.4676 5.95066 13.3359 5.61914 13.3359C5.28762 13.3359 4.96968 13.4676 4.73526 13.7021C4.50084 13.9365 4.36914 14.2544 4.36914 14.5859V14.5859Z" fill="#00F7FF"/>
<path d="M14.7984 14.9533C14.3252 14.9533 13.9396 14.7891 13.7979 14.7193L14.3486 13.5973C14.492 13.6678 14.7998 13.7594 15.0441 13.6566C15.2295 13.5787 15.375 13.3826 15.4766 13.0742L16.6639 13.465C16.3902 14.2961 15.8957 14.6545 15.5289 14.8088C15.2766 14.9148 15.0273 14.9533 14.7984 14.9533V14.9533Z" fill="#00F7FF"/>
<path d="M15.4453 13.2695C15.4453 13.4353 15.5112 13.5943 15.6284 13.7115C15.7456 13.8287 15.9046 13.8945 16.0703 13.8945C16.2361 13.8945 16.395 13.8287 16.5123 13.7115C16.6295 13.5943 16.6953 13.4353 16.6953 13.2695C16.6953 13.1038 16.6295 12.9448 16.5123 12.8276C16.395 12.7104 16.2361 12.6445 16.0703 12.6445C15.9046 12.6445 15.7456 12.7104 15.6284 12.8276C15.5112 12.9448 15.4453 13.1038 15.4453 13.2695Z" fill="#00F7FF"/>
<path d="M13.4482 14.1582C13.4482 14.324 13.5141 14.4829 13.6313 14.6001C13.7485 14.7174 13.9075 14.7832 14.0732 14.7832C14.239 14.7832 14.398 14.7174 14.5152 14.6001C14.6324 14.4829 14.6982 14.324 14.6982 14.1582C14.6982 13.9924 14.6324 13.8335 14.5152 13.7163C14.398 13.5991 14.239 13.5332 14.0732 13.5332C13.9075 13.5332 13.7485 13.5991 13.6313 13.7163C13.5141 13.8335 13.4482 13.9924 13.4482 14.1582Z" fill="#00F7FF"/>
</svg>
