<svg width="18" height="18" viewBox="0 0 18 18" fill="none" xmlns="http://www.w3.org/2000/svg">
<path d="M13 3.00009H15.6667C16.0203 3.00009 16.3594 3.14056 16.6095 3.39061C16.8595 3.64066 17 3.97979 17 4.33341V15.6667C17 16.0203 16.8595 16.3594 16.6095 16.6095C16.3594 16.8595 16.0203 17 15.6667 17H2.33333C1.97971 17 1.64057 16.8595 1.39052 16.6095C1.14048 16.3594 1 16.0203 1 15.6667V4.33341C1 3.97979 1.14048 3.64066 1.39052 3.39061C1.64057 3.14056 1.97971 3.00009 2.33333 3.00009H5V1.66676C4.99999 1.57921 5.01722 1.49251 5.05072 1.41161C5.08421 1.33072 5.13332 1.25721 5.19523 1.1953C5.25713 1.13338 5.33063 1.08427 5.41152 1.05076C5.49241 1.01725 5.57911 1 5.66667 1C5.75422 1 5.84092 1.01725 5.92181 1.05076C6.0027 1.08427 6.0762 1.13338 6.13811 1.1953C6.20001 1.25721 6.24912 1.33072 6.28262 1.41161C6.31611 1.49251 6.33335 1.57921 6.33333 1.66676V3.00009H11.6667V1.66676C11.6667 1.48997 11.7369 1.32043 11.862 1.19543C11.987 1.07043 12.1565 1.0002 12.3333 1.0002C12.5101 1.0002 12.6797 1.07043 12.8047 1.19543C12.9297 1.32043 13 1.48997 13 1.66676V3.00009ZM13 4.33341V5.66674C13 5.84353 12.9297 6.01307 12.8047 6.13807C12.6797 6.26308 12.5101 6.3333 12.3333 6.3333C12.1565 6.3333 11.987 6.26308 11.862 6.13807C11.7369 6.01307 11.6667 5.84353 11.6667 5.66674V4.33341H6.33333V5.66674C6.33335 5.75429 6.31611 5.841 6.28262 5.92189C6.24912 6.00279 6.20001 6.07629 6.13811 6.13821C6.0762 6.20012 6.0027 6.24924 5.92181 6.28275C5.84092 6.31626 5.75422 6.3335 5.66667 6.3335C5.57911 6.3335 5.49241 6.31626 5.41152 6.28275C5.33063 6.24924 5.25713 6.20012 5.19523 6.13821C5.13332 6.07629 5.08421 6.00279 5.05072 5.92189C5.01722 5.841 4.99999 5.75429 5 5.66674V4.33341H2.33333V15.6667H15.6667V4.33341H13ZM2.33333 9.00005H15.6667V10.3334H2.33333V9.00005Z" fill="white"/>
</svg>
