<svg width="18" height="18" viewBox="0 0 18 18" fill="none" xmlns="http://www.w3.org/2000/svg">
<path d="M17.7234 2.50042L15.6534 0.433637C15.4746 0.26549 15.2383 0.171875 14.9929 0.171875C14.7474 0.171875 14.5112 0.26549 14.3323 0.433637L12.2655 2.50364C12.1786 2.59025 12.1095 2.69318 12.0625 2.80653C12.0154 2.91989 11.9911 3.04143 11.9911 3.16417C11.9911 3.28692 12.0154 3.40846 12.0625 3.52181C12.1095 3.63516 12.1786 3.7381 12.2655 3.82471C12.3522 3.91169 12.4551 3.98071 12.5684 4.0278C12.6818 4.0749 12.8033 4.09914 12.9261 4.09914C13.0488 4.09914 13.1704 4.0749 13.2837 4.0278C13.3971 3.98071 13.5 3.91169 13.5866 3.82471L14.0913 3.32007V13.6058C14.1022 13.8834 14.057 14.1604 13.9583 14.4201C13.8596 14.6799 13.7095 14.917 13.517 15.1173C13.3244 15.3176 13.0934 15.477 12.8378 15.5858C12.5821 15.6947 12.3071 15.7508 12.0293 15.7508C11.7514 15.7508 11.4765 15.6947 11.2208 15.5858C10.9652 15.477 10.7342 15.3176 10.5416 15.1173C10.3491 14.917 10.1989 14.6799 10.1003 14.4201C10.0016 14.1604 9.95637 13.8834 9.96733 13.6058V4.66364C9.93803 3.63756 9.50983 2.66333 8.7737 1.94792C8.03756 1.23251 7.05151 0.832289 6.02501 0.832289C4.99851 0.832289 4.01245 1.23251 3.27632 1.94792C2.54019 2.66333 2.11199 3.63756 2.08269 4.66364V14.6569L1.60697 14.1651C1.43136 13.9886 1.19284 13.8891 0.94389 13.8885C0.694935 13.8879 0.455938 13.9862 0.279474 14.1619C0.10301 14.3375 0.00353524 14.576 0.00293244 14.8249C0.00232964 15.0739 0.100648 15.3129 0.27626 15.4894L2.34626 17.5561C2.5216 17.731 2.75914 17.8292 3.0068 17.8292C3.25445 17.8292 3.49199 17.731 3.66733 17.5561L5.73412 15.4861C5.89481 15.3081 5.981 15.0752 5.97488 14.8355C5.96876 14.5957 5.8708 14.3675 5.70123 14.198C5.53166 14.0284 5.30344 13.9304 5.0637 13.9243C4.82397 13.9182 4.59105 14.0044 4.41305 14.1651L3.95662 14.6247V4.66042C3.97772 4.12428 4.20555 3.61712 4.59235 3.24525C4.97915 2.87338 5.49488 2.66567 6.03144 2.66567C6.568 2.66567 7.08373 2.87338 7.47053 3.24525C7.85732 3.61712 8.08515 4.12428 8.10626 4.66042V13.5929C8.13551 14.6156 8.56234 15.5866 9.29606 16.2997C10.0298 17.0127 11.0126 17.4116 12.0357 17.4116C13.0588 17.4116 14.0417 17.0127 14.7754 16.2997C15.5091 15.5866 15.9359 14.6156 15.9652 13.5929V3.37792L16.3927 3.82149C16.5707 3.98219 16.8036 4.06838 17.0433 4.06226C17.2831 4.05614 17.5113 3.95818 17.6809 3.78861C17.8504 3.61904 17.9484 3.39081 17.9545 3.15108C17.9606 2.91135 17.8745 2.67843 17.7138 2.50042H17.7234Z" fill="#FFFFFF"/>
</svg>