<svg width="20" height="20" viewBox="0 0 20 20" fill="none" xmlns="http://www.w3.org/2000/svg">
<g clip-path="url(#clip0_2332_7454)">
<path d="M18.1364 7.41935C17.7727 4.39355 15.1818 2.04516 12.0455 2.04516C10.0909 2.04516 8.31818 2.94839 7.22727 4.39355H7.09091C6.68182 4.07742 6.27273 3.80645 5.77273 3.62581C5.5 3.53548 5.18182 3.44516 4.86364 3.4C4.95455 3.26452 5 3.08387 5 2.90323C5 2.8129 5 2.72258 4.95455 2.63226C4.81818 2.27097 4.5 2 4.09091 2C3.63636 2 3.27273 2.31613 3.18182 2.72258V2.90323C3.18182 3.12903 3.27273 3.30968 3.36364 3.44516C3.04545 3.53548 2.77273 3.62581 2.5 3.76129C1.04545 4.43871 2.13068e-08 5.92903 0 7.64516C-2.13068e-08 9.36129 1 10.8065 2.45455 11.529C3.09091 14.1032 5.40909 16 8.18182 16C9.81818 16 11.2727 15.3677 12.3182 14.329C13.1364 15.0968 14.2273 15.5484 15.4545 15.5484C17.9545 15.5484 20 13.5161 20 11.0323C20 9.5871 19.2727 8.27742 18.1364 7.41935ZM15.4545 14.6903C14.5 14.6903 13.5909 14.329 12.9545 13.6968L12.3182 13.1097L11.6818 13.7419C10.7727 14.6452 9.54545 15.1871 8.18182 15.1871C5.81818 15.1871 3.86364 13.5613 3.31818 11.3935L3.22727 10.9871L2.81818 10.8065C1.68182 10.2645 0.909091 9.09032 0.909091 7.73548C0.909091 6.10968 2.04545 4.75484 3.59091 4.43871L4.18182 4.30323L4.77273 4.39355C5.45455 4.48387 6.04545 4.75484 6.54545 5.16129L6.86364 5.43226L7.27273 5.34194H7.36364L7.72727 5.29677L7.95455 5.02581C8.90909 3.71613 10.3636 2.94839 12.0455 2.94839C14.7273 2.94839 16.9545 4.93548 17.2273 7.55484L17.2727 7.96129L17.5909 8.1871C18.5 8.86452 19.0909 9.90323 19.0909 11.1226C19.0909 13.0645 17.4545 14.6903 15.4545 14.6903Z" fill="#00F7FF"/>
<path d="M17 2C17 2.13131 17.0258 2.26135 17.0761 2.38267C17.1263 2.504 17.2 2.61424 17.2928 2.7071C17.3857 2.79996 17.4959 2.87362 17.6173 2.92388C17.7386 2.97413 17.8687 3 18 3C18.1313 3 18.2614 2.97413 18.3827 2.92388C18.5041 2.87362 18.6143 2.79996 18.7072 2.7071C18.8 2.61424 18.8737 2.504 18.9239 2.38267C18.9742 2.26135 19 2.13131 19 2C19 1.86869 18.9742 1.73865 18.9239 1.61733C18.8737 1.496 18.8 1.38576 18.7072 1.2929C18.6143 1.20004 18.5041 1.12638 18.3827 1.07612C18.2614 1.02587 18.1313 1 18 1C17.8687 1 17.7386 1.02587 17.6173 1.07612C17.4959 1.12638 17.3857 1.20004 17.2928 1.2929C17.2 1.38576 17.1263 1.496 17.0761 1.61733C17.0258 1.73865 17 1.86869 17 2V2Z" fill="#00F7FF"/>
<path d="M11 19C11 19.2652 11.1054 19.5196 11.2929 19.7071C11.4804 19.8946 11.7348 20 12 20C12.2652 20 12.5196 19.8946 12.7071 19.7071C12.8946 19.5196 13 19.2652 13 19C13 18.7348 12.8946 18.4804 12.7071 18.2929C12.5196 18.1054 12.2652 18 12 18C11.7348 18 11.4804 18.1054 11.2929 18.2929C11.1054 18.4804 11 18.7348 11 19V19Z" fill="#00F7FF"/>
</g>
<path d="M7.305 7.0018L5.541 11.9998H4.757L3 7.0018H3.777L4.848 10.1378C4.90867 10.3058 4.967 10.4901 5.023 10.6908C5.079 10.8915 5.121 11.0735 5.149 11.2368C5.177 11.0735 5.219 10.8915 5.275 10.6908C5.331 10.4901 5.38933 10.3035 5.45 10.1308L6.521 7.0018H7.305Z" fill="#00F7FF"/>
<path d="M12.3133 9.4938C12.3133 10.0118 12.2269 10.4645 12.0543 10.8518C11.8816 11.2345 11.6226 11.5331 11.2773 11.7478C10.9319 11.9625 10.5026 12.0698 9.98928 12.0698C9.46195 12.0698 9.02561 11.9625 8.68028 11.7478C8.33495 11.5331 8.07828 11.2321 7.91028 10.8448C7.74228 10.4575 7.65828 10.0048 7.65828 9.4868C7.65828 8.97347 7.74228 8.52547 7.91028 8.1428C8.07828 7.75547 8.33495 7.4568 8.68028 7.2468C9.02561 7.03214 9.46428 6.9248 9.99628 6.9248C10.5096 6.9248 10.9366 7.03214 11.2773 7.2468C11.6226 7.4568 11.8816 7.75547 12.0543 8.1428C12.2269 8.52547 12.3133 8.9758 12.3133 9.4938ZM8.45628 9.4938C8.45628 10.0911 8.57995 10.5625 8.82728 10.9078C9.07461 11.2531 9.46195 11.4258 9.98928 11.4258C10.5213 11.4258 10.9086 11.2531 11.1513 10.9078C11.3939 10.5625 11.5153 10.0911 11.5153 9.4938C11.5153 8.89647 11.3939 8.42747 11.1513 8.0868C10.9086 7.74614 10.5236 7.57581 9.99628 7.57581C9.46428 7.57581 9.07461 7.74614 8.82728 8.0868C8.57995 8.42747 8.45628 8.89647 8.45628 9.4938Z" fill="#00F7FF"/>
<path d="M15.5344 7.58281C15.0397 7.58281 14.65 7.75547 14.3654 8.1008C14.0854 8.44147 13.9454 8.91047 13.9454 9.50781C13.9454 10.1005 14.076 10.5671 14.3374 10.9078C14.5987 11.2485 14.9954 11.4188 15.5274 11.4188C15.742 11.4188 15.9474 11.4001 16.1434 11.3628C16.344 11.3208 16.547 11.2671 16.7524 11.2018V11.8528C16.5564 11.9275 16.3557 11.9811 16.1504 12.0138C15.945 12.0511 15.707 12.0698 15.4364 12.0698C14.923 12.0698 14.496 11.9648 14.1554 11.7548C13.8194 11.5401 13.5674 11.2415 13.3994 10.8588C13.236 10.4715 13.1544 10.0188 13.1544 9.5008C13.1544 8.9968 13.2454 8.55347 13.4274 8.1708C13.614 7.78347 13.8847 7.48014 14.2394 7.2608C14.594 7.04147 15.028 6.9318 15.5414 6.9318C15.7934 6.9318 16.0384 6.9598 16.2764 7.0158C16.519 7.06714 16.7407 7.1418 16.9414 7.2398L16.6614 7.8698C16.498 7.79514 16.323 7.7298 16.1364 7.6738C15.9497 7.61314 15.749 7.58281 15.5344 7.58281Z" fill="#00F7FF"/>
<defs>
<clipPath id="clip0_2332_7454">
<rect width="20" height="20" fill="white"/>
</clipPath>
</defs>
</svg>
