<svg width="18" height="18" viewBox="0 0 18 18" fill="none" xmlns="http://www.w3.org/2000/svg">
<g clip-path="url(#clip0_2239_7184)">
<g clip-path="url(#clip1_2239_7184)">
<path d="M9.00046 15.333C6.03666 15.333 3.63379 12.911 3.63379 9.92434C3.63379 7.93168 5.42252 5.06821 9.00046 1.33301C12.5784 5.06868 14.3671 7.93214 14.3671 9.92434C14.3671 12.911 11.9643 15.333 9.00046 15.333ZM5.06739 10.6719C5.24465 11.4146 5.60362 12.1016 6.11206 12.6712C6.6205 13.2408 7.26248 13.6752 7.98032 13.9353C8.03905 13.9563 8.10134 13.9655 8.16362 13.9622C8.22589 13.959 8.28691 13.9435 8.34317 13.9166C8.39943 13.8898 8.44982 13.852 8.49142 13.8055C8.53302 13.7591 8.56503 13.7049 8.58559 13.646C8.62795 13.527 8.62155 13.3962 8.56778 13.2819C8.51402 13.1676 8.41725 13.0793 8.29859 13.0361C7.72945 12.8296 7.22047 12.4852 6.81729 12.0335C6.41412 11.5819 6.12937 11.0372 5.98859 10.4484C5.97388 10.3879 5.9474 10.3309 5.91067 10.2807C5.87393 10.2304 5.82766 10.1879 5.77449 10.1555C5.72132 10.1231 5.66229 10.1016 5.60078 10.092C5.53927 10.0825 5.47648 10.0851 5.41599 10.0998C5.3555 10.1145 5.2985 10.141 5.24825 10.1777C5.198 10.2145 5.15547 10.2607 5.1231 10.3139C5.09073 10.3671 5.06915 10.4261 5.05959 10.4876C5.05003 10.5491 5.05268 10.6119 5.06739 10.6724V10.6719Z" fill="#00F7FF"/>
</g>
</g>
<defs>
<clipPath id="clip0_2239_7184">
<rect width="14" height="14" fill="white" transform="translate(2 1.33301)"/>
</clipPath>
<clipPath id="clip1_2239_7184">
<rect width="14" height="14" fill="white" transform="translate(2 1.33301)"/>
</clipPath>
</defs>
</svg>