<svg width="20" height="20" viewBox="0 0 20 20" fill="none" xmlns="http://www.w3.org/2000/svg">
<path fill-rule="evenodd" clip-rule="evenodd" d="M6.46446 13.5485C7.40883 14.4937 8.66445 15.0143 9.99999 15.0143C11.3356 15.0143 12.5911 14.4937 13.5355 13.5485C14.4799 12.6032 15 11.3464 15 10.0095C15 8.67271 14.4799 7.41591 13.5355 6.47062C12.5912 5.52535 11.3356 5.00476 9.99999 5.00476C8.66445 5.00476 7.40883 5.52535 6.46446 6.47062C5.52009 7.41589 5 8.67271 5 10.0095C5 11.3464 5.52007 12.6032 6.46446 13.5485ZM6.37158 10.0096C6.37158 8.00695 7.9993 6.37767 10 6.37767C12.0008 6.37767 13.6285 8.00695 13.6285 10.0096C13.6285 12.0123 12.0008 13.6415 10 13.6415C7.9993 13.6415 6.37158 12.0123 6.37158 10.0096Z" fill="#FFF"/>
<path fill-rule="evenodd" clip-rule="evenodd" d="M10.6849 2.85773C10.6849 3.23351 10.3782 3.53816 10 3.53816V3.53818C9.62178 3.53818 9.31516 3.23353 9.31516 2.85773V0.680454C9.31516 0.304675 9.6218 0 10 0C10.3782 0 10.6849 0.304675 10.6849 0.680454V2.85773ZM5.35959 14.3887C5.18432 14.3887 5.00906 14.4551 4.87535 14.588L3.32581 16.1275C3.05834 16.3933 3.05834 16.8241 3.32581 17.0898C3.59324 17.3556 4.02689 17.3556 4.29431 17.0898L5.84383 15.5503C6.1113 15.2845 6.1113 14.8537 5.84383 14.588C5.71014 14.4551 5.53486 14.3887 5.35959 14.3887ZM15.4341 14.3887C15.6094 14.3887 15.7846 14.4551 15.9183 14.588V14.588L17.4679 16.1276C17.7353 16.3933 17.7353 16.8241 17.4679 17.0898C17.2004 17.3556 16.7668 17.3556 16.4993 17.0898L14.9498 15.5503C14.6824 15.2845 14.6824 14.8537 14.9498 14.588C15.0835 14.4551 15.2588 14.3887 15.4341 14.3887ZM9.42374 17.1423C9.42374 16.7665 9.73039 16.4618 10.1086 16.4618V16.4618C10.4868 16.4618 10.7935 16.7665 10.7935 17.1423V19.3195C10.7935 19.6953 10.4868 20 10.1086 20C9.73039 20 9.42374 19.6953 9.42374 19.3195V17.1423ZM4.47863 5.41201C4.61235 5.54489 4.7876 5.61129 4.96287 5.61129C5.13813 5.61129 5.31342 5.54484 5.44714 5.41201C5.71459 5.14626 5.71459 4.71544 5.44714 4.44973L3.89762 2.91016C3.63019 2.6444 3.19655 2.6444 2.92912 2.91016C2.66165 3.17589 2.66165 3.60672 2.92912 3.87243L4.47863 5.41199V5.41201ZM2.87622 10.6162H0.684856V10.6162C0.306646 10.6162 0 10.3115 0 9.93575C0 9.55997 0.306646 9.25529 0.684856 9.25529H2.87622C3.25443 9.25529 3.56107 9.55995 3.56107 9.93575C3.56107 10.3116 3.25443 10.6162 2.87622 10.6162ZM17.1238 10.6162H19.3152C19.6934 10.6162 20 10.3116 20 9.93575C20 9.55995 19.6934 9.25529 19.3152 9.25529H17.1238C16.7456 9.25529 16.439 9.55995 16.439 9.93575C16.439 10.3115 16.7456 10.6162 17.1238 10.6162ZM15.5216 5.41203C15.3879 5.54489 15.2127 5.61131 15.0374 5.61131C14.8621 5.61131 14.6868 5.54489 14.5531 5.41203C14.2857 5.1463 14.2857 4.71546 14.5531 4.44971L16.1027 2.91016C16.3701 2.6444 16.8037 2.6444 17.0712 2.91016C17.3386 3.17589 17.3386 3.6067 17.0712 3.87245L15.5216 5.41203Z" fill="#FFF"/>
</svg>
