<svg width="20" height="20" viewBox="0 0 20 20" fill="none" xmlns="http://www.w3.org/2000/svg">
<path fill-rule="evenodd" clip-rule="evenodd" d="M13.9406 1.6502C15.0077 2.21796 15.6059 2.99816 15.6059 2.99816C16.3385 3.86951 16.7827 4.93617 16.8856 6.06464C17.6069 6.21024 18.2688 6.56742 18.7935 7.10234C19.4731 7.79519 19.8473 8.71031 19.8473 9.67918C19.8473 10.6627 19.4593 11.5894 18.7547 12.2884C18.0551 12.9826 17.1337 13.3649 16.1604 13.3649H3.70155C1.66051 13.3649 2.17775e-07 11.7078 2.17775e-07 9.67098C-0.000308055 8.77374 0.326678 7.90712 0.91979 7.23324C1.3597 6.73338 1.9227 6.3646 2.54627 6.16043C2.56158 5.51935 2.80789 4.90943 3.24374 4.43668C3.52588 4.13066 3.93901 3.8307 4.25471 3.74623C4.27813 3.73996 4.30452 3.73245 4.33374 3.72414C4.69839 3.62043 5.50234 3.39176 6.43757 3.89292C6.43757 3.89292 6.8231 3.14091 7.47198 2.55054C8.29553 1.80125 9.23962 1.28794 10.2549 1.10399C11.6779 0.846172 12.8735 1.08244 13.9406 1.6502ZM3.70152 12.0001H16.1603C16.7704 12.0001 17.3498 11.7586 17.7917 11.3202C18.2361 10.8792 18.4809 10.2965 18.4808 9.67916C18.4808 9.06955 18.2452 8.49362 17.8173 8.05743C17.39 7.62178 16.8186 7.37284 16.2084 7.35646C15.833 7.34637 15.5361 7.03554 15.5432 6.63491C15.5427 6.61468 15.5422 6.59434 15.5422 6.57351C15.5422 5.5153 15.1466 4.50426 14.4279 3.7264C14.0376 3.30385 13.5744 2.97113 13.0513 2.73746C12.5104 2.49581 11.9328 2.37328 11.3346 2.37328C9.53696 2.37328 7.93734 3.51345 7.35424 5.21047C7.2737 5.44489 7.07224 5.61726 6.82796 5.66077C6.58368 5.70426 6.335 5.61209 6.17826 5.41996C5.9345 5.12102 5.57357 4.94959 5.18804 4.94959C5.15087 4.94954 5.11371 4.95117 5.07409 4.95475C4.75812 4.98238 4.4651 5.12674 4.24891 5.36121C4.03162 5.5969 3.91195 5.90333 3.91195 6.22414C3.91202 6.32609 3.92426 6.42768 3.94841 6.52674C3.99408 6.71439 3.95801 6.91258 3.84915 7.07217C3.74029 7.23177 3.56883 7.33783 3.37728 7.36406C2.23095 7.52095 1.36646 8.51272 1.36646 9.671C1.36646 10.9553 2.41398 12.0001 3.70152 12.0001Z" fill="#FFF"/>
<path d="M3.9375 19.125C3.42 19.125 3 18.5656 3 17.875C3 17.4141 3.3125 16.7891 3.9375 16C4.5625 16.7891 4.875 17.4141 4.875 17.875C4.875 18.5656 4.455 19.125 3.9375 19.125Z" fill="#FFF"/>
<path d="M7.9375 17.125C7.42 17.125 7 16.5656 7 15.875C7 15.4141 7.3125 14.7891 7.9375 14C8.5625 14.7891 8.875 15.4141 8.875 15.875C8.875 16.5656 8.455 17.125 7.9375 17.125Z" fill="#FFF"/>
<path d="M15.9375 17.125C15.42 17.125 15 16.5656 15 15.875C15 15.4141 15.3125 14.7891 15.9375 14C16.5625 14.7891 16.875 15.4141 16.875 15.875C16.875 16.5656 16.455 17.125 15.9375 17.125Z" fill="#FFF"/>
<path d="M11.9375 19.125C11.42 19.125 11 18.5656 11 17.875C11 17.4141 11.3125 16.7891 11.9375 16C12.5625 16.7891 12.875 17.4141 12.875 17.875C12.875 18.5656 12.455 19.125 11.9375 19.125Z" fill="#FFF"/>
</svg>
