<svg width="20" height="20" viewBox="0 0 20 20" fill="none" xmlns="http://www.w3.org/2000/svg">
<path fill-rule="evenodd" clip-rule="evenodd" d="M13.9406 4.17535C15.0077 4.7431 15.6059 5.52331 15.6059 5.52331C16.3385 6.39466 16.7827 7.46131 16.8856 8.58979C17.6069 8.73539 18.2688 9.09256 18.7935 9.62748C19.4731 10.3203 19.8473 11.2355 19.8473 12.2043C19.8473 13.1879 19.4593 14.1145 18.7547 14.8136C18.0551 15.5077 17.1337 15.89 16.1604 15.89H3.70155C1.66051 15.89 2.17775e-07 14.233 2.17775e-07 12.1961C-0.000308055 11.2989 0.326678 10.4323 0.91979 9.75839C1.3597 9.25853 1.9227 8.88975 2.54627 8.68558C2.56158 8.04449 2.80789 7.43457 3.24374 6.96183C3.52588 6.6558 3.93901 6.35585 4.25471 6.27137C4.27813 6.26511 4.30452 6.2576 4.33374 6.24929C4.69839 6.14557 5.50234 5.91691 6.43757 6.41806C6.43757 6.41806 6.8231 5.66606 7.47198 5.07569C8.29553 4.32639 9.23962 3.81308 10.2549 3.62913C11.6779 3.37132 12.8735 3.60759 13.9406 4.17535ZM3.70152 14.5252H16.1603C16.7704 14.5252 17.3498 14.2838 17.7917 13.8453C18.2361 13.4044 18.4809 12.8216 18.4808 12.2043C18.4808 11.5947 18.2452 11.0188 17.8173 10.5826C17.39 10.1469 16.8186 9.89799 16.2084 9.8816C15.833 9.87151 15.5361 9.56068 15.5432 9.16005C15.5427 9.13982 15.5422 9.11948 15.5422 9.09866C15.5422 8.04045 15.1466 7.02941 14.4279 6.25155C14.0376 5.829 13.5744 5.49627 13.0513 5.2626C12.5104 5.02095 11.9328 4.89843 11.3346 4.89843C9.53696 4.89843 7.93734 6.03859 7.35424 7.73562C7.2737 7.97004 7.07224 8.14241 6.82796 8.18591C6.58368 8.22941 6.335 8.13723 6.17826 7.94511C5.9345 7.64617 5.57357 7.47474 5.18804 7.47474C5.15087 7.47469 5.11371 7.47632 5.07409 7.4799C4.75812 7.50753 4.4651 7.65188 4.24891 7.88635C4.03162 8.12205 3.91195 8.42847 3.91195 8.74928C3.91202 8.85124 3.92426 8.95282 3.94841 9.05189C3.99408 9.23953 3.95801 9.43772 3.84915 9.59732C3.74029 9.75691 3.56883 9.86297 3.37728 9.88921C2.23095 10.0461 1.36646 11.0379 1.36646 12.1961C1.36646 13.4804 2.41398 14.5252 3.70152 14.5252Z" fill="#FFF"/>
</svg>
