<svg width="20" height="20" viewBox="0 0 20 20" fill="none" xmlns="http://www.w3.org/2000/svg">
<path fill-rule="evenodd" clip-rule="evenodd" d="M11.3421 6.42652C12.2103 6.92581 12.6969 7.61192 12.6969 7.61192C13.293 8.37819 13.6544 9.31621 13.7381 10.3086C14.325 10.4366 14.8635 10.7507 15.2904 11.2211C15.8433 11.8304 16.1478 12.6352 16.1478 13.4872C16.1478 14.3521 15.8321 15.167 15.2589 15.7818C14.6896 16.3922 13.94 16.7284 13.1481 16.7284H3.01158C1.35099 16.7284 1.7702e-07 15.2712 1.7702e-07 13.48C-0.00025052 12.691 0.265786 11.9289 0.748342 11.3363C1.10625 10.8967 1.56432 10.5724 2.07165 10.3928C2.08411 9.82905 2.2845 9.29269 2.63911 8.87696C2.86866 8.60784 3.20478 8.34406 3.46164 8.26977C3.48069 8.26426 3.50217 8.25766 3.52593 8.25035C3.82261 8.15914 4.47671 7.95805 5.23761 8.39877C5.23761 8.39877 5.55128 7.73745 6.07921 7.21828C6.74925 6.55935 7.51736 6.10795 8.34341 5.94618C9.50118 5.71946 10.4739 5.92724 11.3421 6.42652ZM3.01169 15.5283H13.1482C13.6446 15.5283 14.1159 15.3159 14.4755 14.9304C14.837 14.5426 15.0362 14.0301 15.0361 13.4872C15.0361 12.9512 14.8444 12.4447 14.4963 12.0611C14.1486 11.678 13.6838 11.4591 13.1873 11.4447C12.8819 11.4358 12.6403 11.1624 12.6461 10.8101C12.6457 10.7923 12.6453 10.7745 12.6453 10.7561C12.6453 9.82555 12.3234 8.93644 11.7387 8.25239C11.4211 7.8808 11.0443 7.5882 10.6187 7.38271C10.1786 7.1702 9.7087 7.06245 9.222 7.06245C7.75941 7.06245 6.45796 8.06512 5.98355 9.55748C5.91802 9.76363 5.75411 9.91521 5.55536 9.95347C5.35662 9.99172 5.15429 9.91066 5.02677 9.7417C4.82844 9.47882 4.53479 9.32807 4.22112 9.32807C4.19088 9.32802 4.16065 9.32945 4.12841 9.3326C3.87134 9.3569 3.63294 9.48385 3.45704 9.69004C3.28026 9.89731 3.1829 10.1668 3.1829 10.4489C3.18295 10.5386 3.19291 10.6279 3.21256 10.715C3.24971 10.88 3.22037 11.0543 3.1318 11.1947C3.04324 11.335 2.90374 11.4283 2.74789 11.4513C1.81523 11.5893 1.11189 12.4615 1.11189 13.4801C1.11189 14.6095 1.96415 15.5283 3.01169 15.5283Z" fill="#FFF"/>
<path d="M16.1855 7.74134C16.271 7.73474 16.3503 7.72814 16.4357 7.72814C18.407 7.72814 20.0059 9.46354 19.9998 11.5817C19.9998 13.5678 18.6267 15.2174 16.8019 15.422C16.7836 15.4286 16.7653 15.4286 16.7409 15.4286H16.7409C16.4296 15.4286 16.1733 15.1778 16.1428 14.8479L16.1977 14.5378C16.2832 14.3332 16.4663 14.1815 16.686 14.1551C17.8943 14.0165 18.8037 12.9211 18.8037 11.6081C18.8037 10.196 17.7418 9.04784 16.4357 9.04784C16.2527 9.04784 16.0574 9.07423 15.8621 9.12702C15.6973 9.16661 15.5264 9.13362 15.386 9.03464C15.2457 8.92907 15.148 8.7707 15.1236 8.59254C14.849 6.68558 13.3599 5.3065 11.5778 5.3065C10.8333 5.3065 10.1192 5.54404 9.51506 6.00594C9.153 6.24068 8.85563 6.05536 8.75219 5.93336C8.72778 5.90696 8.70337 5.87397 8.67896 5.84098C8.48977 5.55064 8.5569 5.14154 8.82543 4.93698C9.63711 4.32333 10.5892 4 11.5778 4C13.72 4 15.5996 5.53085 16.1855 7.74134Z" fill="#FFF"/>
</svg>
