<svg width="20" height="20" viewBox="0 0 20 20" fill="none" xmlns="http://www.w3.org/2000/svg">
<path fill-rule="evenodd" clip-rule="evenodd" d="M10 3.53478C10.3782 3.53478 10.6849 3.23042 10.6849 2.855V0.679805C10.6849 0.304384 10.3782 0 10 0C9.6218 0 9.31516 0.304384 9.31516 0.679805V2.855C9.31516 3.23045 9.62178 3.53481 10 3.53481V3.53478ZM4.47847 5.40682C4.61218 5.53957 4.78743 5.60591 4.96271 5.60591C5.13796 5.60591 5.31326 5.53952 5.44697 5.40682C5.71442 5.14132 5.71442 4.71091 5.44697 4.44546L3.89745 2.90735C3.63003 2.64185 3.19638 2.64185 2.92895 2.90735C2.66148 3.17283 2.66148 3.60325 2.92895 3.86871L4.47847 5.4068V5.40682ZM2.87622 10.606H0.684856V10.606C0.306646 10.606 0 10.3017 0 9.92623C0 9.55081 0.306646 9.24643 0.684856 9.24643H2.87622C3.25443 9.24643 3.56107 9.55079 3.56107 9.92623C3.56107 10.3017 3.25443 10.606 2.87622 10.606ZM16.439 9.92626C16.439 10.3017 16.7456 10.6061 17.1238 10.6061H19.3151C19.6934 10.6061 20 10.3017 20 9.92626C20 9.55081 19.6934 9.24645 19.3151 9.24645H17.1238C16.7456 9.24645 16.4389 9.55081 16.4389 9.92626H16.439ZM15.5215 5.40682C15.3878 5.53954 15.2126 5.60591 15.0373 5.60591C14.862 5.60591 14.6867 5.53954 14.5531 5.40682C14.2856 5.14134 14.2856 4.71091 14.5531 4.44541L16.1026 2.90733C16.37 2.64183 16.8036 2.64183 17.0711 2.90733C17.3385 3.17281 17.3385 3.60321 17.0711 3.86871L15.5215 5.40682Z" fill="#FFF"/>
<path fill-rule="evenodd" clip-rule="evenodd" d="M16.8856 12.6998C16.7827 11.5713 16.3385 10.5046 15.6059 9.63329C15.5347 8.22013 14.948 6.90182 13.9371 5.89704C12.8636 4.83005 11.4383 4.24243 9.92377 4.24243C8.40396 4.24243 6.97513 4.83357 5.90049 5.90691C4.82584 6.98028 4.234 8.40738 4.234 9.92533C4.234 10.0805 4.24069 10.2356 4.25327 10.3901C3.87178 10.534 3.52588 10.7658 3.24374 11.0718C2.80789 11.5446 2.56158 12.1545 2.54627 12.7956C1.9227 12.9997 1.3597 13.3685 0.91979 13.8684C0.326678 14.5422 -0.000308273 15.4089 2.18082e-07 16.3061C2.18082e-07 18.3429 1.66051 20 3.70155 20H16.1604C17.1337 20 18.0551 19.6177 18.7547 18.9235C19.4593 18.2245 19.8473 17.2978 19.8473 16.3143C19.8473 15.3454 19.4731 14.4303 18.7935 13.7375C18.2688 13.2025 17.6069 12.8454 16.8856 12.6998ZM9.92379 5.60729C11.0746 5.60729 12.1576 6.05376 12.9733 6.86449C13.3867 7.27544 13.7069 7.75547 13.9227 8.27854C13.8198 8.22474 13.7153 8.17411 13.6093 8.12674C12.8917 7.80616 12.1264 7.6436 11.3347 7.6436C9.27414 7.6436 7.40992 8.77483 6.44455 10.5362C6.18514 10.3962 5.90398 10.3007 5.61285 10.2539C5.6046 10.1446 5.60048 10.035 5.60048 9.92538C5.60048 7.54437 7.53992 5.60729 9.92379 5.60729ZM16.1603 18.6352C16.7704 18.6352 17.3498 18.3937 17.7917 17.9553H17.7917C18.2361 17.5144 18.4809 16.9316 18.4808 16.3143C18.4808 15.7047 18.2452 15.1288 17.8173 14.6926C17.39 14.2569 16.8186 14.008 16.2084 13.9916C15.833 13.9815 15.5361 13.6707 15.5437 13.2956C15.5438 13.289 15.5436 13.2825 15.5434 13.276C15.5433 13.274 15.5433 13.272 15.5432 13.27C15.5427 13.2498 15.5422 13.2295 15.5422 13.2086C15.5422 12.1504 15.1466 11.1394 14.4281 10.3618L14.4279 10.3615C14.0376 9.93898 13.5744 9.60626 13.0513 9.37259C12.5104 9.13094 11.9328 9.00841 11.3346 9.00841C9.53696 9.00841 7.93734 10.1486 7.35424 11.8456C7.2737 12.08 7.07224 12.2524 6.82796 12.2959C6.58368 12.3394 6.33499 12.2472 6.17826 12.0551C5.9345 11.7562 5.57357 11.5847 5.18804 11.5847C5.15086 11.5847 5.11371 11.5863 5.07669 11.5896L5.07562 11.5897L5.07409 11.5899C4.75812 11.6175 4.4651 11.7619 4.24891 11.9963C4.03162 12.232 3.91195 12.5385 3.91195 12.8593C3.91202 12.9612 3.92426 13.0628 3.94841 13.1619C3.99408 13.3495 3.95801 13.5477 3.84915 13.7073C3.74029 13.8669 3.56883 13.973 3.37728 13.9992C2.23095 14.1561 1.36646 15.1478 1.36646 16.3061C1.36646 17.5904 2.41398 18.6352 3.70152 18.6352H16.1603Z" fill="#FFF"/>
</svg>
