<svg width="40" height="40" viewBox="0 0 40 40" fill="none" xmlns="http://www.w3.org/2000/svg">
<path fill-rule="evenodd" clip-rule="evenodd" d="M10 0H1H0V1V39V40H1H10V39H1V1H10V0ZM30 39H39V1H30V0H39H40V1V39V40H39H30V39Z" fill="#18FEFE"/>
<g clip-path="url(#clip0_2287_7184)">
<path d="M21.2874 21.5459C22.3541 21.5458 23.3802 21.9548 24.1543 22.6886C24.9284 23.4224 25.3917 24.4252 25.4485 25.4903L25.4541 25.7126V27.3792C25.454 27.5904 25.3738 27.7936 25.2297 27.9479C25.0855 28.1022 24.8882 28.196 24.6776 28.2104C24.4669 28.2248 24.2587 28.1587 24.0949 28.0254C23.9311 27.8922 23.824 27.7017 23.7952 27.4926L23.7874 27.3792V25.7126C23.7875 25.0791 23.5471 24.4692 23.1148 24.0062C22.6825 23.5431 22.0905 23.2615 21.4585 23.2181L21.2874 23.2126H14.6208C13.9873 23.2125 13.3774 23.4529 12.9144 23.8852C12.4513 24.3175 12.1697 24.9095 12.1263 25.5415L12.1208 25.7126V27.3792C12.1207 27.5904 12.0405 27.7936 11.8964 27.9479C11.7522 28.1022 11.5549 28.196 11.3442 28.2104C11.1336 28.2248 10.9253 28.1587 10.7615 28.0254C10.5978 27.8922 10.4907 27.7017 10.4619 27.4926L10.4541 27.3792V25.7126C10.454 24.6459 10.863 23.6198 11.5968 22.8457C12.3306 22.0716 13.3334 21.6083 14.3985 21.5515L14.6208 21.5459H21.2874ZM27.3285 21.6803C28.1866 21.9017 28.9518 22.3909 29.5129 23.0769C30.074 23.7628 30.4017 24.6098 30.4485 25.4948L30.4541 25.7126V27.3792C30.454 27.5904 30.3738 27.7936 30.2297 27.9479C30.0855 28.1022 29.8882 28.196 29.6776 28.2104C29.4669 28.2248 29.2587 28.1587 29.0949 28.0254C28.9311 27.8922 28.824 27.7017 28.7952 27.4926L28.7874 27.3792V25.7126C28.7868 25.1589 28.6025 24.6211 28.2632 24.1835C27.924 23.7459 27.4491 23.4333 26.913 23.2948C26.6989 23.2397 26.5155 23.1018 26.4031 22.9114C26.2906 22.7211 26.2584 22.4939 26.3135 22.2798C26.3687 22.0657 26.5065 21.8823 26.6969 21.7699C26.8872 21.6574 27.1145 21.6252 27.3285 21.6803V21.6803ZM17.9541 11.5459C18.5013 11.5459 19.0432 11.6536 19.5487 11.863C20.0543 12.0724 20.5136 12.3793 20.9006 12.7662C21.2875 13.1531 21.5945 13.6124 21.8039 14.118C22.0133 14.6235 22.1211 15.1654 22.1211 15.7126C22.1211 16.2598 22.0133 16.8016 21.8039 17.3072C21.5945 17.8127 21.2875 18.272 20.9006 18.659C20.5136 19.0459 20.0543 19.3528 19.5487 19.5622C19.0432 19.7715 18.5013 19.8793 17.9541 19.8792C16.8491 19.8791 15.7894 19.4401 15.008 18.6587C14.2267 17.8773 13.7878 16.8176 13.7878 15.7126C13.7878 14.6076 14.2267 13.5478 15.008 12.7664C15.7894 11.985 16.8491 11.546 17.9541 11.5459V11.5459ZM23.9941 11.6792C24.891 11.9082 25.6862 12.4293 26.2541 13.1604C26.822 13.8914 27.1303 14.7907 27.1303 15.7165C27.1303 16.6422 26.822 17.5415 26.2541 18.2726C25.6862 19.0036 24.891 19.5247 23.9941 19.7537C23.7799 19.8085 23.5526 19.7759 23.3624 19.6632C23.1721 19.5505 23.0345 19.3668 22.9797 19.1526C22.9248 18.9383 22.9574 18.7111 23.0701 18.5208C23.1828 18.3306 23.3665 18.1929 23.5808 18.1381C24.1183 18.0003 24.5948 17.6875 24.935 17.2491C25.2752 16.8106 25.4599 16.2714 25.4599 15.7165C25.4599 15.1615 25.2752 14.6223 24.935 14.1839C24.5948 13.7454 24.1183 13.4326 23.5808 13.2948C23.4735 13.2689 23.3724 13.2219 23.2834 13.1565C23.1945 13.0912 23.1193 13.0089 23.0625 12.9143C23.0056 12.8197 22.968 12.7148 22.952 12.6055C22.936 12.4963 22.9419 12.385 22.9693 12.2781C22.9967 12.1712 23.045 12.0707 23.1115 11.9827C23.178 11.8946 23.2614 11.8206 23.3567 11.765C23.4521 11.7093 23.5575 11.6732 23.6669 11.6587C23.7763 11.6442 23.8875 11.6515 23.9941 11.6803V11.6792ZM17.9541 13.2126C17.2911 13.2126 16.6552 13.476 16.1863 13.9448C15.7175 14.4136 15.4541 15.0495 15.4541 15.7126C15.4541 16.3756 15.7175 17.0115 16.1863 17.4803C16.6552 17.9492 17.2911 18.2126 17.9541 18.2126C18.6171 18.2126 19.253 17.9492 19.7219 17.4803C20.1907 17.0115 20.4541 16.3756 20.4541 15.7126C20.4541 15.0495 20.1907 14.4136 19.7219 13.9448C19.253 13.476 18.6171 13.2126 17.9541 13.2126V13.2126Z" fill="#00F7FF"/>
</g>
<defs>
<clipPath id="clip0_2287_7184">
<rect width="20" height="20" fill="white" transform="translate(10 10)"/>
</clipPath>
</defs>
</svg>
