<svg width="40" height="40" viewBox="0 0 40 40" fill="none" xmlns="http://www.w3.org/2000/svg">
<path fill-rule="evenodd" clip-rule="evenodd" d="M10 0H1H0V1V39V40H1H10V39H1V1H10V0ZM30 39H39V1H30V0H39H40V1V39V40H39H30V39Z" fill="#18FEFE"/>
<path d="M17.7236 24.7926C14.1374 24.4822 11.4477 21.3098 11.7581 17.7236C12.0684 14.1374 15.2408 11.4477 18.827 11.7581C21.3443 11.965 23.4822 13.5512 24.3788 15.9305L25.9995 15.3098C24.827 12.3098 22.1374 10.3098 18.965 10.0339C14.4132 9.65462 10.4132 13.0339 10.0339 17.5857C9.65462 22.1374 13.0339 26.1374 17.5857 26.5167C17.827 26.5512 18.0339 26.5512 18.2753 26.5512H18.7236L18.6201 24.827C18.3443 24.827 18.0339 24.827 17.7236 24.7926V24.7926Z" fill="#00F7FF"/>
<path d="M17.2759 18.276L17.2754 19.0001H19.0001V14.207H17.2759V18.276Z" fill="#00F7FF"/>
<path d="M17.2765 20.8448L17.2759 21.569H19.0006L19.0001 20H17.2759L17.2765 20.8448Z" fill="#00F7FF"/>
<path d="M26.2222 24.6001C26.9333 24.6 27.6174 24.87 28.1335 25.3543C28.6496 25.8386 28.9584 26.5005 28.9963 27.2035L29 27.3501V28.4502C29 28.5895 28.9465 28.7237 28.8504 28.8255C28.7543 28.9273 28.6227 28.9892 28.4823 28.9987C28.3419 29.0082 28.203 28.9646 28.0939 28.8766C27.9847 28.7887 27.9133 28.663 27.8941 28.525L27.8889 28.4502V27.3501C27.8889 26.932 27.7287 26.5295 27.4405 26.2239C27.1523 25.9183 26.7576 25.7324 26.3363 25.7038L26.2222 25.7001H21.7778C21.3555 25.7001 20.9489 25.8587 20.6402 26.1441C20.3315 26.4294 20.1437 26.8201 20.1148 27.2372L20.1111 27.3501V28.4502C20.1111 28.5895 20.0576 28.7237 19.9615 28.8255C19.8654 28.9273 19.7339 28.9892 19.5934 28.9987C19.453 29.0082 19.3142 28.9646 19.205 28.8766C19.0958 28.7887 19.0244 28.663 19.0052 28.525L19 28.4502V27.3501C18.9999 26.6461 19.2726 25.9689 19.7618 25.458C20.251 24.947 20.9195 24.6413 21.6296 24.6038L21.7778 24.6001H26.2222ZM24 18C24.3648 18 24.726 18.0711 25.0631 18.2093C25.4001 18.3475 25.7064 18.55 25.9643 18.8054C26.2223 19.0608 26.4269 19.3639 26.5665 19.6976C26.7061 20.0313 26.778 20.3889 26.778 20.75C26.778 21.1112 26.7061 21.4688 26.5665 21.8025C26.4269 22.1361 26.2223 22.4393 25.9643 22.6947C25.7064 22.9501 25.4001 23.1526 25.0631 23.2908C24.726 23.429 24.3648 23.5001 24 23.5001C23.2633 23.5 22.5568 23.2103 22.036 22.6945C21.5151 22.1788 21.2224 21.4794 21.2224 20.75C21.2224 20.0207 21.5151 19.3213 22.036 18.8055C22.5568 18.2898 23.2633 18.0001 24 18ZM24 19.1C23.558 19.1 23.134 19.2739 22.8215 19.5833C22.5089 19.8927 22.3333 20.3124 22.3333 20.75C22.3333 21.1877 22.5089 21.6073 22.8215 21.9168C23.134 22.2262 23.558 22.4001 24 22.4001C24.442 22.4001 24.866 22.2262 25.1785 21.9168C25.4911 21.6073 25.6667 21.1877 25.6667 20.75C25.6667 20.3124 25.4911 19.8927 25.1785 19.5833C24.866 19.2739 24.442 19.1 24 19.1Z" fill="#00F7FF"/>
</svg>
