<svg width="20" height="20" viewBox="0 0 20 20" fill="none" xmlns="http://www.w3.org/2000/svg">
<path d="M10 20C4.47715 20 0 15.5229 0 10C0 4.47715 4.47715 0 10 0C15.5229 0 20 4.47715 20 10C20 15.5229 15.5229 20 10 20ZM10 18.5938C14.7462 18.5938 18.5938 14.7462 18.5938 10C18.5938 5.25381 14.7462 1.40625 10 1.40625C5.25381 1.40625 1.40625 5.25381 1.40625 10C1.40625 14.7462 5.25381 18.5938 10 18.5938Z" fill="#00F7FF"/>
<path d="M13.8678 7.81815H13.8638L12.078 7.80493L12.5716 5.49558C12.5796 5.46348 12.5856 5.42949 12.5876 5.39928C12.6478 4.88945 12.4492 4.56278 12.2706 4.37773L12.2626 4.37018C12.0238 4.13037 11.6887 3.9963 11.3376 4.00008H11.3276C11.0888 4.00763 10.854 4.06806 10.6434 4.17569C10.525 4.23611 10.4227 4.31731 10.3384 4.41172L5.28605 10.0387C5.13278 10.2087 5.03618 10.4174 5.00835 10.6387C4.98051 10.8601 5.02267 11.0842 5.12954 11.2831L5.13958 11.3001C5.35026 11.6683 5.76359 11.8892 6.24515 11.8911C6.26722 11.8911 6.2913 11.8911 6.31538 11.8892H7.56341L6.61234 14.4799C6.58625 14.5498 6.56819 14.6216 6.56017 14.6914C6.51603 15.02 6.62237 15.3523 6.85111 15.6054L6.87117 15.6261C7.10393 15.864 7.435 16 7.78011 16H7.80018C7.99079 15.9962 8.17539 15.9585 8.34795 15.8905C8.49643 15.8357 8.62885 15.7489 8.7352 15.6431L14.4798 9.92168H14.558L14.7807 9.60067C15.0336 9.23812 15.0697 8.80382 14.8791 8.43939C14.6884 8.08439 14.3132 7.85214 13.8678 7.81815ZM8.42821 13.8795L9.67825 10.4712H6.87318L10.9363 5.94688L10.2381 9.21547L13.0933 9.23246L8.42821 13.8795Z" fill="#00F7FF"/>
</svg>
