<svg width="20" height="20" viewBox="0 0 20 20" fill="none" xmlns="http://www.w3.org/2000/svg">
<path d="M17.5001 17H2.49989C1.11924 17 0 15.8806 0 14.5V4.50007C0 3.1192 1.11924 2 2.49989 2H17.5001C18.8808 2 20 3.1192 20 4.50007V14.5C20 15.8806 18.8808 17 17.5001 17ZM18.7502 4.50007C18.7502 3.80952 18.1903 3.25001 17.5001 3.25001H2.49989C1.80976 3.25001 1.25005 3.8095 1.25005 4.50007V14.5C1.25005 15.1903 1.80976 15.75 2.49989 15.75H17.5001C18.1903 15.75 18.7502 15.1903 18.7502 14.5V4.50007ZM16.2501 9.49988H13.7501C13.0597 9.49988 12.5001 8.94039 12.5001 8.2499V5.74995C12.5001 5.05963 13.0597 4.49997 13.7501 4.49997H16.25C16.9405 4.49997 17.5001 5.05967 17.5001 5.74995V8.2499C17.5001 8.94039 16.9405 9.49988 16.2501 9.49988ZM16.2501 6.37488C16.2501 6.02983 15.9702 5.74995 15.6252 5.74995H14.375C14.03 5.74995 13.7502 6.02985 13.7502 6.37488V7.62495C13.7502 7.9702 14.03 8.24988 14.375 8.24988H15.6252C15.9703 8.24988 16.2501 7.9702 16.2501 7.62495V6.37488ZM10.6251 14.4999H3.12508C2.78 14.4999 2.49989 14.2202 2.49989 13.875C2.49989 13.5297 2.78 13.25 3.12508 13.25H10.6251C10.9705 13.25 11.2503 13.5297 11.2503 13.875C11.2503 14.2202 10.9704 14.4999 10.6251 14.4999ZM10.6251 12H3.12508C2.78 12 2.49989 11.7201 2.49989 11.3749C2.49989 11.0298 2.78 10.75 3.12508 10.75H10.6251C10.9705 10.75 11.2503 11.0298 11.2503 11.3749C11.2503 11.7201 10.9704 12 10.6251 12Z" fill="#00F7FF"/>
</svg>
