<svg width="20" height="20" viewBox="0 0 20 20" fill="none" xmlns="http://www.w3.org/2000/svg">
<path fill-rule="evenodd" clip-rule="evenodd" d="M2.4727 13.0767C2.57442 13.1531 2.69827 13.1944 2.82552 13.1943C2.96177 13.1943 3.09379 13.147 3.19903 13.0604C3.21056 13.051 4.37249 12.1048 6.38235 10.9257C7.05293 10.5322 7.75292 10.507 8.46231 10.8511C8.82183 11.0288 9.14662 11.2695 9.42126 11.5617C9.51176 11.6683 9.63756 11.7388 9.77573 11.7604C9.91389 11.782 10.0552 11.7532 10.1739 11.6793L16.6787 7.68005L17.0899 8.3286L7.95931 14.35L6.48032 12.1065C6.4378 12.0421 6.383 11.9866 6.31904 11.9433C6.25509 11.9 6.18323 11.8697 6.10757 11.8542C6.03191 11.8386 5.95394 11.8382 5.8781 11.8528C5.80225 11.8674 5.73003 11.8968 5.66555 11.9393C5.60107 11.9818 5.5456 12.0366 5.5023 12.1006C5.459 12.1645 5.42872 12.2364 5.41319 12.312C5.39766 12.3877 5.39719 12.4657 5.4118 12.5415C5.4264 12.6174 5.4558 12.6896 5.49832 12.7541L6.34321 14.035L5.64638 14.4679L4.94804 13.2594C4.86951 13.1254 4.74118 13.028 4.59106 12.9883C4.44095 12.9486 4.28122 12.9699 4.14675 13.0475C4.01227 13.1252 3.91397 13.2529 3.87328 13.4027C3.8326 13.5526 3.85284 13.7124 3.92959 13.8474L4.93181 15.5818C4.98343 15.6712 5.05764 15.7453 5.14698 15.7969C5.23632 15.8484 5.33765 15.8756 5.44081 15.8756C5.5505 15.8758 5.65804 15.8452 5.75128 15.7874L6.991 15.0171L7.30167 15.4881C7.35523 15.5694 7.42811 15.6361 7.51378 15.6822C7.59946 15.7283 7.69524 15.7525 7.79255 15.7525C7.90742 15.7526 8.0198 15.719 8.11573 15.6558L11.442 13.4629C11.4605 13.6733 11.5109 13.8807 11.5926 14.078C11.7505 14.459 12.0177 14.7847 12.3606 15.0138C12.388 15.0321 12.4157 15.0497 12.4438 15.0666C12.5013 15.5354 12.7137 15.9745 13.051 16.3119C13.4495 16.7106 13.9899 16.9348 14.5536 16.9354H18.8239V18.386C18.8239 18.5419 18.8859 18.6915 18.9962 18.8018C19.1064 18.9121 19.256 18.974 19.412 18.974C19.5679 18.974 19.7175 18.9121 19.8278 18.8018C19.938 18.6915 20 18.5419 20 18.386V11.3939C20 11.238 19.938 11.0884 19.8278 10.9781C19.7175 10.8679 19.5679 10.8059 19.412 10.8059C19.256 10.8059 19.1064 10.8679 18.9962 10.9781C18.8859 11.0884 18.8239 11.238 18.8239 11.3939V12.6833H15.517C15.4578 12.4851 15.3691 12.2957 15.2529 12.1218C15.0626 11.8369 14.8056 11.6042 14.5056 11.4431L18.2196 8.99448C18.3483 8.90962 18.4385 8.77763 18.4708 8.62692C18.5032 8.47621 18.475 8.31882 18.3925 8.18865L17.6797 7.0646L18.036 6.84551C18.1032 6.80417 18.1615 6.74973 18.2072 6.68542C18.2529 6.62112 18.2852 6.54827 18.3022 6.47121C18.3192 6.39415 18.3205 6.31447 18.3061 6.23689C18.2916 6.15932 18.2617 6.08545 18.2181 6.01969L16.0913 2.81143C16.0866 2.80414 16.0817 2.79708 16.0765 2.79003C15.793 2.40062 15.3735 2.13198 14.9013 2.03739C14.429 1.9428 13.9384 2.02918 13.5268 2.27939L13.5242 2.2808L0.279848 10.4275C0.198218 10.4777 0.130105 10.5472 0.081438 10.6297C0.0327716 10.7123 0.00502751 10.8055 0.000621644 10.9013C-0.00378422 10.997 0.0152817 11.0924 0.0561592 11.1791C0.0970367 11.2658 0.158487 11.3412 0.235158 11.3987L2.4727 13.0767ZM14.4278 13.2713L14.4279 13.2592C14.4222 13.0258 14.3271 12.8032 14.1616 12.6378C13.9912 12.4673 13.7601 12.3715 13.5191 12.3712C13.3393 12.3712 13.1635 12.4246 13.014 12.5244C12.8645 12.6243 12.748 12.7663 12.6792 12.9324C12.6104 13.0985 12.5924 13.2813 12.6275 13.4577C12.6625 13.634 12.7491 13.796 12.8763 13.9231C12.9665 14.0134 13.0744 14.0833 13.1925 14.1287C13.2006 14.1312 13.2087 14.1338 13.2167 14.1367C13.3532 14.1848 13.4994 14.1997 13.6428 14.1799C13.7863 14.1602 13.923 14.1064 14.0415 14.0232C14.1599 13.9399 14.2568 13.8295 14.324 13.7013C14.3912 13.573 14.4268 13.4305 14.4278 13.2857V13.2713ZM13.7727 15.3501C14.1714 15.3005 14.5471 15.1371 14.8552 14.8797L14.8703 14.8669C14.9124 14.831 14.9533 14.7933 14.9927 14.7539C15.0416 14.705 15.0878 14.654 15.1312 14.601C15.3092 14.3839 15.4425 14.1321 15.5217 13.8601H18.8238V15.7598H14.5536C14.4 15.7598 14.2487 15.7225 14.1127 15.6511C13.9767 15.5798 13.86 15.4765 13.7727 15.3501ZM2.81964 11.8663L1.63207 10.9753L14.1388 3.28397C14.2968 3.18925 14.4842 3.15608 14.6651 3.19079C14.846 3.2255 15.0077 3.32567 15.1194 3.47213L16.9019 6.16175L9.94624 10.4381C9.66376 10.1928 9.35211 9.9833 9.01834 9.81432C7.9352 9.2731 6.81772 9.30673 5.7868 9.91146C4.33932 10.7608 3.32534 11.4852 2.81964 11.8663ZM13.302 13.5548C13.227 13.4798 13.1849 13.3781 13.1849 13.2721C13.1849 13.166 13.227 13.0643 13.302 12.9893C13.377 12.9143 13.4787 12.8722 13.5847 12.8722C13.6908 12.8722 13.7925 12.9143 13.8675 12.9893C13.9425 13.0643 13.9846 13.166 13.9846 13.2721C13.9846 13.3781 13.9425 13.4798 13.8675 13.5548C13.7925 13.6298 13.6908 13.6719 13.5847 13.6719C13.4787 13.6719 13.377 13.6298 13.302 13.5548Z" fill="#00F7FF"/>
</svg>
