<svg width="18" height="18" viewBox="0 0 18 18" fill="none" xmlns="http://www.w3.org/2000/svg">
<path d="M17.8364 7.86578L16.144 9.56294V11.7853C16.4842 11.8406 17.7847 12.1159 17.7847 12.444V13.3142C17.7847 13.6832 16.5539 14.0294 16.1837 14.0835L9.64869 15.3011C9.20159 15.3551 8.7496 15.3551 8.3025 15.3011L1.81196 14.0835C1.43936 14.0294 0.237405 13.6832 0.237406 13.3142V12.444C0.237406 12.1159 1.55955 11.843 1.82879 11.7853V9.56174L0.155673 7.86218C0.0972319 7.8015 0.0533303 7.72834 0.0272781 7.64823C0.00122582 7.56811 -0.00629703 7.48313 0.0052767 7.39968C0.0168504 7.31623 0.0472186 7.2365 0.0940916 7.1665C0.140965 7.0965 0.203119 7.03805 0.275868 6.99557L8.41068 2.85244C8.58225 2.7521 8.77743 2.69922 8.97619 2.69922C9.17496 2.69922 9.37014 2.7521 9.54171 2.85244L17.7318 7.00038C17.804 7.0436 17.8653 7.10276 17.9111 7.17331C17.9569 7.24387 17.9859 7.32397 17.996 7.40747C18.0061 7.49098 17.997 7.57569 17.9693 7.65512C17.9416 7.73456 17.8962 7.80662 17.8364 7.86578V7.86578ZM11.1055 5.67703H10.6667C9.87586 5.67703 9.04531 4.65898 8.9768 4.552C8.4808 5.12276 7.81324 5.51747 7.07411 5.67703H6.61496V7.37779C6.6261 7.52009 6.6636 7.65907 6.72554 7.78766C6.81015 7.97624 6.9246 8.14994 7.06449 8.30209C7.24285 8.5021 7.44008 8.68444 7.65345 8.84658C8.06617 9.13851 8.51199 9.38058 8.9816 9.56775C9.37714 9.35904 9.75466 9.11782 10.1102 8.84658C10.3221 8.68438 10.5177 8.50204 10.6944 8.30209C10.8292 8.14919 10.9384 7.97546 11.0177 7.78766C11.0726 7.65781 11.1024 7.51873 11.1055 7.37779V5.67703ZM14.5707 10.605H3.48989V12.1507H14.5707V10.605Z" fill="#00F7FF"/>
</svg>
