<svg width="20" height="20" viewBox="0 0 20 20" fill="none" xmlns="http://www.w3.org/2000/svg">
<path d="M15.625 17.4629H4.375C4.04492 17.4629 3.7793 17.1953 3.7793 16.8672V15.9453H2.9668C2.63672 15.9453 2.37109 15.6777 2.37109 15.3496V4.48633C2.37109 4.15625 2.63867 3.89062 2.9668 3.89062H3.7793V2.51953C3.7793 2.18945 4.04687 1.92383 4.375 1.92383H15.625C15.9551 1.92383 16.2207 2.19141 16.2207 2.51953V3.89062H17.3125C17.6426 3.89062 17.9082 4.1582 17.9082 4.48633V15.3477C17.9082 15.6777 17.6406 15.9434 17.3125 15.9434H16.2207V16.8652C16.2227 17.1953 15.9551 17.4629 15.625 17.4629ZM4.9707 16.2715H15.0293V15.3496C15.0293 15.0195 15.2969 14.7539 15.625 14.7539H16.7168V5.08398H15.625C15.2949 5.08398 15.0293 4.81641 15.0293 4.48828V3.11719H4.9707V4.48828C4.9707 4.81836 4.70312 5.08398 4.375 5.08398H3.5625V14.7539H4.375C4.70508 14.7539 4.9707 15.0215 4.9707 15.3496V16.2715V16.2715Z" fill="#00F7FF"/>
<path d="M4.37549 16.0552C4.22314 16.0552 4.0708 15.9966 3.95361 15.8813C3.72119 15.6489 3.72119 15.272 3.95361 15.0376L15.2056 3.78564C15.438 3.55322 15.8149 3.55322 16.0493 3.78564C16.2817 4.01807 16.2817 4.39502 16.0493 4.62939L4.79736 15.8813C4.68018 15.9966 4.52783 16.0552 4.37549 16.0552Z" fill="#00F7FF"/>
<path d="M4.375 18.8984H1.41992C1.08984 18.8984 0.824219 18.6309 0.824219 18.3027V15.3477C0.824219 15.0176 1.0918 14.752 1.41992 14.752H4.375C4.70508 14.752 4.9707 15.0195 4.9707 15.3477V18.3008C4.9707 18.6328 4.70313 18.8984 4.375 18.8984ZM2.01758 17.707H3.7793V15.9453H2.01758V17.707ZM8.73438 17.4453C8.58203 17.4453 8.42969 17.3867 8.3125 17.2715C8.08008 17.0391 8.08008 16.6621 8.3125 16.4277L16.6602 8.08203C16.8926 7.84961 17.2695 7.84961 17.5039 8.08203C17.7363 8.31445 17.7363 8.69141 17.5039 8.92578L9.15625 17.2715C9.03906 17.3867 8.88672 17.4453 8.73438 17.4453V17.4453ZM3.0293 11.0586C2.87695 11.0586 2.72461 11 2.60742 10.8848C2.375 10.6523 2.375 10.2754 2.60742 10.041L10.1016 2.54687C10.334 2.31445 10.7109 2.31445 10.9453 2.54687C11.1777 2.7793 11.1777 3.15625 10.9453 3.39063L3.44922 10.8828C3.33398 11 3.18164 11.0586 3.0293 11.0586ZM4.375 5.08398H1.41992C1.08984 5.08398 0.824219 4.81641 0.824219 4.48828V1.5332C0.824219 1.20313 1.0918 0.9375 1.41992 0.9375H4.375C4.70508 0.9375 4.9707 1.20508 4.9707 1.5332V4.48633C4.9707 4.81641 4.70313 5.08398 4.375 5.08398ZM2.01758 3.89062H3.7793V2.12891H2.01758V3.89062V3.89062ZM18.5801 5.08398H15.625C15.2949 5.08398 15.0293 4.81641 15.0293 4.48828V1.5332C15.0293 1.20313 15.2969 0.9375 15.625 0.9375H18.5781C18.9082 0.9375 19.1738 1.20508 19.1738 1.5332V4.48633C19.1758 4.81641 18.9082 5.08398 18.5801 5.08398V5.08398ZM16.2227 3.89062H17.9844V2.12891H16.2227V3.89062V3.89062ZM18.5801 18.8984H15.625C15.2949 18.8984 15.0293 18.6309 15.0293 18.3027V15.3477C15.0293 15.0176 15.2969 14.752 15.625 14.752H18.5781C18.9082 14.752 19.1738 15.0195 19.1738 15.3477V18.3008C19.1758 18.6328 18.9082 18.8984 18.5801 18.8984V18.8984ZM16.2227 17.707H17.9844V15.9453H16.2227V17.707Z" fill="#00F7FF"/>
</svg>
