<svg width="20" height="20" viewBox="0 0 20 20" fill="none" xmlns="http://www.w3.org/2000/svg">
<path fill-rule="evenodd" clip-rule="evenodd" d="M18.7644 3.32574L15.9328 1.0767C15.6634 0.862687 15.2715 0.90741 15.0572 1.17662L10.9052 6.39252C10.8462 6.46664 10.8049 6.55326 10.7843 6.64572L10.0335 10.0276C9.93147 10.4875 10.3565 10.8901 10.8102 10.7633L14.2782 9.79336C14.4049 9.75799 14.5171 9.68339 14.5988 9.58035L18.8651 4.20148C19.0789 3.93182 19.0339 3.53984 18.7644 3.32574ZM13.8123 8.69811L11.3997 9.37929L11.9057 7.00539L15.6151 2.31185L17.6297 3.88491L13.8123 8.69811ZM1.13038 12.8728L1.13084 18.5112C1.13127 18.7987 1.3636 19.0311 1.65112 19.0315L18.3158 19.0306C18.4533 19.031 18.5863 18.9754 18.6833 18.8783C18.7804 18.7813 18.8361 18.6483 18.8356 18.5108L18.8347 12.8728C18.8347 12.7283 18.7767 12.5986 18.6824 12.5043C18.5881 12.41 18.4579 12.3516 18.3144 12.3516L1.6511 12.352C1.51309 12.352 1.38062 12.4072 1.2831 12.5047C1.18558 12.6022 1.13082 12.7342 1.13036 12.8727H1.13038V12.8728ZM17.7331 17.9281L16.6831 17.9285V16.5865C16.6831 16.443 16.6247 16.3128 16.5304 16.2185C16.4361 16.1242 16.3059 16.0658 16.1624 16.0658C15.8749 16.0662 15.6426 16.2985 15.6421 16.586V17.9281L14.7317 17.9285V16.5865C14.7317 16.443 14.6733 16.3128 14.579 16.2185C14.4847 16.1242 14.3545 16.0658 14.211 16.0657C13.9235 16.0662 13.6912 16.2985 13.6902 16.5865V17.9285L12.7804 17.9285L12.7803 15.3012C12.7804 15.1577 12.7219 15.0275 12.6276 14.9332C12.5333 14.8389 12.4032 14.7805 12.2596 14.7805C11.9721 14.7809 11.7394 15.0137 11.7389 15.3012V17.9285H10.829V16.5865C10.829 16.443 10.7706 16.3127 10.6763 16.2184C10.5819 16.1241 10.4518 16.0657 10.3082 16.0657C10.0207 16.0662 9.78797 16.299 9.78752 16.5865V17.9285H8.8766V16.5856C8.8766 16.442 8.81773 16.3114 8.72389 16.2175C8.63004 16.1237 8.49986 16.0653 8.35634 16.0653C8.06838 16.0653 7.83558 16.298 7.8356 16.586V17.929H6.92476L6.92522 15.3012C6.92522 15.1576 6.86728 15.0279 6.77298 14.9336C6.67868 14.8393 6.54893 14.7813 6.40541 14.7813C6.11745 14.7814 5.88469 15.0141 5.88512 15.3016L5.88467 17.9294L4.97336 17.9299V16.5869C4.97336 16.4434 4.91542 16.3137 4.82112 16.2194C4.7268 16.1251 4.59707 16.0671 4.45355 16.0671C4.16557 16.0671 3.93281 16.2999 3.93281 16.5879L3.93236 17.9304L2.23473 17.9308V13.4573L17.7322 13.4545L17.7331 17.9281ZM1.12108 11.2795V11.2436C1.11788 11.2247 1.11621 11.2052 1.11621 11.1853V1.27211C1.11621 1.10034 1.24068 0.961087 1.39423 0.961087H1.95022C2.10377 0.961087 2.22824 1.10034 2.22824 1.27211V9.52695L5.11923 6.68598C5.21805 6.58887 5.36624 6.57944 5.45025 6.66492L5.92553 7.14857C6.00952 7.23405 5.9975 7.38208 5.8987 7.47918L2.9309 10.3956H9.06206C9.20187 10.3956 9.31516 10.4977 9.31516 10.6237V11.2795C9.31516 11.4055 9.20185 11.5077 9.06206 11.5077H1.37418C1.23439 11.5077 1.12108 11.4055 1.12108 11.2795Z" fill="#00F7FF"/>
</svg>
