<svg width="20" height="20" viewBox="0 0 20 20" fill="none" xmlns="http://www.w3.org/2000/svg">
<rect opacity="0.01" x="1.81787" y="1.81824" width="15.7576" height="15.7576" fill="#FFF"/>
<path fill-rule="evenodd" clip-rule="evenodd" d="M15.5282 9.09951L17.2285 9.10116C17.6034 9.1005 17.9394 9.35963 17.9749 9.74087C18.0301 10.1335 17.782 10.4826 17.4322 10.5764C17.37 10.593 17.3057 10.6019 17.2393 10.6031L15.5488 10.6071L16.0032 11.059C16.275 11.327 16.3194 11.7724 16.0744 12.0709C15.9749 12.1973 15.8397 12.2834 15.692 12.323C15.4432 12.3896 15.1689 12.3301 14.9744 12.1328L13.4504 10.6124L12.0175 10.6139C11.6251 10.6109 11.3801 11.0341 11.5789 11.3715L12.2758 12.5732L14.3856 13.1386C14.8346 13.2594 15.0749 13.752 14.8595 14.1922C14.7027 14.5086 14.3264 14.6593 13.9852 14.5678L13.3304 14.3941L14.1721 15.8562C14.3688 16.186 14.3038 16.6274 13.9893 16.853C13.912 16.907 13.8229 16.9475 13.7374 16.9704C13.4186 17.0558 13.0728 16.9157 12.902 16.6206L12.0603 15.1584L11.8834 15.8044C11.8115 16.0648 11.6058 16.2612 11.357 16.3279C11.2093 16.3674 11.0569 16.3584 10.8998 16.3007C10.5383 16.1648 10.3561 15.7647 10.4554 15.3889L11.0057 13.3375L10.2906 12.0992C10.0918 11.7617 9.60195 11.7682 9.40828 12.1028L8.70764 13.3132L9.2709 15.4153C9.38314 15.8342 9.1071 16.2656 8.6691 16.3414C8.28552 16.4026 7.92403 16.142 7.82427 15.7696L7.65383 15.1336L6.788 16.6293C6.68547 16.8064 6.52536 16.9241 6.33876 16.9741C6.16772 17.02 5.98005 17.0037 5.80685 16.9171C5.42312 16.729 5.30564 16.2284 5.5221 15.8544L6.34806 14.4276L5.70275 14.6005C5.28292 14.713 4.85092 14.438 4.77548 14.001C4.71459 13.6182 4.97615 13.2571 5.34934 13.1571L7.40186 12.6072L8.11959 11.3673C8.31896 11.0229 8.07401 10.6063 7.68158 10.6034L6.28967 10.6022L4.74529 12.1467C4.65307 12.238 4.53699 12.3023 4.41259 12.3357C4.15602 12.4044 3.86982 12.3314 3.67114 12.1186C3.39879 11.8175 3.43997 11.3492 3.72232 11.0657L4.18911 10.5997L2.49653 10.596C2.11187 10.591 1.76177 10.3107 1.73198 9.9196C1.68972 9.48198 2.03888 9.10574 2.47227 9.10601L4.16277 9.10199L3.68658 8.63099C3.38105 8.33042 3.40199 7.81766 3.74292 7.53509C4.04136 7.28053 4.48721 7.32735 4.7611 7.60314L6.26903 9.09465L7.70189 9.09316C8.09432 9.09608 8.33926 8.67296 8.1405 8.33546L7.44353 7.1338L5.3338 6.56842C4.88479 6.44763 4.64446 5.95499 4.85984 5.51484C5.01672 5.19845 5.39299 5.04775 5.73415 5.13924L6.389 5.31295L5.52337 3.82393C5.30645 3.44973 5.45078 2.96211 5.85968 2.77772C6.21624 2.61567 6.63469 2.77791 6.83137 3.10764L7.64149 4.54503L7.81838 3.89903C7.93477 3.49372 8.3623 3.25446 8.77244 3.38567C9.15509 3.50761 9.35339 3.93668 9.2484 4.32231L8.7038 6.36379L9.41685 7.5944C9.61561 7.93189 10.1055 7.92534 10.2992 7.59077L10.9998 6.38043L10.4365 4.2783C10.3243 3.85943 10.6003 3.42797 11.0383 3.35217C11.4219 3.29096 11.7834 3.5516 11.8832 3.92393L12.0536 4.56L12.9194 3.0643C13.1302 2.70021 13.6065 2.58089 13.9696 2.81617C14.3108 3.03235 14.3868 3.50251 14.1874 3.84691L13.3615 5.27374L14.0068 5.10083C14.4266 4.98833 14.8586 5.26333 14.934 5.70038C14.9949 6.08313 14.7334 6.4442 14.3602 6.54419L12.3077 7.09417L11.5899 8.33403C11.3906 8.67843 11.6355 9.095 12.0279 9.09793L13.4142 9.10894L14.9585 7.56443C15.2678 7.25709 15.7816 7.27739 16.0643 7.61732C16.319 7.91488 16.2716 8.35991 15.995 8.63357L15.5282 9.09951ZM10.0896 10.6649C10.5483 10.542 10.8217 10.0696 10.6991 9.61196C10.5765 9.1543 10.1035 8.88197 9.6448 9.00488C9.18609 9.12779 8.91267 9.60011 9.0353 10.0578C9.15793 10.5154 9.63088 10.7878 10.0896 10.6649Z" fill="#FFF"/>
</svg>
