<svg width="20" height="20" viewBox="0 0 20 20" fill="none" xmlns="http://www.w3.org/2000/svg">
<path fill-rule="evenodd" clip-rule="evenodd" d="M15.6059 2.99816C15.6059 2.99816 15.0077 2.21796 13.9406 1.6502C12.8735 1.08244 11.6779 0.846172 10.2549 1.10399C9.23962 1.28794 8.29553 1.80125 7.47198 2.55054C6.8231 3.14091 6.43757 3.89292 6.43757 3.89292C5.50234 3.39176 4.69839 3.62043 4.33374 3.72414L4.3337 3.72415C4.3045 3.73246 4.27812 3.73996 4.25471 3.74623C3.93901 3.8307 3.52588 4.13066 3.24374 4.43668C2.80789 4.90943 2.56158 5.51935 2.54627 6.16043C1.92271 6.3646 1.3597 6.73338 0.91979 7.23324C0.326679 7.90712 -0.000307838 8.77374 2.17467e-07 9.67098C2.17467e-07 11.7078 1.66051 13.3649 3.70155 13.3649H16.1604C17.1337 13.3649 18.0551 12.9826 18.7547 12.2884C19.4593 11.5894 19.8473 10.6627 19.8473 9.67918C19.8473 8.71031 19.4731 7.79519 18.7935 7.10234C18.2688 6.56742 17.6069 6.21024 16.8856 6.06464C16.7827 4.93617 16.3385 3.86951 15.6059 2.99816ZM4.0625 12.0001H3.70152C2.41398 12.0001 1.36646 10.9553 1.36646 9.671C1.36646 8.51272 2.23095 7.52095 3.37728 7.36406C3.56883 7.33783 3.74029 7.23177 3.84915 7.07217C3.95801 6.91258 3.99408 6.71439 3.94841 6.52674C3.92426 6.42768 3.91202 6.32609 3.91195 6.22414C3.91195 5.90333 4.03162 5.5969 4.24891 5.36121C4.4651 5.12674 4.75812 4.98238 5.07409 4.95475C5.11371 4.95117 5.15087 4.94954 5.18804 4.94959C5.57357 4.94959 5.9345 5.12102 6.17826 5.41996C6.335 5.61209 6.58368 5.70426 6.82796 5.66077C7.07224 5.61726 7.2737 5.44489 7.35424 5.21047C7.93734 3.51345 9.53696 2.37328 11.3346 2.37328C11.9328 2.37328 12.5104 2.49581 13.0513 2.73746C13.5744 2.97113 14.0376 3.30385 14.4279 3.7264C15.1466 4.50426 15.5422 5.5153 15.5422 6.57351C15.5422 6.59434 15.5427 6.61468 15.5432 6.63491C15.5361 7.03554 15.9031 7.35397 16.2785 7.36406C16.3413 7.36574 16.4009 7.36085 16.4588 7.3561C16.5548 7.34821 16.6463 7.3407 16.7406 7.36406C17.1426 7.46366 17.5068 7.74085 17.8173 8.05743C18.2452 8.49362 18.4808 9.06955 18.4808 9.67916C18.4809 10.2965 18.2361 10.8792 17.7917 11.3202C17.3498 11.7586 16.7704 12.0001 16.1603 12.0001H15.9375V13.3624H4.0625V12.0001Z" fill="#FFF"/>
<path d="M9.27792 13.38L4.10785 13.3621C3.90157 13.3621 3.70374 13.2868 3.55788 13.1528C3.41202 13.0189 3.33008 12.8372 3.33008 12.6478C3.33008 12.4583 3.41202 12.2766 3.55788 12.1427C3.70374 12.0087 3.90157 12 4.10785 12L9.27792 11.9514C9.58733 11.9514 9.88408 11.8385 10.1029 11.6376C10.3217 11.4367 10.4446 11.1642 10.4446 10.88C10.4446 10.5958 10.3217 10.3233 10.1029 10.1224C9.88408 9.92146 9.58733 9.80858 9.27792 9.80858C9.07164 9.80858 8.87381 9.73332 8.72795 9.59937C8.58209 9.46541 8.50015 9.28373 8.50015 9.09429C8.50015 8.90485 8.58209 8.72317 8.72795 8.58921C8.87381 8.45526 9.07164 8.38 9.27792 8.38C9.99989 8.38 10.6923 8.64339 11.2028 9.11223C11.7133 9.58108 12.0001 10.217 12.0001 10.88C12.0001 11.543 11.7133 12.1789 11.2028 12.6478C10.6923 13.1166 9.99989 13.38 9.27792 13.38Z" fill="#FFF"/>
<rect x="3.125" y="12" width="1.875" height="1.3625" rx="0.68125" fill="#FFF"/>
<rect x="15" y="12" width="1.875" height="1.3625" rx="0.68125" fill="#FFF"/>
<path d="M16.375 14H1.75C1.55109 14 1.36032 14.0753 1.21967 14.2092C1.07902 14.3432 1 14.5248 1 14.7143C1 14.9037 1.07902 15.0854 1.21967 15.2194C1.36032 15.3533 1.55109 15.4286 1.75 15.4286H16.375C16.6734 15.4286 16.9595 15.5415 17.1705 15.7424C17.3815 15.9433 17.5 16.2158 17.5 16.5C17.5 16.7842 17.3815 17.0567 17.1705 17.2576C16.9595 17.4585 16.6734 17.5714 16.375 17.5714C16.1761 17.5714 15.9853 17.6467 15.8447 17.7806C15.704 17.9146 15.625 18.0963 15.625 18.2857C15.625 18.4752 15.704 18.6568 15.8447 18.7908C15.9853 18.9247 16.1761 19 16.375 19C17.0712 19 17.7389 18.7366 18.2312 18.2678C18.7234 17.7989 19 17.163 19 16.5C19 15.837 18.7234 15.2011 18.2312 14.7322C17.7389 14.2634 17.0712 14 16.375 14Z" fill="#FFF"/>
</svg>
