<svg width="20" height="20" viewBox="0 0 20 20" fill="none" xmlns="http://www.w3.org/2000/svg">
<path fill-rule="evenodd" clip-rule="evenodd" d="M15.6059 4.99816C15.6059 4.99816 15.0077 4.21796 13.9406 3.6502C12.8735 3.08244 11.6779 2.84617 10.2549 3.10399C9.23962 3.28794 8.29553 3.80125 7.47198 4.55054C6.8231 5.14091 6.43757 5.89292 6.43757 5.89292C5.50234 5.39176 4.69839 5.62043 4.33374 5.72414L4.3337 5.72415C4.3045 5.73246 4.27812 5.73996 4.25471 5.74623C3.93901 5.8307 3.52588 6.13066 3.24374 6.43668C2.80789 6.90943 2.56158 7.51935 2.54627 8.16043C1.92271 8.3646 1.3597 8.73338 0.91979 9.23324C0.326679 9.90712 -0.000307838 10.7737 2.17467e-07 11.671C2.17467e-07 13.7078 1.66051 15.3649 3.70155 15.3649H16.1604C17.1337 15.3649 18.0551 14.9826 18.7547 14.2884C19.4593 13.5894 19.8473 12.6627 19.8473 11.6792C19.8473 10.7103 19.4731 9.79519 18.7935 9.10234C18.2688 8.56742 17.6069 8.21024 16.8856 8.06464C16.7827 6.93617 16.3385 5.86951 15.6059 4.99816ZM4.0625 14.0001H3.70152C2.41398 14.0001 1.36646 12.9553 1.36646 11.671C1.36646 10.5127 2.23095 9.52095 3.37728 9.36406C3.56883 9.33783 3.74029 9.23177 3.84915 9.07217C3.95801 8.91258 3.99408 8.71439 3.94841 8.52674C3.92426 8.42768 3.91202 8.32609 3.91195 8.22414C3.91195 7.90333 4.03162 7.5969 4.24891 7.36121C4.4651 7.12674 4.75812 6.98238 5.07409 6.95475C5.11371 6.95117 5.15087 6.94954 5.18804 6.94959C5.57357 6.94959 5.9345 7.12102 6.17826 7.41996C6.335 7.61209 6.58368 7.70426 6.82796 7.66077C7.07224 7.61726 7.2737 7.44489 7.35424 7.21047C7.93734 5.51345 9.53696 4.37328 11.3346 4.37328C11.9328 4.37328 12.5104 4.49581 13.0513 4.73746C13.5744 4.97113 14.0376 5.30385 14.4279 5.7264C15.1466 6.50426 15.5422 7.5153 15.5422 8.57351C15.5422 8.59434 15.5427 8.61468 15.5432 8.63491C15.5361 9.03554 15.9031 9.35397 16.2785 9.36406C16.3413 9.36574 16.4009 9.36085 16.4588 9.3561C16.5548 9.34821 16.6463 9.3407 16.7406 9.36406C17.1426 9.46366 17.5068 9.74085 17.8173 10.0574C18.2452 10.4936 18.4808 11.0696 18.4808 11.6792C18.4809 12.2965 18.2361 12.8792 17.7917 13.3202C17.3498 13.7586 16.7704 14.0001 16.1603 14.0001H15.9375V15.3624H4.0625V14.0001Z" fill="#FFF"/>
<rect x="3.125" y="14" width="1.875" height="1.3625" rx="0.68125" fill="#FFF"/>
<rect x="15" y="14" width="1.875" height="1.3625" rx="0.68125" fill="#FFF"/>
<rect x="5.625" y="10.875" width="8.125" height="1.3625" rx="0.681251" fill="#FFF"/>
<rect x="5.625" y="13.375" width="8.125" height="1.3625" rx="0.681251" fill="#FFF"/>
<rect x="5.625" y="15.875" width="8.125" height="1.3625" rx="0.68125" fill="#FFF"/>
</svg>
