<svg width="20" height="20" viewBox="0 0 20 20" fill="none" xmlns="http://www.w3.org/2000/svg">
<g clip-path="url(#clip0_2337_7718)">
<path fill-rule="evenodd" clip-rule="evenodd" d="M10.0001 1.38555C14.7471 1.38555 18.6146 5.25305 18.6146 10.0001C18.6146 14.7471 14.7471 18.6146 10.0001 18.6146C5.25305 18.6146 1.3735 14.7471 1.3735 10.0001C1.3735 5.25305 5.241 1.38555 10.0001 1.38555ZM10.0001 0C4.48196 0 0 4.48196 0 10.0001C0 15.5182 4.46991 20.0001 10.0001 20.0001C15.5182 20.0001 20.0001 15.5302 20.0001 10.0001C20.0001 4.48196 15.5182 0 10.0001 0ZM9.31332 8.55422L7.87957 7.12046C7.61451 6.8554 7.16872 6.8554 6.90366 7.12046C6.6386 7.38552 6.6386 7.83131 6.90366 8.09637L9.31332 10.506V11.9637C9.31332 12.3372 9.61453 12.6505 10.0001 12.6505C10.3736 12.6505 10.6868 12.3372 10.6868 11.9517V11.8523C10.7922 11.9173 10.9114 11.9518 11.0362 11.9518C11.2169 11.9518 11.3977 11.8795 11.5302 11.747C11.7953 11.4819 11.7953 11.0362 11.5302 10.7711L10.6868 9.92772V5.16849C10.6868 4.79499 10.3856 4.48174 10.0001 4.48174C9.62658 4.48174 9.31332 4.78295 9.31332 5.16849V8.55422ZM3.30121 10.6868H2.26506C1.87952 10.6868 1.57831 10.3736 1.57831 10.0001C1.57831 9.61454 1.89157 9.31333 2.26506 9.31333H3.30121C3.68676 9.31333 3.98796 9.62659 3.98796 10.0001C3.98796 10.3736 3.68676 10.6868 3.30121 10.6868ZM16.7109 10.6868H17.735C18.1206 10.6868 18.4338 10.3736 18.4338 10.0001C18.4338 9.62659 18.1326 9.31333 17.7471 9.31333H16.7109C16.3374 9.31333 16.0242 9.61454 16.0242 10.0001C16.0242 10.3736 16.3254 10.6868 16.7109 10.6868ZM9.98803 3.96388C9.60249 3.96388 9.30128 3.65062 9.30128 3.27713V2.24098C9.30128 1.85543 9.61453 1.55423 9.98803 1.55423C10.3736 1.55423 10.6748 1.86748 10.6748 2.24098V3.27713C10.6748 3.65062 10.3615 3.96388 9.98803 3.96388ZM9.30128 17.7591C9.30128 18.1326 9.60249 18.4458 9.98803 18.4458C10.3615 18.4458 10.6748 18.1326 10.6748 17.7591V16.7229C10.6748 16.3494 10.3736 16.0362 9.98803 16.0362C9.61453 16.0362 9.30128 16.3374 9.30128 16.7229V17.7591Z" fill="#00F7FF"/>
</g>
<defs>
<clipPath id="clip0_2337_7718">
<rect width="20" height="20" fill="white"/>
</clipPath>
</defs>
</svg>
