<svg width="120" height="40" viewBox="0 0 120 40" fill="none" xmlns="http://www.w3.org/2000/svg">
<path d="M0.472656 1.89852L3.30267 0.833008L10.2886 7.68957L7.50063 8.75014L0.472656 1.89852Z" fill="white"/>
<path d="M11.8746 0.68457H15.0357V10.6849H26.8902V13.601H20.3983L20.3176 22.7668H26.4499V25.6928H17.3011L17.2574 13.6093L10.5016 13.5829L3.33585 25.6483L0.223511 25.1666L7.06999 13.6159L0 13.6357V10.6849H11.9217L11.8746 0.68457Z" fill="white"/>
<path d="M16.7793 7.72421L23.8678 0.833008L26.77 1.91996L19.7505 8.82601L16.7793 7.72421Z" fill="white"/>
<path d="M31.1084 2.86342L33.1603 0.833008L34.6106 7.55102L32.7637 9.69194L31.1084 2.86342Z" fill="white"/>
<path d="M35.8303 0.988281H38.9258V10.5548H43.3843V13.1064H41.3139V20.8487L43.0129 19.7898L43.6128 22.3596L38.3427 25.693V13.0454H36.4151L33.7431 25.693L31.3382 24.1657L33.6187 13.0454H31.2139V10.5433L35.8068 10.5779L35.8303 0.988281Z" fill="white"/>
<path d="M41.6454 0.833008L40.1699 7.55597L42.0101 9.63916L43.6133 2.87992L41.6454 0.833008Z" fill="white"/>
<path d="M44.875 1.13281V5.90123H48.0126V3.88732H54.7817V5.90123H57.9411V1.13281H44.875Z" fill="white"/>
<path d="M49.8985 5.76367L49.0969 7.52193H44.8754V10.2533H47.7289L44.5225 16.874H49.8985V19.9997H44.8754V22.708H49.8985V25.6934H53.1537V22.7773H58.0121V19.9997H53.1537V16.9202H57.5415V14.1657H53.9082V11.7345H50.89V14.1657L48.7675 14.2119L49.8985 11.7345L50.7018 10.2533H57.8474V7.45266H51.574L49.8985 5.76367Z" fill="white"/>
<path d="M64.073 1.13281H67.0912V6.73418H68.8843V9.32704H67.1382V20.2758L68.2945 19.7199L69.1196 22.4447L62.6815 25.6924L62.1387 22.8686L64.0259 21.8955L64.0965 9.35013L62.3034 9.37322V6.64182H64.0965L64.073 1.13281Z" fill="white"/>
<path d="M83.2007 0.324219L83.3653 1.59756H85.5349V4.35206H83.7653L84.898 13.4139L87.6574 7.40675L89.5917 9.6054L85.8408 17.7073L89.5917 23.0777L88.0826 25.6937L84.4728 20.6712L82.2562 25.6937L80.2984 23.3334L82.6578 18.3324L80.8882 4.30588L73.7191 4.28278V8.98028L79.4027 8.9341V24.097H74.8753V21.3656H76.408V11.5039L73.7191 11.55V21.7582L72.257 25.6937L69.3564 25.0224L70.558 21.8967V1.59756L80.5589 1.62065L83.2007 0.324219Z" fill="white"/>
<path d="M88.6964 0L86.5957 2.52193L87.5402 6.94233L89.7333 4.51276L88.6964 0Z" fill="white"/>
<path d="M120 2.84615H109.449L108.53 0.324219L105.394 0.855326L106.055 2.84615H94.333V5.74085H105.653V9.28212H94.9699V24.3972H98.0352V11.9904L105.653 12.0135V25.6475H108.791V12.2214L116.313 11.9673V21.8275H114.333V24.4434H119.403V9.25903H108.999L108.908 5.67158H120V2.84615Z" fill="white"/>
<path d="M9.29819 29.8594H0.594727V35.6933H7.70673V38.2977H0.594727V39.9999H9.45112V34.0142L2.41138 34.0373L2.44667 31.4214L9.29819 31.3521V29.8594Z" fill="white"/>
<path d="M13.1529 39.9999H11.3379V29.8594H13.1529V33.8757H18.0835V29.8594H19.9456V39.9999H18.1071L18.1188 35.4376L13.1646 35.4146L13.1529 39.9999Z" fill="white"/>
<path d="M21.7949 29.8594H30.0211V31.3785H23.6435V34.0175H28.428L28.4465 35.6933H23.6435L23.6351 38.4363H30.0211V39.9999H21.7949V29.8594Z" fill="white"/>
<path d="M31.125 29.8594H39.2V31.3785H32.8324V33.9994H37.7581V35.6752H32.8408V38.4445H39.2V39.9999H31.125V29.8594Z" fill="white"/>
<path d="M40.3242 29.8594H41.7392L47.0799 36.6829V29.8594H48.7958V39.9999H47.4782L42.04 32.9405V39.9999H40.3242V29.8594Z" fill="white"/>
<path d="M50.9366 29.8594H58.7427V31.3752H52.7751V38.4692H58.7427V39.9982C58.7427 39.9982 50.9014 39.9982 50.9366 39.9982C50.9719 39.9982 50.9366 29.8594 50.9366 29.8594Z" fill="white"/>
<path d="M62.1292 29.8594H60.3125V39.9999H62.1292V29.8594Z" fill="white"/>
<path d="M63.2363 29.8594H72.1868V31.3752H68.6258V39.9999H66.915V31.3867H63.2363V29.8594Z" fill="white"/>
<path d="M73.0254 29.8594H74.9479L77.7662 34.5816L80.7609 29.8594H82.6599L78.6737 36.1436V39.9999H76.8688V36.0743L73.0254 29.8594Z" fill="white"/>
<path d="M86.1728 37.6611H83.9326V39.8482H86.1728V37.6611Z" fill="white"/>
<path d="M88.3057 29.8359H96.2058V31.3979H90.1694V38.459H96.2058V39.9995H88.3057V29.8359Z" fill="white"/>
<path d="M97.7061 29.8359V39.9765H106.894V29.8359H97.7061ZM105.169 38.459H99.5563L99.5681 31.3996L105.205 31.4573L105.169 38.459Z" fill="white"/>
<path d="M108.866 29.8359V39.9765H110.441V33.3657L114.103 39.0083L117.781 33.3145V39.9765L119.373 39.9995V29.8359H118.012L114.155 36.2257L110.3 29.8359H108.866Z" fill="white"/>
</svg>
