<svg width="30" height="30" viewBox="0 0 30 30" fill="none" xmlns="http://www.w3.org/2000/svg">
<path d="M11.2639 27.9995C11.0919 27.9986 10.9231 27.9523 10.7739 27.865C10.6247 27.7778 10.5002 27.6526 10.4125 27.5016C10.3247 27.3506 10.2768 27.179 10.2733 27.0035C10.2698 26.8279 10.3109 26.6545 10.3926 26.5C10.3926 26.5 10.7411 25.8392 11.0399 25.0768C11.3386 24.3143 11.3884 24.0348 11.4631 23.7552H11.2888C10.766 23.8569 10.1686 23.9839 9.49644 23.9839C8.82431 23.9839 7.85345 23.806 6.95728 23.2215C6.0611 22.6369 5.63791 21.6458 5.31429 19.9684C5.09024 18.8755 5.01556 17.7319 5.01556 17.0456C4.96577 16.9948 4.8662 16.8932 4.61726 16.7661C4.36832 16.639 3.99492 16.4357 3.6713 16.2832L2.82491 15.8766C2.62576 15.7495 2.0532 15.4191 2.00341 14.7075C1.95363 13.9959 2.4515 13.5892 3.29789 12.7505C3.72108 12.3439 4.19407 11.8864 4.54258 11.4544C4.89109 11.0223 5.01556 10.6665 5.01556 10.6411C4.99067 9.70073 5.18982 8.70955 5.56323 7.71836C5.97794 6.64829 6.59549 5.67234 7.38047 4.84647C8.65006 3.55031 10.9403 2 14.749 2C17.4376 2 19.7527 3.37241 21.3708 6.01556C22.5657 7.92168 22.964 9.80239 22.9889 9.87863C23.0266 10.1339 22.9677 10.3943 22.8242 10.6069C22.6807 10.8195 22.4634 10.9684 22.2163 11.0234C21.9692 11.0784 21.7109 11.0353 21.4937 10.903C21.2766 10.7706 21.1169 10.5588 21.0472 10.3107C21.0472 10.2853 20.6738 8.6333 19.6531 7.03216C18.4084 5.04979 16.7405 4.0332 14.749 4.0332C12.2845 4.0332 10.2433 4.82106 8.84921 6.29513C7.45515 7.76919 7.03196 9.47199 7.05685 10.6157C7.08175 11.7593 5.83706 13.1572 4.71684 14.25L4.49279 14.4787H4.51769C4.99067 14.6821 5.48854 14.9362 5.93663 15.2412C6.63366 15.7241 7.00706 16.3086 7.00706 16.9694C7.00706 17.6302 7.05685 18.5451 7.2809 19.6126C7.60452 21.2137 8.00282 21.5187 8.0526 21.5441C9.02346 22.1795 9.94453 21.9761 10.9154 21.7728L11.6622 21.6458C12.3094 21.5441 12.8571 21.7728 13.2056 22.2557C13.5541 22.7386 13.6039 23.9585 13.0065 25.5851C12.7649 26.2179 12.4907 26.8372 12.185 27.4404C12.0996 27.6135 11.9676 27.7581 11.8044 27.8572C11.6412 27.9563 11.4537 28.0056 11.2639 27.9995V27.9995Z" fill="#00F7FF"/>
<path d="M26.9697 16H22.797C22.5252 15.996 22.266 15.8835 22.0758 15.6869L18.4955 12.0869H13.5758C13.3025 12.0869 13.0404 11.977 12.8472 11.7813C12.654 11.5856 12.5455 11.3202 12.5455 11.0435C12.5455 10.7667 12.654 10.5013 12.8472 10.3056C13.0404 10.1099 13.3025 10 13.5758 10H18.9333C19.2051 10.0039 19.4643 10.1164 19.6545 10.313L23.2348 13.913H26.9697C27.2429 13.913 27.505 14.023 27.6982 14.2186C27.8915 14.4143 28 14.6798 28 14.9565C28 15.2332 27.8915 15.4987 27.6982 15.6943C27.505 15.89 27.2429 16 26.9697 16V16ZM19.2939 21.9999H14.7606C14.4874 21.9999 14.2253 21.89 14.0321 21.6943C13.8389 21.4986 13.7303 21.2332 13.7303 20.9565C13.7303 20.6797 13.8389 20.4143 14.0321 20.2186C14.2253 20.0229 14.4874 19.913 14.7606 19.913H18.8561L20.9939 17.7478C21.1842 17.5512 21.4434 17.4387 21.7152 17.4347H25.5273C25.8005 17.4347 26.0626 17.5447 26.2558 17.7404C26.449 17.9361 26.5576 18.2015 26.5576 18.4782C26.5576 18.755 26.449 19.0204 26.2558 19.2161C26.0626 19.4118 25.8005 19.5217 25.5273 19.5217H22.1788L20.0409 21.6869C19.9437 21.7874 19.8274 21.8669 19.699 21.9207C19.5706 21.9745 19.4329 22.0015 19.2939 21.9999V21.9999ZM17.0273 17.0956H12.0303C11.7571 17.0956 11.495 16.9857 11.3018 16.79C11.1085 16.5943 11 16.3289 11 16.0521C11 15.7754 11.1085 15.51 11.3018 15.3143C11.495 15.1186 11.7571 15.0087 12.0303 15.0087H17.0273C17.3005 15.0087 17.5626 15.1186 17.7558 15.3143C17.949 15.51 18.0576 15.7754 18.0576 16.0521C18.0576 16.3289 17.949 16.5943 17.7558 16.79C17.5626 16.9857 17.3005 17.0956 17.0273 17.0956Z" fill="#00F7FF"/>
</svg>
