<svg width="30" height="30" viewBox="0 0 30 30" fill="none" xmlns="http://www.w3.org/2000/svg">
<path d="M25.8845 22.9768V21.8441C25.8845 19.5361 24.027 17.6581 21.7435 17.6581H21.4763C19.1928 17.6581 17.3351 19.5361 17.3351 21.8441V24.8145C17.3351 26.0796 16.3162 27.1098 15.064 27.1098H14.7969C13.5449 27.1098 12.5259 26.0796 12.5259 24.8145V19.2503H13.2998V18.4066C17.9684 17.968 18.9266 12.2013 19.6285 7.96437C19.6839 7.63052 19.7378 7.30318 19.7926 6.98555C20.1205 5.07928 19.8769 3.60373 19.0682 2.59834C18.1789 1.49227 16.9707 1.42086 16.8357 1.41641L15.3924 1.41593C15.2697 1.28451 15.1222 1.17987 14.9586 1.10836C14.795 1.03686 14.6189 0.999992 14.4409 1C13.7144 1 13.1256 1.59502 13.1256 2.32922C13.1256 3.06342 13.7144 3.65844 14.4409 3.65844C14.7833 3.65844 15.0924 3.52293 15.3263 3.30614H16.7791C16.8337 3.31202 17.2825 3.37405 17.6172 3.79062C18.0628 4.3446 18.1779 5.33711 17.9501 6.66155C17.8948 6.983 17.8397 7.31431 17.7838 7.65167C16.9975 12.3995 16.1555 16.0852 13.2998 16.5037V15.7402H9.79298V16.5242C6.80957 16.2209 5.95117 12.4871 5.15007 7.65262C5.09417 7.31495 5.0392 6.98348 4.98376 6.66155C4.75952 5.35667 4.86836 4.37196 5.29842 3.814C5.63791 3.37357 6.10467 3.31202 6.15589 3.30614H7.60785C7.84162 3.52293 8.15082 3.65844 8.49343 3.65844C9.21972 3.65844 9.80844 3.06342 9.80844 2.32922C9.80844 1.59502 9.21972 1.00048 8.49343 1.00048C8.31548 1.00036 8.13938 1.03714 7.97583 1.10856C7.81228 1.17998 7.66471 1.28456 7.54211 1.41593H6.12919L6.09827 1.41641C5.96335 1.42086 4.75499 1.49275 3.86551 2.59834C3.05708 3.60373 2.81331 5.07976 3.14125 6.98555C3.19621 7.30366 3.2504 7.63115 3.30568 7.96485C4.01558 12.2496 4.98751 18.0973 9.79298 18.4187V19.2503H10.6559V24.8145C10.6559 27.122 12.5134 29 14.7969 29H15.064C17.3476 29 19.2053 27.122 19.2053 24.8145V21.8441C19.2053 20.5785 20.2241 19.5488 21.4763 19.5488H21.7435C22.9956 19.5488 24.0144 20.5785 24.0144 21.8441V22.9933C22.8121 23.3986 21.944 24.5433 21.944 25.8951C21.944 27.5855 23.2996 28.9555 24.9719 28.9555C26.6444 28.9555 28 27.5855 28 25.8951C28 24.5261 27.1108 23.3677 25.8845 22.9768V22.9768ZM24.9719 26.9076C24.4188 26.9076 23.97 26.4545 23.97 25.8951C23.97 25.5617 24.1313 25.2692 24.3768 25.0845H25.5674C25.8128 25.2692 25.9742 25.5617 25.9742 25.8951C25.9742 26.4545 25.5257 26.9076 24.9719 26.9076Z" fill="#00F7FF"/>
</svg>
