<svg width="20" height="20" viewBox="0 0 20 20" fill="none" xmlns="http://www.w3.org/2000/svg">
<path d="M19.2308 9.23077C19.1985 9.23077 19.1715 9.24539 19.1408 9.24923C19.11 9.24539 19.0823 9.23077 19.0508 9.23077H10.7692V0.865385C10.7692 0.848462 10.7608 0.833846 10.7592 0.816923C10.7608 0.800769 10.7692 0.786154 10.7692 0.769231C10.7692 0.565218 10.6882 0.369561 10.5439 0.225302C10.3997 0.0810437 10.204 0 10 0C4.48615 0 0 4.48615 0 10C0 15.5138 4.48615 20 10 20C15.5138 20 20 15.5138 20 10C20 9.79599 19.919 9.60033 19.7747 9.45607C19.6304 9.31181 19.4348 9.23077 19.2308 9.23077ZM10 18.4615C5.33462 18.4615 1.53846 14.6654 1.53846 10C1.53846 5.59385 4.92462 1.96769 9.23077 1.57769V10C9.23077 10.204 9.31181 10.3997 9.45607 10.5439C9.60033 10.6882 9.79599 10.7692 10 10.7692H18.4223C18.0323 15.0754 14.4062 18.4615 10 18.4615ZM12.7323 1.98846C13.9229 2.4004 15.0076 3.07057 15.9087 3.95095C16.8098 4.83133 17.5051 5.90013 17.9446 7.08077C17.9777 7.1778 18.0299 7.26724 18.098 7.34383C18.1661 7.42042 18.2489 7.48262 18.3414 7.52677C18.434 7.57091 18.5344 7.59612 18.6368 7.6009C18.7392 7.60569 18.8415 7.58995 18.9378 7.55463C19.034 7.5193 19.1222 7.46509 19.1972 7.39519C19.2722 7.32529 19.3324 7.2411 19.3744 7.14758C19.4164 7.05405 19.4393 6.95308 19.4417 6.85059C19.4441 6.7481 19.426 6.64616 19.3885 6.55077C18.8776 5.15074 18.059 3.88323 16.993 2.84173C15.927 1.80022 14.6408 1.01128 13.2292 0.533077C13.0362 0.467181 12.825 0.480651 12.6419 0.570524C12.4588 0.660398 12.319 0.819312 12.2531 1.01231C12.1872 1.2053 12.2007 1.41657 12.2905 1.59964C12.3804 1.7827 12.5393 1.92257 12.7323 1.98846Z" fill="#00F7FF"/>
</svg>
