<svg width="20" height="20" viewBox="0 0 20 20" fill="none" xmlns="http://www.w3.org/2000/svg">
<path d="M17.7318 15.0152C17.258 15.0152 16.8056 15.2082 16.4762 15.5476L14.1936 14.232V9.54462L10.1459 7.20844V4.9716C10.5743 4.89307 10.9594 4.66082 11.2288 4.31847C11.4981 3.97612 11.6332 3.54721 11.6087 3.11228C11.5842 2.67736 11.4018 2.26634 11.0957 1.9564C10.7896 1.64647 10.3809 1.45894 9.9463 1.42903C9.51171 1.39912 9.08115 1.52888 8.73548 1.79396C8.3898 2.05904 8.15278 2.44119 8.06892 2.86865C7.98507 3.29612 8.06014 3.73949 8.28006 4.11552C8.49997 4.49155 8.84959 4.77436 9.26327 4.91085V7.19343L5.21481 9.54462V14.1634V14.1098L3.08516 15.3425C2.81008 15.0343 2.43557 14.8322 2.02687 14.7717C1.61816 14.7111 1.20116 14.7958 0.848497 15.0111C0.495829 15.2263 0.229841 15.5585 0.0968592 15.9496C-0.0361223 16.3408 -0.0276704 16.7663 0.120743 17.1518C0.269156 17.5374 0.548126 17.8588 0.909065 18.0598C1.27 18.2609 1.69004 18.329 2.09601 18.2522C2.50199 18.1755 2.86818 17.9587 3.1308 17.6398C3.39342 17.3208 3.53584 16.9199 3.53324 16.5067C3.5337 16.381 3.51858 16.2557 3.48822 16.1336L5.57999 14.9316L9.73494 17.3285L13.7748 15.0002L16.0574 16.3166C16.009 16.4717 15.9834 16.633 15.9817 16.7954C15.9815 17.1479 16.086 17.4924 16.2819 17.7854C16.4777 18.0784 16.7562 18.3067 17.0819 18.4413C17.4077 18.5759 17.766 18.6108 18.1116 18.5416C18.4572 18.4723 18.7744 18.3021 19.0231 18.0524C19.2719 17.8026 19.4409 17.4847 19.5087 17.1388C19.5766 16.793 19.5402 16.4348 19.4043 16.1096C19.2684 15.7844 19.039 15.5069 18.7452 15.3122C18.4514 15.1175 18.1064 15.0144 17.754 15.0159H17.7318V15.0152ZM6.54619 9.82619L9.70349 8.00027L12.8837 9.82619L9.72636 11.6521L6.54619 9.82619ZM13.3103 14.247L10.1444 16.0729V12.4211L13.3103 10.5873V14.2463V14.247Z" fill="white"/>
</svg>
