<svg width="20" height="20" viewBox="0 0 20 20" fill="none" xmlns="http://www.w3.org/2000/svg">
<path d="M10.125 9.90625H11.3338C11.3669 9.90625 11.3987 9.91942 11.4221 9.94286C11.4456 9.9663 11.4587 9.9981 11.4587 10.0312V11.24C11.4587 11.2732 11.4456 11.3049 11.4221 11.3284C11.3987 11.3518 11.3669 11.365 11.3338 11.365H10.125C10.0918 11.365 10.0601 11.3518 10.0366 11.3284C10.0132 11.3049 10 11.2732 10 11.24V10.0312C10 9.9981 10.0132 9.9663 10.0366 9.94286C10.0601 9.91942 10.0918 9.90625 10.125 9.90625V9.90625ZM13.0412 9.90625H14.25C14.2832 9.90625 14.3149 9.91942 14.3384 9.94286C14.3618 9.9663 14.375 9.9981 14.375 10.0312V11.24C14.375 11.2732 14.3618 11.3049 14.3384 11.3284C14.3149 11.3518 14.2832 11.365 14.25 11.365H13.0412C13.0081 11.365 12.9763 11.3518 12.9529 11.3284C12.9294 11.3049 12.9163 11.2732 12.9163 11.24V10.0312C12.9163 9.9981 12.9294 9.9663 12.9529 9.94286C12.9763 9.91942 13.0081 9.90625 13.0412 9.90625V9.90625ZM10.125 12.8225H11.3338C11.3669 12.8225 11.3987 12.8357 11.4221 12.8591C11.4456 12.8826 11.4587 12.9143 11.4587 12.9475V14.1562C11.4587 14.1894 11.4456 14.2212 11.4221 14.2446C11.3987 14.2681 11.3669 14.2812 11.3338 14.2812H10.125C10.0918 14.2813 10.0601 14.2681 10.0366 14.2446C10.0132 14.2212 10 14.1894 10 14.1562V12.9475C10 12.9143 10.0132 12.8826 10.0366 12.8591C10.0601 12.8357 10.0918 12.8225 10.125 12.8225V12.8225ZM13.0412 12.8225H14.25C14.2832 12.8225 14.3149 12.8357 14.3384 12.8591C14.3618 12.8826 14.375 12.9143 14.375 12.9475V14.1562C14.375 14.1894 14.3618 14.2212 14.3384 14.2446C14.3149 14.2681 14.2832 14.2812 14.25 14.2812H13.0412C13.0081 14.2813 12.9763 14.2681 12.9529 14.2446C12.9294 14.2212 12.9163 14.1894 12.9163 14.1562V12.9475C12.9163 12.9143 12.9294 12.8826 12.9529 12.8591C12.9763 12.8357 13.0081 12.8225 13.0412 12.8225V12.8225Z" fill="#00F7FF"/>
<path d="M18.3329 18.3142V7.09604C18.3329 6.9428 18.2727 6.79583 18.1655 6.68747C18.0583 6.57911 17.913 6.51823 17.7614 6.51823H11.6671V3.56417C11.6673 3.44268 11.6295 3.32425 11.5592 3.22571C11.4889 3.12716 11.3897 3.05352 11.2757 3.01525L2.41857 0.0294155C2.33265 0.000581526 2.24119 -0.00719956 2.15172 0.00671324C2.06224 0.020626 1.97732 0.0558346 1.90394 0.109439C1.83056 0.163043 1.77083 0.233508 1.72966 0.315031C1.68849 0.396553 1.66706 0.486799 1.66714 0.578336V18.3142H0.285714C0.209938 18.3142 0.137266 18.3447 0.0836837 18.3989C0.0301019 18.453 0 18.5265 0 18.6031V19.7111C0 19.87 0.128572 20 0.285714 20H19.7143C19.7901 20 19.8627 19.9696 19.9163 19.9154C19.9699 19.8612 20 19.7877 20 19.7111V18.6031C20 18.5265 19.9699 18.453 19.9163 18.3989C19.8627 18.3447 19.7901 18.3142 19.7143 18.3142H18.3329V18.3142ZM3.33286 18.3142V2.13554L10 4.41067V6.51823H7.23857C7.16353 6.51823 7.08922 6.53318 7.0199 6.56221C6.95057 6.59125 6.88757 6.63381 6.83451 6.68747C6.78145 6.74112 6.73936 6.80482 6.71064 6.87492C6.68192 6.94503 6.66714 7.02016 6.66714 7.09604V18.3142H3.33286V18.3142ZM8.33286 18.3142V8.20255H16.6671V18.3142H8.33286Z" fill="#00F7FF"/>
</svg>
