<svg width="20" height="20" viewBox="0 0 20 20" fill="none" xmlns="http://www.w3.org/2000/svg">
<path d="M3.37695 18.9844C2.07422 18.9844 1.01562 17.9258 1.01562 16.623V1.01562H15.3691V4.63086H18.9844V16.623C18.9844 17.9277 17.9258 18.9844 16.623 18.9844H3.37695ZM15.3691 16.623C15.3691 17.3711 15.873 17.875 16.6211 17.875C17.3691 17.875 17.873 17.3711 17.873 16.623V5.72656H15.3574L15.3691 16.623V16.623ZM2.125 16.623C2.125 17.3711 2.62891 17.875 3.37695 17.875H14.6719L14.6211 17.7969C14.375 17.4219 14.2734 17.0742 14.2734 16.623V2.11328H2.125V16.623ZM4.63086 14.1699V13.0723H9.3418V14.1699H4.63086V14.1699ZM4.63086 10.5547V9.45703H11.7559V10.5547H4.63086V10.5547ZM4.63086 6.94141V5.84375H11.7559V6.94141H4.63086V6.94141Z" fill="#00F7FF"/>
</svg>
