<svg width="20" height="20" viewBox="0 0 20 20" fill="none" xmlns="http://www.w3.org/2000/svg">
<g clip-path="url(#clip0_2030_8748)">
<path d="M7.92308 2H1V8.92308C1 9.2903 1.14588 9.64248 1.40554 9.90215C1.66521 10.1618 2.01739 10.3077 2.38462 10.3077H7.92308C8.2903 10.3077 8.64248 10.1618 8.90215 9.90215C9.16181 9.64248 9.30769 9.2903 9.30769 8.92308V3.38462C9.30769 3.01739 9.16181 2.66521 8.90215 2.40554C8.64248 2.14588 8.2903 2 7.92308 2ZM7.92308 8.92308H2.38462V3.38462H7.92308V8.92308ZM7.92308 11.6923H2.38462C2.01739 11.6923 1.66521 11.8382 1.40554 12.0979C1.14588 12.3575 1 12.7097 1 13.0769V20H7.92308C8.2903 20 8.64248 19.8541 8.90215 19.5945C9.16181 19.3348 9.30769 18.9826 9.30769 18.6154V13.0769C9.30769 12.7097 9.16181 12.3575 8.90215 12.0979C8.64248 11.8382 8.2903 11.6923 7.92308 11.6923ZM7.92308 18.6154H2.38462V13.0769H7.92308V18.6154ZM12.0769 2C11.7097 2 11.3575 2.14588 11.0979 2.40554C10.8382 2.66521 10.6923 3.01739 10.6923 3.38462V8.92308C10.6923 9.2903 10.8382 9.64248 11.0979 9.90215C11.3575 10.1618 11.7097 10.3077 12.0769 10.3077H17.6154C17.9826 10.3077 18.3348 10.1618 18.5945 9.90215C18.8541 9.64248 19 9.2903 19 8.92308V2H12.0769ZM17.6154 8.92308H12.0769V3.38462H17.6154V8.92308ZM17.6154 11.6923H12.0769C11.7097 11.6923 11.3575 11.8382 11.0979 12.0979C10.8382 12.3575 10.6923 12.7097 10.6923 13.0769V18.6154C10.6923 18.9826 10.8382 19.3348 11.0979 19.5945C11.3575 19.8541 11.7097 20 12.0769 20H19V13.0769C19 12.7097 18.8541 12.3575 18.5945 12.0979C18.3348 11.8382 17.9826 11.6923 17.6154 11.6923ZM17.6154 18.6154H12.0769V13.0769H17.6154V18.6154Z" fill="#00F7FF"/>
</g>
<defs>
<clipPath id="clip0_2030_8748">
<rect width="20" height="20" fill="white"/>
</clipPath>
</defs>
</svg>
