<svg width="20" height="20" viewBox="0 0 20 20" fill="none" xmlns="http://www.w3.org/2000/svg">
<g clip-path="url(#clip0_2125_12052)">
<path d="M2.86046 14C2.64619 14.0004 2.43949 13.9239 2.28087 13.7855C2.19746 13.7132 2.12978 13.6258 2.08173 13.5283C2.03369 13.4307 2.00623 13.325 2.00094 13.2172C1.99566 13.1095 2.01265 13.0017 2.05094 12.9003C2.08922 12.7989 2.14805 12.7057 2.22402 12.6262L6.69717 7.94539C6.94885 7.67985 7.29866 7.51947 7.67179 7.49856C8.04493 7.47764 8.41177 7.59785 8.69387 7.83347L12.1604 10.6942L16.5115 6.25986C16.6681 6.1009 16.8836 6.00769 17.1113 6.00045C17.3389 5.99322 17.5604 6.07255 17.7275 6.22122C17.81 6.29446 17.8764 6.38269 17.9231 6.4808C17.9698 6.57891 17.9958 6.68494 17.9995 6.79276C18.0033 6.90058 17.9847 7.00804 17.9449 7.10892C17.9051 7.2098 17.8449 7.30209 17.7677 7.38044L13.228 12.008C12.9746 12.2674 12.6266 12.4227 12.2568 12.4413C11.8871 12.4599 11.5241 12.3405 11.2438 12.1079L7.77733 9.24985L3.49414 13.7335C3.41316 13.818 3.31474 13.8853 3.20515 13.9312C3.09557 13.9771 2.97723 14.0005 2.85769 14H2.86046Z" fill="#00F7FF"/>
<rect x="0.75" y="2" width="18.5" height="16" stroke="#00F7FF" stroke-width="1.5"/>
</g>
<defs>
<clipPath id="clip0_2125_12052">
<rect width="20" height="20" fill="white"/>
</clipPath>
</defs>
</svg>
