<svg width="20" height="20" viewBox="0 0 20 20" fill="none" xmlns="http://www.w3.org/2000/svg">
<path d="M10 20C4.47715 20 0 15.5229 0 10C0 4.47715 4.47715 0 10 0C15.5229 0 20 4.47715 20 10C20 15.5229 15.5229 20 10 20ZM10 18.5938C14.7462 18.5938 18.5938 14.7462 18.5938 10C18.5938 5.25381 14.7462 1.40625 10 1.40625C5.25381 1.40625 1.40625 5.25381 1.40625 10C1.40625 14.7462 5.25381 18.5938 10 18.5938Z" fill="#00F7FF"/>
<path d="M10.2167 14.25C8.30771 14.25 6.75 12.6883 6.75 10.7503C6.75 10.1748 7.01606 9.36517 7.69022 8.28594C8.26556 7.36489 9.10349 6.30189 10.2166 5.09482C11.3298 6.30205 12.1678 7.36514 12.7431 8.28621C13.4173 9.36548 13.6833 10.175 13.6833 10.7503C13.6833 12.6883 12.1256 14.25 10.2167 14.25Z" stroke="#00F7FF" stroke-width="1.5"/>
</svg>
