<svg width="20" height="20" viewBox="0 0 20 20" fill="none" xmlns="http://www.w3.org/2000/svg">
<path d="M11.7108 1.42857L11.9784 3.28571L12.0855 4.05357L12.7814 4.375C13.067 4.51786 13.3703 4.67857 13.638 4.85714L14.2625 5.26786L14.9585 5L16.7786 4.28571L18.4739 7.125L16.9749 8.26786L16.3504 8.75L16.4217 9.53572C16.4396 9.69643 16.4396 9.85714 16.4396 10C16.4396 10.1429 16.4396 10.3036 16.4217 10.4643L16.3504 11.25L16.9749 11.7321L18.4739 12.875L16.7965 15.7143L14.9585 15L14.2625 14.7321L13.638 15.1429C13.3525 15.3393 13.067 15.5 12.7814 15.625L12.0855 15.9464L11.9784 16.6964L11.7108 18.5714H8.28463L8.01696 16.7143L7.90989 15.9464L7.21395 15.625C6.92844 15.4821 6.62508 15.3214 6.35741 15.1429L5.73286 14.7321L5.03692 15L3.21678 15.7143L1.52154 12.875L3.02049 11.7321L3.64504 11.25L3.57367 10.4643C3.55582 10.3036 3.55582 10.1429 3.55582 10C3.55582 9.85714 3.55582 9.69643 3.57367 9.53572L3.64504 8.75L3.02049 8.26786L1.52154 7.125L3.19893 4.28571L5.03692 5L5.73286 5.26786L6.35741 4.85714C6.64293 4.66071 6.92844 4.5 7.21395 4.375L7.90989 4.05357L8.01696 3.30357L8.28463 1.42857H11.7108ZM11.9071 0H8.08834C7.48162 0 6.98197 0.428571 6.89275 1L6.60724 3.07143C6.25035 3.23214 5.9113 3.42857 5.55441 3.66071L3.53798 2.875C3.39522 2.82143 3.25247 2.80357 3.10971 2.80357C2.68144 2.80357 2.27102 3.01786 2.07473 3.39286L0.165359 6.60714C-0.137998 7.10714 -0.0130861 7.76786 0.450872 8.125L2.1461 9.41072C2.12826 9.625 2.11041 9.82143 2.11041 10C2.11041 10.1786 2.11041 10.375 2.1461 10.5893L0.450872 11.875C-0.0130861 12.2321 -0.137998 12.8571 0.165359 13.3929L2.05688 16.5893C2.27102 16.9643 2.68144 17.1964 3.10971 17.1964C3.25247 17.1964 3.37738 17.1786 3.52013 17.125L5.53657 16.3393C5.87561 16.5714 6.2325 16.7679 6.58939 16.9286L6.89275 18.9821C6.96413 19.5536 7.48162 20 8.08834 20H11.9071C12.5138 20 13.0134 19.5714 13.1027 19L13.406 16.9286C13.7629 16.7679 14.1019 16.5714 14.4588 16.3393L16.4753 17.125C16.618 17.1786 16.7608 17.1964 16.9035 17.1964C17.3318 17.1964 17.7422 16.9821 17.9385 16.6071L19.8479 13.375C20.1334 12.8571 20.0085 12.2321 19.5445 11.875L17.8493 10.5893C17.8671 10.4107 17.885 10.2143 17.885 10C17.885 9.78571 17.8671 9.58929 17.8493 9.41072L19.5445 8.125C20.0085 7.76786 20.1334 7.14286 19.83 6.60714L17.9385 3.41071C17.7244 3.03571 17.314 2.80357 16.8857 2.80357C16.7429 2.80357 16.618 2.82143 16.4753 2.875L14.4588 3.66071C14.1198 3.42857 13.7629 3.23214 13.406 3.07143L13.1027 1.01786C13.0134 0.428571 12.5138 0 11.9071 0ZM9.9977 7.14286C11.568 7.14286 12.8528 8.42857 12.8528 10C12.8528 11.5714 11.568 12.8571 9.9977 12.8571C8.42738 12.8571 7.14257 11.5714 7.14257 10C7.14257 8.42857 8.42738 7.14286 9.9977 7.14286ZM9.9977 5.71429C7.64222 5.71429 5.71501 7.64286 5.71501 10C5.71501 12.3571 7.64222 14.2857 9.9977 14.2857C12.3532 14.2857 14.2804 12.3571 14.2804 10C14.2804 7.64286 12.3532 5.71429 9.9977 5.71429Z" fill="#00F7FF"/>
</svg>
