<svg width="20" height="20" viewBox="0 0 20 20" fill="none" xmlns="http://www.w3.org/2000/svg">
<path d="M3.75 15.625H16.25C16.4158 15.625 16.5747 15.5592 16.6919 15.4419C16.8092 15.3247 16.875 15.1658 16.875 15C16.875 14.8342 16.8092 14.6753 16.6919 14.5581C16.5747 14.4408 16.4158 14.375 16.25 14.375H3.75C3.58424 14.375 3.42527 14.4408 3.30806 14.5581C3.19085 14.6753 3.125 14.8342 3.125 15C3.125 15.1658 3.19085 15.3247 3.30806 15.4419C3.42527 15.5592 3.58424 15.625 3.75 15.625Z" fill="#02ECF5"/>
<path d="M19.3412 11.6594L17.095 2.21125C17.03 1.93754 16.8746 1.69375 16.6539 1.51931C16.4332 1.34487 16.1601 1.24999 15.8788 1.25H4.10812C3.52875 1.25 3.025 1.64812 2.89125 2.2125L0.65875 11.66C0.6363 11.7544 0.624973 11.8511 0.625 11.9481V16.875C0.625 17.2065 0.756696 17.5245 0.991117 17.7589C1.22554 17.9933 1.54348 18.125 1.875 18.125H18.125C18.4565 18.125 18.7745 17.9933 19.0089 17.7589C19.2433 17.5245 19.375 17.2065 19.375 16.875V11.9481C19.375 11.8506 19.3637 11.7538 19.3412 11.6594ZM15.8788 2.5L18.1075 11.875H10.5887C10.6062 11.8175 10.625 11.7594 10.625 11.6963V10C10.625 9.925 10.6062 9.855 10.5825 9.78813C12.6912 9.59688 14.375 8.38625 14.375 6.78375C14.375 5.19188 12.7138 3.9875 10.625 3.78375V2.5H15.8788ZM10 5C11.7687 5 13.125 5.87125 13.125 6.78375C13.125 7.69625 11.7687 8.5675 10 8.5675C8.23125 8.5675 6.875 7.69625 6.875 6.78375C6.875 5.87125 8.23125 5 10 5ZM4.10812 2.5H9.375V3.78375C7.28625 3.98687 5.625 5.19188 5.625 6.78375C5.625 8.38625 7.30875 9.5975 9.4175 9.78813C9.39124 9.85578 9.37686 9.92745 9.375 10V11.6963C9.375 11.7594 9.39375 11.8175 9.41125 11.875H1.8925L4.10812 2.5ZM18.125 16.875H1.875V13.125H18.125V16.875Z" fill="#02ECF5"/>
</svg>
