<svg width="20" height="20" viewBox="0 0 20 20" fill="none" xmlns="http://www.w3.org/2000/svg">
<path d="M16.3269 7.63094C15.5986 7.63445 14.8914 7.87635 14.3136 8.31968C13.7357 8.76301 13.3189 9.38337 13.1269 10.0859L12.0859 9.98594C12.0013 9.08976 11.5864 8.25707 10.922 7.64976C10.2576 7.04244 9.39106 6.70389 8.4909 6.69994C8.31418 6.69977 8.13769 6.71281 7.9629 6.73894L7.6629 5.90794C8.18011 5.6158 8.57322 5.14529 8.76874 4.58438C8.96426 4.02347 8.9488 3.41055 8.72526 2.8602C8.50172 2.30986 8.08539 1.85976 7.55412 1.59406C7.02284 1.32836 6.41298 1.26525 5.83855 1.41651C5.26413 1.56778 4.76445 1.92307 4.43294 2.41597C4.10143 2.90887 3.96077 3.50564 4.03728 4.0947C4.11378 4.68377 4.4022 5.22481 4.84862 5.61668C5.29504 6.00855 5.86889 6.22442 6.4629 6.22394C6.59667 6.22699 6.73046 6.21897 6.8629 6.19994L7.1389 6.97194C6.67658 7.16496 6.25845 7.45017 5.91003 7.81017C5.56161 8.17017 5.29021 8.5974 5.1124 9.06578C4.93459 9.53416 4.85411 10.0339 4.87586 10.5344C4.89761 11.0349 5.02114 11.5257 5.2389 11.9769L4.6789 12.2999C4.45161 12.0551 4.17639 11.8596 3.87035 11.7256C3.56432 11.5916 3.23399 11.5219 2.8999 11.5209C2.25145 11.534 1.63395 11.8007 1.17996 12.2639C0.725968 12.7271 0.47168 13.3499 0.47168 13.9984C0.47168 14.647 0.725968 15.2698 1.17996 15.733C1.63395 16.1962 2.25145 16.4629 2.8999 16.4759C3.55209 16.4709 4.17566 16.2074 4.63383 15.7433C5.092 15.2791 5.34736 14.6521 5.3439 13.9999C5.34326 13.6645 5.27525 13.3326 5.1439 13.0239L5.6999 12.6999C6.0371 13.1138 6.46228 13.4474 6.94454 13.6765C7.4268 13.9055 7.95403 14.0242 8.4879 14.0239C9.36832 14.017 10.2164 13.6915 10.8755 13.1076C11.5345 12.5238 11.9599 11.7211 12.0729 10.8479L13.0049 10.9409V10.9909C13.0124 11.6459 13.2135 12.284 13.5828 12.825C13.9521 13.3659 14.4732 13.7855 15.0805 14.031C15.6878 14.2765 16.3541 14.3368 16.9956 14.2044C17.6371 14.0721 18.2251 13.7529 18.6856 13.2871C19.1461 12.8213 19.4586 12.2297 19.5836 11.5868C19.7087 10.9438 19.6407 10.2782 19.3884 9.67381C19.136 9.06937 18.7105 8.55308 18.1654 8.18993C17.6203 7.82677 16.9799 7.63298 16.3249 7.63294L16.3269 7.63094ZM5.2679 3.73094C5.27027 3.49413 5.34266 3.26331 5.47595 3.06756C5.60924 2.8718 5.79747 2.71986 6.01694 2.63088C6.23641 2.54189 6.4773 2.51983 6.70928 2.56748C6.94126 2.61513 7.15396 2.73035 7.32058 2.89864C7.48721 3.06693 7.60031 3.28077 7.64565 3.51321C7.69099 3.74565 7.66653 3.98632 7.57536 4.20489C7.4842 4.42346 7.33039 4.61017 7.13332 4.74151C6.93625 4.87284 6.70473 4.94293 6.4679 4.94294C6.14913 4.93849 5.84482 4.80913 5.62042 4.58267C5.39602 4.35621 5.26944 4.05074 5.2679 3.73194V3.73094ZM2.8679 15.2579C2.55236 15.2489 2.25277 15.1172 2.03278 14.8908C1.81279 14.6644 1.68973 14.3611 1.68973 14.0454C1.68973 13.7298 1.81279 13.4265 2.03278 13.2001C2.25277 12.9737 2.55236 12.842 2.8679 12.8329C3.18345 12.842 3.48303 12.9737 3.70302 13.2001C3.92301 13.4265 4.04608 13.7298 4.04608 14.0454C4.04608 14.3611 3.92301 14.6644 3.70302 14.8908C3.48303 15.1172 3.18345 15.2489 2.8679 15.2579V15.2579ZM8.5679 12.5329C8.14659 12.5379 7.73331 12.4175 7.38058 12.187C7.02786 11.9566 6.7516 11.6264 6.58693 11.2386C6.42225 10.8508 6.37658 10.4228 6.45573 10.0089C6.53488 9.59507 6.73527 9.21409 7.03144 8.9144C7.3276 8.61471 7.70618 8.40983 8.11906 8.32578C8.53193 8.24174 8.96047 8.28234 9.35023 8.44242C9.73998 8.60249 10.0733 8.87482 10.308 9.2248C10.5426 9.57477 10.6679 9.98659 10.6679 10.4079C10.6703 10.6851 10.618 10.96 10.514 11.2169C10.41 11.4739 10.2563 11.7077 10.0618 11.9052C9.86732 12.1027 9.63579 12.2599 9.38047 12.3678C9.12516 12.4756 8.85107 12.5321 8.5739 12.5339L8.5679 12.5329ZM16.3679 12.8329C16.0066 12.8373 15.6522 12.7342 15.3497 12.5366C15.0472 12.3391 14.8103 12.0561 14.669 11.7236C14.5277 11.391 14.4885 11.024 14.5563 10.6692C14.6241 10.3143 14.7958 9.98759 15.0498 9.73057C15.3037 9.47356 15.6283 9.29783 15.9823 9.22572C16.3363 9.15362 16.7038 9.18839 17.038 9.32563C17.3722 9.46286 17.6581 9.69636 17.8592 9.99644C18.0604 10.2965 18.1679 10.6496 18.1679 11.0109C18.1711 11.4907 17.9839 11.9521 17.6474 12.294C17.311 12.6359 16.8526 12.8304 16.3729 12.8349L16.3679 12.8329Z" fill="#00F7FF"/>
</svg>
