<svg width="20" height="20" viewBox="0 0 20 20" fill="none" xmlns="http://www.w3.org/2000/svg">
<path d="M14.4391 13.9606C12.5102 13.9606 11.1638 13.1702 11.0728 13.1141C5.49467 9.5847 2.00092 13.0314 1.85453 13.1801C1.75118 13.2847 1.61102 13.3446 1.46402 13.3472C1.31703 13.3497 1.17487 13.2947 1.06795 13.1937C1.0152 13.1444 0.972866 13.0849 0.943438 13.0189C0.91401 12.9529 0.898084 12.8817 0.896599 12.8095C0.895114 12.7373 0.908099 12.6654 0.93479 12.5983C0.961481 12.5312 1.00134 12.47 1.05201 12.4185C1.09297 12.376 5.30426 8.15792 11.6637 12.1834C11.779 12.2517 14.8229 14.0107 18.218 11.566C18.3374 11.4799 18.4859 11.4442 18.6313 11.4666C18.7768 11.489 18.9076 11.5677 18.9955 11.6858C19.0386 11.744 19.0696 11.8103 19.0868 11.8806C19.104 11.951 19.107 12.0241 19.0956 12.0956C19.0842 12.1671 19.0587 12.2357 19.0206 12.2972C18.9824 12.3588 18.9324 12.4122 18.8734 12.4542C17.2691 13.6086 15.7256 13.9606 14.4391 13.9606ZM14.4391 16.9947C12.5102 16.9947 11.1638 16.2043 11.0728 16.1482C5.49467 12.6188 2.00092 16.0655 1.85453 16.2142C1.75118 16.3187 1.61102 16.3787 1.46402 16.3812C1.31702 16.3838 1.17487 16.3287 1.06795 16.2278C1.0152 16.1784 0.972871 16.119 0.943445 16.053C0.914019 15.987 0.898094 15.9158 0.896609 15.8436C0.895124 15.7713 0.908108 15.6995 0.934797 15.6324C0.961486 15.5652 1.00134 15.5041 1.05201 15.4526C1.09297 15.4101 5.30426 11.192 11.6637 15.2175C11.779 15.2857 14.8229 17.0447 18.218 14.6C18.3374 14.5139 18.4859 14.4782 18.6313 14.5007C18.7768 14.5231 18.9076 14.6018 18.9955 14.7199C19.0386 14.7781 19.0696 14.8443 19.0868 14.9147C19.104 14.9851 19.1069 15.0581 19.0956 15.1297C19.0842 15.2012 19.0587 15.2697 19.0206 15.3313C18.9824 15.3929 18.9324 15.4462 18.8734 15.4882C17.2691 16.6427 15.7255 16.9947 14.4391 16.9947H14.4391Z" fill="#00F7FF"/>
<path d="M2.69201 7.64677C2.99779 7.64677 3.29105 7.76824 3.50727 7.98446C3.72349 8.20068 3.84496 8.49394 3.84496 8.79972C3.84496 9.1055 3.72349 9.39876 3.50727 9.61498C3.29105 9.8312 2.99779 9.95267 2.69201 9.95267C2.38623 9.95267 2.09297 9.8312 1.87675 9.61498C1.66053 9.39876 1.53906 9.1055 1.53906 8.79972C1.53906 8.49394 1.66053 8.20068 1.87675 7.98446C2.09297 7.76824 2.38623 7.64677 2.69201 7.64677V7.64677ZM5.2467 6.7464C5.39362 6.7456 5.53486 6.80315 5.63939 6.9064C5.74391 7.00965 5.80319 7.15016 5.8042 7.29709C5.8042 7.59974 5.55389 7.84627 5.2467 7.84627C5.10023 7.84687 4.95949 7.78943 4.85528 7.6865C4.75108 7.58357 4.6919 7.44355 4.6907 7.29709C4.6907 6.99369 4.94102 6.7464 5.2467 6.7464ZM16.6245 5.22937C16.7714 5.22857 16.9126 5.28611 17.0172 5.38936C17.1217 5.49261 17.181 5.63313 17.182 5.78006C17.182 6.08271 16.9317 6.32922 16.6245 6.32922C16.478 6.32983 16.3373 6.27238 16.2331 6.16946C16.1289 6.06653 16.0697 5.92652 16.0685 5.78006C16.0685 5.47666 16.3188 5.22937 16.6245 5.22937ZM12.5679 5.63593H12.5687C12.1901 5.63554 11.8272 5.48504 11.5594 5.21743C11.2917 4.94982 11.141 4.58695 11.1404 4.2084C11.1524 3.83741 11.3082 3.48565 11.5749 3.22748C11.8416 2.9693 12.1982 2.82496 12.5694 2.82496C12.9406 2.82496 13.2972 2.9693 13.5639 3.22748C13.8306 3.48565 13.9864 3.83741 13.9985 4.2084C13.9979 4.58734 13.8469 4.95055 13.5786 5.21823C13.3104 5.4859 12.9469 5.63614 12.5679 5.63593V5.63593ZM6.2851 2.19531H6.28359C7.1665 2.19984 7.87951 2.90756 7.87725 3.77832C7.87725 4.65062 7.16271 5.36137 6.28359 5.36137C5.40219 5.35756 4.68842 4.64986 4.6907 3.77832C4.68842 2.90756 5.40144 2.19984 6.28512 2.19531H6.2851ZM15.5102 8.78529C16.155 8.78529 16.6783 9.30259 16.6783 9.93822C16.6783 10.5754 16.155 11.0912 15.5102 11.0912C15.2026 11.0928 14.9069 10.9723 14.6881 10.7562C14.4692 10.54 14.3451 10.2458 14.3428 9.93824C14.3428 9.30259 14.8662 8.78529 15.511 8.78529H15.5102ZM9.49519 6.57422C9.96527 6.57502 10.4158 6.76243 10.7478 7.09525C11.0797 7.42806 11.266 7.87906 11.2656 8.34914C11.2652 8.81883 11.0786 9.26921 10.7468 9.60162C10.4149 9.93402 9.96487 10.1213 9.49517 10.1226C9.26224 10.1226 9.03157 10.0768 8.81634 9.98768C8.60112 9.89858 8.40555 9.76797 8.2408 9.60329C7.90808 9.27071 7.7211 8.81958 7.721 8.34914C7.72089 7.8787 7.90768 7.42748 8.24026 7.09476C8.57284 6.76204 9.02397 6.57506 9.49441 6.57496L9.49519 6.57422V6.57422Z" fill="#00F7FF"/>
</svg>
