<svg width="20" height="20" viewBox="0 0 20 20" fill="none" xmlns="http://www.w3.org/2000/svg">
<path fill-rule="evenodd" clip-rule="evenodd" d="M10 0C10.2133 0 10.425 0.00166639 10.6333 0.00583306L11.25 0.0224996C11.4525 0.0299996 11.6517 0.0391664 11.8492 0.0499997L12.4308 0.0891663L12.995 0.139166C17.25 0.560833 19.8867 1.93083 19.9967 4.02917L20 4.16667V5.83332V5.83333C20 6.75416 18.8808 7.58749 17.0708 8.18999L16.6725 8.31582C16.5367 8.35749 16.3975 8.39582 16.2542 8.43415L15.8167 8.54499L15.3608 8.64749C15.0508 8.71415 14.7292 8.77332 14.3975 8.82749L14.0454 8.88153C14.1246 9.10624 14.1667 9.34121 14.1667 9.58306C14.1667 11.1939 12.3009 12.4997 10 12.4997C7.69919 12.4997 5.83336 11.1939 5.83336 9.58306C5.83336 9.34121 5.87542 9.10624 5.95469 8.88154L5.6025 8.82749C5.28003 8.77503 4.95883 8.71501 4.63917 8.64749L4.18333 8.54499L3.74583 8.43415C3.60583 8.39673 3.46637 8.35728 3.3275 8.31582L2.92917 8.19082C1.11918 7.58666 1.19879e-05 6.75333 0 5.83333V5.83332V4.16667C0 1.99 2.65833 0.57 7.005 0.139166L7.56917 0.0891663L8.15084 0.0499997C8.34834 0.0391664 8.5475 0.0299996 8.75084 0.0224996L9.3675 0.00583306C9.575 0.00166639 9.78584 0 10 0ZM13.3333 5.87562V7.29792C14.5448 7.14513 15.6404 6.91027 16.5442 6.60915C17.2125 6.38665 17.7358 6.13915 18.0758 5.90082L18.1675 5.83249L18.0758 5.76582C17.7733 5.55415 17.3267 5.33499 16.7617 5.13249L16.5442 5.05749C14.8633 4.49749 12.5192 4.16665 10 4.16665C7.48084 4.16665 5.13667 4.49749 3.45583 5.05749C2.7875 5.27999 2.26417 5.52749 1.92417 5.76582L1.83167 5.83332L1.92333 5.90082C2.22667 6.11249 2.67333 6.33165 3.23833 6.53415L3.45583 6.60915C4.35963 6.91027 5.45522 7.14513 6.66668 7.29792V5.87479C6.66687 5.74144 6.69906 5.61009 6.76055 5.49176C6.82203 5.37344 6.91101 5.27159 7.02001 5.19479C7.60501 4.78145 8.59835 4.57479 10 4.57479C11.4017 4.57479 12.395 4.78145 12.98 5.19479C13.0891 5.27167 13.1782 5.37365 13.2397 5.49213C13.3012 5.61061 13.3333 5.74213 13.3333 5.87562ZM12.4882 9.68567C12.4834 9.70707 12.4771 9.72864 12.4694 9.75034C12.2896 10.2572 11.3321 10.8331 10 10.8331C8.51836 10.8331 7.50002 10.1206 7.50002 9.58306C7.50002 9.56316 7.50142 9.54301 7.50418 9.52268C7.50886 9.4883 7.51744 9.45336 7.5298 9.41808C7.5686 9.3073 7.64462 9.19317 7.75363 9.08244L7.75417 9.08249C7.85985 8.975 7.99669 8.87075 8.16076 8.77588C8.21532 8.7444 8.2729 8.71395 8.33335 8.68479V8.68456C8.76185 8.4772 9.33449 8.33332 10 8.33332C11.0425 8.33332 11.8558 8.68582 12.2458 9.08249L12.2462 9.08245C12.4106 9.2493 12.5 9.42382 12.5 9.58312C12.5 9.61669 12.496 9.65095 12.4882 9.68567ZM10 6.66639C9.40747 6.66639 8.84376 6.753 8.33335 6.90913V6.40812L8.49585 6.36812C8.85001 6.29145 9.35501 6.24145 10 6.24145L10.2125 6.24312C10.8333 6.25479 11.3092 6.31479 11.63 6.39812L11.6667 6.40895L11.6669 6.90918C11.1564 6.75302 10.5926 6.66639 10 6.66639ZM15.1967 2.175C17.0556 2.60852 18.1472 3.27294 18.3116 3.97933C17.9475 3.79822 17.5315 3.62959 17.0708 3.47582L16.6725 3.35082C16.5375 3.30999 16.3975 3.27082 16.2542 3.23249L15.8167 3.12165L15.3608 3.01915C15.0508 2.95332 14.7292 2.89332 14.3975 2.83915L13.8925 2.76165L13.6342 2.72665L13.1075 2.66415C13.0183 2.65415 12.9292 2.64499 12.8392 2.63665L12.2933 2.58832L11.735 2.54999C11.5475 2.53915 11.3575 2.52998 11.1658 2.52249L10.5875 2.50582C10.3933 2.50165 10.1975 2.49998 10 2.49998L9.705 2.50165L9.4125 2.50582L8.83417 2.52249C8.6425 2.52998 8.4525 2.53915 8.265 2.54999L7.7075 2.58832L7.16084 2.63665C7.07084 2.64499 6.98167 2.65415 6.8925 2.66415L6.36583 2.72665L6.1075 2.76165L5.6025 2.83915C5.27083 2.89332 4.94917 2.95249 4.63917 3.01915L4.18333 3.12165L3.74583 3.23249C3.6025 3.27082 3.46333 3.30915 3.3275 3.35082L2.92917 3.47665C2.46831 3.63006 2.05225 3.79843 1.68804 3.9794C1.85246 3.27319 2.94438 2.60844 4.80333 2.175L5.22 2.08417C5.50584 2.02667 5.8075 1.97333 6.12417 1.92667L6.61167 1.86L7.12084 1.8025L7.65417 1.755C8.37834 1.6975 9.16167 1.66667 10 1.66667L10.3125 1.66833C11.0333 1.675 11.7125 1.705 12.3458 1.755L12.8783 1.8025L13.3883 1.86L13.8758 1.92583C14.1925 1.97333 14.4942 2.02583 14.78 2.08417L15.1967 2.175ZM4.77923 11.3961C4.6823 11.2164 4.52275 11.0785 4.33086 11.0087C4.12322 10.933 3.89401 10.9429 3.69366 11.0362C3.49331 11.1295 3.33823 11.2985 3.26253 11.5062L2.97753 12.2895L2.95003 12.3828C2.90021 12.59 2.93164 12.8084 3.03786 12.9931C3.14409 13.1778 3.31703 13.3148 3.52115 13.376C3.72527 13.4371 3.94505 13.4177 4.13533 13.3218C4.32561 13.2259 4.47192 13.0608 4.54419 12.8603L4.82919 12.077L4.85669 11.9837C4.90373 11.7849 4.87617 11.5759 4.77923 11.3961ZM3.63923 14.5286C3.5423 14.3489 3.38275 14.211 3.19086 14.1412C2.98322 14.0655 2.75401 14.0754 2.55366 14.1687C2.35331 14.262 2.19823 14.431 2.12253 14.6387L1.83753 15.422L1.81003 15.5153C1.76021 15.7225 1.79164 15.9409 1.89786 16.1256C2.00409 16.3103 2.17703 16.4473 2.38115 16.5085C2.58527 16.5696 2.80505 16.5502 2.99533 16.4543C3.18561 16.3584 3.33192 16.1933 3.40419 15.9928L3.68919 15.2095L3.71669 15.1162C3.76373 14.9174 3.73617 14.7084 3.63923 14.5286ZM10 13.3331C10.2041 13.3331 10.4011 13.408 10.5537 13.5436C10.7062 13.6793 10.8036 13.8662 10.8275 14.0689L10.8333 14.1664V14.9997C10.8331 15.2121 10.7518 15.4164 10.606 15.5709C10.4602 15.7253 10.2609 15.8182 10.0489 15.8307C9.83682 15.8431 9.62803 15.7742 9.46515 15.6378C9.30228 15.5015 9.1976 15.3081 9.17251 15.0972L9.16668 14.9997V14.1664C9.16668 13.9454 9.25448 13.7334 9.41076 13.5771C9.56704 13.4208 9.779 13.3331 10 13.3331ZM10 16.6664C10.2041 16.6664 10.4011 16.7413 10.5537 16.877C10.7062 17.0126 10.8036 17.1995 10.8275 17.4022L10.8333 17.4997V18.3331C10.8331 18.5455 10.7518 18.7497 10.606 18.9042C10.4602 19.0586 10.2609 19.1516 10.0489 19.164C9.83682 19.1765 9.62803 19.1075 9.46515 18.9712C9.30228 18.8348 9.1976 18.6415 9.17251 18.4306L9.16668 18.3331V17.4997C9.16668 17.2787 9.25448 17.0667 9.41076 16.9105C9.56704 16.7542 9.779 16.6664 10 16.6664ZM16.2614 11.0176C16.0717 10.9423 15.861 10.9393 15.6692 11.0091V11.0099C15.4618 11.0855 15.2929 11.2402 15.1994 11.4402C15.106 11.6401 15.0957 11.869 15.1709 12.0766L15.4559 12.8599L15.4942 12.9491C15.5892 13.1397 15.7536 13.2867 15.9536 13.3599C16.1537 13.4332 16.3741 13.427 16.5697 13.3427C16.7654 13.2585 16.9213 13.1025 17.0055 12.9068C17.0897 12.7112 17.0958 12.4907 17.0225 12.2907L16.7375 11.5074L16.6984 11.4174C16.6066 11.2351 16.4511 11.0929 16.2614 11.0176ZM17.4019 14.1498C17.212 14.0745 17.0011 14.0716 16.8092 14.1416C16.6016 14.2171 16.4325 14.372 16.3391 14.5722C16.2456 14.7723 16.2355 15.0014 16.3109 15.2091L16.5959 15.9924L16.635 16.0816C16.7311 16.2705 16.8954 16.4157 17.0947 16.4877C17.2939 16.5597 17.5132 16.5531 17.7078 16.4693C17.9023 16.3854 18.0577 16.2306 18.1422 16.0362C18.2266 15.8419 18.2339 15.6227 18.1625 15.4232L17.8775 14.6399L17.8392 14.5499C17.7474 14.3674 17.5918 14.225 17.4019 14.1498Z" fill="#00F7FF"/>
</svg>
