<svg width="20" height="20" viewBox="0 0 20 20" fill="none" xmlns="http://www.w3.org/2000/svg">
<path d="M17.0526 1.15286C16.9936 1.15286 16.9329 1.15724 16.8701 1.16829L12.2573 1.92191C11.6355 2.02405 11.1278 2.61399 11.1278 3.23251H7.68472C4.36484 3.23251 3.11096 1.34626 3.05938 1.26491C2.97911 1.139 2.85155 1.04925 2.70435 1.01511C2.55715 0.980971 2.40218 1.0052 2.27305 1.08255C2.14364 1.16086 2.05115 1.28641 2.0159 1.43164C1.98066 1.57686 2.00553 1.72989 2.08507 1.85712C2.1231 1.91866 2.71598 2.81616 4.04823 3.51815C3.16238 4.22013 1.98008 5.57588 2.00025 7.80265V15.0479C2.00019 15.1218 2.01495 15.1949 2.0437 15.2632C2.07244 15.3315 2.11461 15.3935 2.16778 15.4458C2.22096 15.498 2.2841 15.5395 2.3536 15.5678C2.42309 15.596 2.49758 15.6106 2.5728 15.6106C2.64804 15.6106 2.72254 15.5961 2.79206 15.5678C2.86157 15.5395 2.92473 15.4981 2.97793 15.4458C3.03112 15.3936 3.0733 15.3315 3.10206 15.2633C3.13081 15.195 3.14558 15.1218 3.14551 15.0479V7.79729C3.12435 5.4484 4.7752 4.32357 5.30873 4.02251C5.98213 4.22029 6.76184 4.35751 7.68456 4.35751H8.2862V4.99129L4.54721 7.23706C4.46363 7.28751 4.39457 7.35811 4.34659 7.44215C4.29861 7.52619 4.27331 7.62088 4.27308 7.71723L4.27755 18.4375C4.27748 18.5114 4.29225 18.5846 4.32101 18.6528C4.34977 18.7211 4.39195 18.7831 4.44515 18.8354C4.49834 18.8876 4.5615 18.9291 4.63102 18.9573C4.70053 18.9856 4.77503 19.0001 4.85026 19H12.8681C12.9433 19 13.0178 18.9855 13.0873 18.9573C13.1568 18.929 13.2199 18.8876 13.2731 18.8353C13.3263 18.7831 13.3685 18.7211 13.3973 18.6528C13.426 18.5845 13.4408 18.5114 13.4408 18.4375L13.4452 7.71723C13.4452 7.524 13.3434 7.34375 13.1767 7.24047L9.43196 4.9343V4.35751H11.1278C11.1278 4.97603 11.6355 5.56597 12.2573 5.66811L16.8701 6.42173C16.9329 6.43278 16.9935 6.43716 17.0526 6.43716C17.5885 6.43716 18 6.03948 18 5.48251V2.10768C18 1.5507 17.5885 1.15286 17.0526 1.15286ZM12.2964 14.4856H9.96433V11.1075H12.2987L12.2964 14.4856ZM12.3 8.02804L12.2987 9.98249H9.39162C9.3164 9.98247 9.24191 9.99701 9.17241 10.0253C9.10292 10.0536 9.03978 10.095 8.9866 10.1473C8.93343 10.1995 8.89126 10.2616 8.86252 10.3298C8.83377 10.3981 8.81901 10.4713 8.81907 10.5452V15.0481C8.81901 15.1219 8.83377 15.1951 8.86252 15.2634C8.89126 15.3317 8.93343 15.3937 8.9866 15.4459C9.03978 15.4982 9.10292 15.5397 9.17241 15.5679C9.24191 15.5962 9.3164 15.6107 9.39162 15.6107H12.2964L12.2952 17.8748H5.42297L5.41867 8.03242L8.90637 5.93848L12.3 8.02804ZM16.8546 5.27936L12.4453 4.55854C12.376 4.54636 12.273 4.42668 12.273 4.35751V3.23251C12.273 3.16334 12.376 3.0435 12.4453 3.03148L16.8546 2.31082V5.27936Z" fill="#00F7FF"/>
</svg>
