<svg width="20" height="20" viewBox="0 0 20 20" fill="none" xmlns="http://www.w3.org/2000/svg">
<g clip-path="url(#clip0_2337_7626)">
<path d="M9.69078 4.9827H10.3604C10.5453 4.9827 10.6952 4.83279 10.6952 4.64787V1.29967C10.6952 1.11475 10.5453 0.964844 10.3604 0.964844H9.69078C9.50586 0.964844 9.35596 1.11475 9.35596 1.29967V4.64787C9.35596 4.83279 9.50586 4.9827 9.69078 4.9827ZM14.2263 5.45346L16.3979 3.28182C16.5191 3.16066 16.594 2.99326 16.594 2.80838C16.594 2.43859 16.2943 2.13883 15.9245 2.13883C15.7396 2.13883 15.5722 2.21377 15.451 2.33494L13.2794 4.50658C13.1582 4.62773 13.0833 4.79514 13.0833 4.98002C13.0833 5.3498 13.383 5.64957 13.7528 5.64957C13.9377 5.64957 14.1051 5.57463 14.2263 5.45346ZM18.0613 16.3666H16.0524V12.014C16.0524 8.87037 13.504 6.32201 10.3604 6.32201H9.69082C6.54723 6.32201 3.99887 8.87039 3.99887 12.014V16.3666H1.98994C1.6201 16.3666 1.32031 16.6665 1.32031 17.0363V18.0005H18.731V17.0363C18.731 16.6664 18.4311 16.3666 18.0613 16.3666ZM14.0435 16.3666H6.00775V12.014C6.00775 9.97988 7.65672 8.33092 9.6908 8.33092H10.3604C12.3945 8.33092 14.0435 9.97988 14.0435 12.014L14.0435 16.3666ZM6.91713 5.4615C7.0335 5.57787 7.19426 5.64984 7.37182 5.64984C7.72695 5.64984 8.01484 5.36195 8.01484 5.00682C8.01484 4.82926 7.94287 4.6685 7.8265 4.55213L5.76801 2.495C5.65164 2.37863 5.49088 2.30666 5.31332 2.30666C4.95818 2.30666 4.67029 2.59455 4.67029 2.94969C4.67029 3.12725 4.74227 3.28801 4.85863 3.40438L6.91713 5.4615ZM2.76199 7.57088L4.23318 8.32424C4.28311 8.33815 4.34041 8.34613 4.39959 8.34613C4.75471 8.34613 5.04258 8.05826 5.04258 7.70314C5.04258 7.40721 4.84264 7.15797 4.57049 7.08311L3.09477 6.32869C3.04484 6.31477 2.98754 6.3068 2.92836 6.3068C2.57324 6.3068 2.28537 6.59467 2.28537 6.94979C2.28537 7.24572 2.48531 7.49496 2.75746 7.56982L2.76199 7.57088ZM16.0758 7.87893C16.1477 8.14932 16.3903 8.34529 16.6786 8.34529C16.7357 8.34529 16.791 8.3376 16.8436 8.3232L18.2662 7.58627C18.535 7.51055 18.7287 7.26758 18.7287 6.97936C18.7287 6.92084 18.7207 6.86418 18.7058 6.81043C18.635 6.54447 18.3924 6.3485 18.104 6.3485C18.0469 6.3485 17.9916 6.35619 17.9391 6.37059L16.5164 7.10752C16.2478 7.18412 16.0544 7.42738 16.0544 7.71584C16.0544 7.77385 16.0622 7.83002 16.0769 7.88338L16.0758 7.87893Z" fill="#00F7FF"/>
</g>
<defs>
<clipPath id="clip0_2337_7626">
<rect width="20" height="20" fill="white"/>
</clipPath>
</defs>
</svg>
