<svg width="20" height="20" viewBox="0 0 20 20" fill="none" xmlns="http://www.w3.org/2000/svg">
<path d="M19.0951 18.4945H18.5472V4.57665C18.5472 4.19309 18.2458 3.89172 17.8623 3.89172H14.4102C14.0266 3.89172 13.7253 4.19309 13.7253 4.57665V18.4945H12.4924V1.01501C12.4924 0.631448 12.191 0.330078 11.8075 0.330078H8.35542C7.97185 0.330078 7.67048 0.631448 7.67048 1.01501V18.4945H6.30062V7.75474C6.30062 7.37117 5.99925 7.0698 5.61569 7.0698H2.16363C1.78007 7.0698 1.4787 7.37117 1.4787 7.75474V18.4945H1.06774C0.684182 18.4945 0.382812 18.7958 0.382812 19.1794C0.382812 19.563 0.684182 19.8643 1.06774 19.8643H19.1225C19.5061 19.8643 19.8075 19.563 19.8075 19.1794C19.8075 18.7958 19.4787 18.4945 19.0951 18.4945V18.4945ZM2.84857 18.4945V8.43967H4.93076V18.4945H2.84857V18.4945ZM9.04035 18.4945V1.69994H11.1225V18.4945H9.04035V18.4945ZM15.0951 18.4945V5.26159H17.1773V18.4945H15.0951V18.4945Z" fill="#00F7FF"/>
</svg>
