<svg width="20" height="21" viewBox="0 0 20 21" fill="none" xmlns="http://www.w3.org/2000/svg">
<path d="M8.27512 14.9601L6 14.9328L6.01366 5.00691H9.71122C10.119 4.97764 11.9981 4.9074 13.2312 6.01374C13.8888 6.60301 14.2439 7.42057 14.2595 8.37667C14.281 9.65862 13.7698 10.4547 13.3346 10.8937C12.1893 12.0567 10.4429 12.0567 9.78537 12.0567H8.27512V14.9601ZM8.27512 9.79715H9.78732C10.1463 9.79715 11.2449 9.79715 11.7229 9.30935C11.7932 9.23715 12.0078 9.01862 11.9981 8.41569C11.9922 7.99423 11.8459 7.81081 11.719 7.69764C11.2605 7.28789 10.2478 7.2274 9.85756 7.26252L9.80488 7.26642H8.27122V9.79715H8.27512Z" fill="#00F7FF"/>
<path d="M10 20.0078C4.47715 20.0078 0 15.5307 0 10.0078C0 4.48496 4.47715 0.0078125 10 0.0078125C15.5229 0.0078125 20 4.48496 20 10.0078C20 15.5307 15.5229 20.0078 10 20.0078ZM10 18.6016C14.7462 18.6016 18.5938 14.754 18.5938 10.0078C18.5938 5.26162 14.7462 1.41406 10 1.41406C5.25381 1.41406 1.40625 5.26162 1.40625 10.0078C1.40625 14.754 5.25381 18.6016 10 18.6016Z" fill="#00F7FF"/>
</svg>
