<svg width="20" height="20" viewBox="0 0 20 20" fill="none" xmlns="http://www.w3.org/2000/svg">
<path d="M2.79396 17.1039H18.0854C18.56 17.1039 18.9447 17.4887 18.9447 17.9633C18.9447 18.4379 18.56 18.8227 18.0854 18.8227H1.93457C1.45996 18.8227 1.0752 18.4379 1.0752 17.9633V2.0957C1.0752 1.62109 1.45996 1.23633 1.93457 1.23633C2.4092 1.23633 2.79395 1.62109 2.79395 2.0957V17.1039H2.79396ZM9.51676 9.61689L8.25061 13.8172C8.03938 14.518 7.10484 14.6508 6.7067 14.0367L3.75139 9.47822C3.49318 9.07998 3.60674 8.54783 4.00498 8.28963C4.40322 8.03145 4.93539 8.14498 5.19357 8.54324L7.14018 11.5458L7.9791 8.7627C8.01316 8.6497 8.07013 8.54494 8.14646 8.45493C8.22278 8.36492 8.31683 8.2916 8.42273 8.23953L11.9277 6.51625C12.3088 6.32889 12.7696 6.44797 13.0122 6.79652L14.677 9.18828L17.0833 2.18174C17.2375 1.73285 17.7263 1.49395 18.1752 1.64811C18.6241 1.80227 18.863 2.29113 18.7089 2.74002L15.7522 11.3488C15.5237 12.0143 14.6361 12.1381 14.2341 11.5606L12.0234 8.38447L9.51676 9.61689V9.61689Z" fill="#00F7FF"/>
</svg>
