<svg width="20" height="20" viewBox="0 0 20 20" fill="none" xmlns="http://www.w3.org/2000/svg">
<g clip-path="url(#clip0_2337_7733)">
<path d="M11.3355 20.0008H4.13055C2.88832 20.0008 1.89453 19.007 1.89453 17.7648V2.36104C1.89453 1.11879 2.88832 0.125 4.13055 0.125H15.8076C17.0498 0.125 18.0436 1.11879 18.0436 2.36104V9.31756C18.0436 9.69022 17.7952 9.93865 17.4225 9.93865C17.0498 9.93865 16.8014 9.69022 16.8014 9.31756V2.36104C16.8014 1.86414 16.3045 1.36725 15.8076 1.36725H4.13055C3.63367 1.36725 3.13676 1.86412 3.13676 2.36104V17.7647C3.13676 18.2617 3.63365 18.7586 4.13055 18.7586H11.3355C11.7082 18.7586 11.9566 19.007 11.9566 19.3796C11.9566 19.7523 11.7082 20.0008 11.3355 20.0008Z" fill="#00F7FF"/>
<path d="M5.62109 5.21799C5.62109 4.84533 5.99375 4.47266 6.36644 4.47266H13.5714C13.9441 4.47266 14.3168 4.84531 14.3168 5.21799C14.3168 5.59066 13.9441 5.96334 13.5714 5.96334H6.36644C5.86955 6.08756 5.62109 5.7149 5.62109 5.21799V5.21799ZM5.62109 9.31738C5.62109 8.94471 5.99375 8.57203 6.36644 8.57203H12.5776C12.9503 8.57203 13.323 8.94469 13.323 9.31738C13.323 9.69008 12.9503 10.0627 12.5776 10.0627H6.36644C5.86955 10.0627 5.62109 9.69006 5.62109 9.31738V9.31738ZM5.62109 13.2925C5.62109 12.9199 5.99375 12.5472 6.36644 12.5472H8.72668C9.09935 12.5472 9.47203 12.9198 9.47203 13.2925C9.47203 13.6652 9.09937 14.0379 8.72668 14.0379H6.36644C5.86955 14.0379 5.62109 13.6652 5.62109 13.2925V13.2925ZM14.6894 18.6341C12.5776 18.6341 10.7143 16.895 10.7143 14.659C10.7143 12.4229 12.4534 10.6838 14.6894 10.6838C16.9254 10.6838 18.6646 12.423 18.6646 14.659C18.6646 16.895 16.8012 18.6341 14.6894 18.6341ZM14.6894 12.0503C13.1987 12.0503 11.9565 13.2925 11.9565 14.7832C11.9565 16.2739 13.1987 17.5161 14.6894 17.5161C16.1801 17.5161 17.4223 16.2739 17.4223 14.7832C17.2981 13.2925 16.0559 12.0503 14.6894 12.0503Z" fill="#00F7FF"/>
<path d="M19.2857 19.9994C19.1615 19.9994 18.913 19.9994 18.7888 19.8751L16.4285 17.5149C16.1801 17.2665 16.1801 16.8938 16.4285 16.6453C16.677 16.3969 17.0496 16.3969 17.2981 16.6453L19.6583 19.0056C19.9068 19.254 19.9068 19.6267 19.6583 19.8751C19.6583 19.9994 19.5341 19.9994 19.2857 19.9994Z" fill="#00F7FF"/>
</g>
<defs>
<clipPath id="clip0_2337_7733">
<rect width="20" height="20" fill="white"/>
</clipPath>
</defs>
</svg>
