<svg width="20" height="20" viewBox="0 0 20 20" fill="none" xmlns="http://www.w3.org/2000/svg">
<g clip-path="url(#clip0_2597_7237)">
<path fill-rule="evenodd" clip-rule="evenodd" d="M16.6766 7.96854L18.6006 6.803C18.8294 6.66464 18.9717 6.39917 18.9717 6.11099C18.9716 5.96953 18.9372 5.83067 18.8719 5.70893C18.8066 5.5872 18.7129 5.48706 18.6006 5.41899L9.81563 0.0976199C9.71023 0.0335806 9.59188 0 9.47157 0C9.35127 0 9.23291 0.0335806 9.12752 0.0976199L0.342773 5.41899C0.113968 5.55734 -0.0283203 5.82281 -0.0283203 6.11099C-0.0283203 6.39917 0.113968 6.66464 0.342773 6.80323L7.54604 11.1668C7.56353 11.1309 7.58229 11.0955 7.60232 11.0604L8.30117 9.82293L2.17364 6.11099L9.47168 1.69021L16.7697 6.11099L15.6491 6.78984C16.1392 6.98995 16.5252 7.41867 16.6766 7.96854ZM8.53527 17.8195L8.64527 18.015C8.95748 18.5823 9.53631 18.9198 10.1406 18.9198C10.3251 18.9198 10.5228 18.8927 10.7388 18.8075L11.1422 18.6421L11.1929 19.0034C11.1968 19.0334 11.2013 19.0631 11.2064 19.0925L9.81593 19.9063C9.71045 19.968 9.59208 20.0003 9.47176 20.0003C9.35323 20.0003 9.23469 19.9691 9.1276 19.9063L0.342852 14.7653C-0.0032193 14.5627 -0.130027 14.0991 0.0599728 13.7298C0.250185 13.3609 0.684895 13.2263 1.03097 13.4281L8.53527 17.8195ZM7.54757 12.7966C7.65885 13.0259 7.81838 13.2325 8.02248 13.3977L8.28951 13.6108L8.02848 13.819L8.02249 13.8238C7.78888 14.013 7.61587 14.2505 7.50548 14.512L0.342852 10.3202C-0.00321931 10.1175 -0.130027 9.65388 0.0599728 9.28455C0.250185 8.9159 0.684895 8.78065 1.03097 8.98284L7.54757 12.7966Z" fill="#00F7FF"/>
<path d="M19.2546 14.7044L18.3145 13.9544C18.3244 13.8503 18.3343 13.7357 18.3343 13.6107C18.3343 13.4857 18.3244 13.3711 18.3145 13.2669L19.2546 12.5169C19.5119 12.3086 19.5812 11.944 19.4129 11.6315L18.364 9.76693C18.2452 9.54818 18.0176 9.41276 17.7801 9.41276C17.7009 9.41276 17.6317 9.42318 17.5525 9.45443L16.4343 9.91276C16.2463 9.77734 16.0483 9.66276 15.8504 9.56901L15.6822 8.37109C15.6327 8.02734 15.3556 7.77734 15.0192 7.77734H12.9015C12.565 7.77734 12.2879 8.02734 12.2384 8.36068L12.0801 9.56901C11.8822 9.66276 11.6942 9.77734 11.4963 9.91276L10.378 9.45443C10.2989 9.42318 10.2197 9.41276 10.1405 9.41276C9.90303 9.41276 9.67543 9.53776 9.56657 9.75651L8.50772 11.6315C8.33949 11.9232 8.40876 12.3086 8.66605 12.5169L9.60615 13.2669C9.59626 13.3919 9.58636 13.5065 9.58636 13.6107C9.58636 13.7148 9.58636 13.8294 9.60615 13.9544L8.66605 14.7044C8.40876 14.9128 8.33949 15.2773 8.50772 15.5898L9.55668 17.4544C9.67543 17.6732 9.90303 17.8086 10.1405 17.8086C10.2197 17.8086 10.289 17.7982 10.3681 17.7669L11.4864 17.3086C11.6744 17.444 11.8723 17.5586 12.0702 17.6523L12.2384 18.8503C12.278 19.1836 12.565 19.444 12.9015 19.444H15.0192C15.3556 19.444 15.6327 19.194 15.6822 18.8607L15.8504 17.6523C16.0483 17.5586 16.2364 17.444 16.4343 17.3086L17.5525 17.7669C17.6317 17.7982 17.7108 17.8086 17.79 17.8086C18.0275 17.8086 18.2551 17.6836 18.364 17.4648L19.4228 15.5794C19.5812 15.2773 19.5119 14.9128 19.2546 14.7044V14.7044ZM16.3353 13.6107C16.3353 14.9857 15.2666 16.1107 13.9603 16.1107C12.6541 16.1107 11.5853 14.9857 11.5853 13.6107C11.5853 12.2357 12.6541 11.1107 13.9603 11.1107C15.2666 11.1107 16.3353 12.2357 16.3353 13.6107Z" fill="#00F7FF"/>
</g>
<defs>
<clipPath id="clip0_2597_7237">
<rect width="20" height="20" fill="white"/>
</clipPath>
</defs>
</svg>
