<svg width="20" height="20" viewBox="0 0 20 20" fill="none" xmlns="http://www.w3.org/2000/svg">
<path d="M10 20C4.47715 20 0 15.5229 0 10C0 4.47715 4.47715 0 10 0C15.5229 0 20 4.47715 20 10C20 15.5229 15.5229 20 10 20ZM10 18.5938C14.7462 18.5938 18.5938 14.7462 18.5938 10C18.5938 5.25381 14.7462 1.40625 10 1.40625C5.25381 1.40625 1.40625 5.25381 1.40625 10C1.40625 14.7462 5.25381 18.5938 10 18.5938Z" fill="#00F7FF"/>
<path d="M10 17C9.85977 17.001 9.72329 16.9529 9.61251 16.8635L7.07501 14.8295C6.42729 14.2996 5.9039 13.6235 5.54443 12.8523C5.18495 12.0812 4.99879 11.2352 5.00002 10.3782V6.40772C4.99912 6.27571 5.03692 6.14654 5.10838 6.03742C5.17983 5.9283 5.28156 5.84439 5.40001 5.79687L9.77501 4.04233C9.91794 3.98589 10.0758 3.98589 10.2188 4.04233L14.5937 5.79687C14.7134 5.84334 14.8164 5.9268 14.8891 6.03601C14.9617 6.14522 15.0004 6.27494 15 6.40772V10.3782C15 11.2356 14.8127 12.0818 14.4521 12.8529C14.0916 13.6241 13.5673 14.2999 12.9188 14.8295L10.3813 16.8635C10.2722 16.9516 10.1381 16.9995 10 17V17ZM6.25001 6.8496V10.3782C6.24817 11.0364 6.39076 11.6865 6.66693 12.2788C6.94311 12.8711 7.34559 13.3901 7.84376 13.7963L10 15.5249L12.15 13.7963C12.649 13.3904 13.0524 12.8716 13.3296 12.2794C13.6069 11.6871 13.7506 11.0369 13.75 10.3782V6.8496L10 5.34849L6.25001 6.8496Z" fill="#00F7FF"/>
<path d="M10.0093 9.99998C8.95906 10.0021 7.91926 9.8327 6.95305 9.50217L5.42182 8.96952C5.34061 8.94752 5.26596 8.91225 5.20259 8.86592C5.13922 8.81959 5.08849 8.76321 5.05363 8.70034C5.01876 8.63747 5.0005 8.56948 5.00001 8.50066C4.99952 8.43185 5.0168 8.36369 5.05077 8.30051C5.08474 8.23732 5.13465 8.18048 5.19736 8.13357C5.26007 8.08666 5.3342 8.0507 5.41509 8.02796C5.49598 8.00522 5.58187 7.9962 5.66732 8.00146C5.75277 8.00672 5.83594 8.02615 5.91156 8.05852L7.43039 8.59118C8.24054 8.86958 9.11259 9.01313 9.9938 9.01313C10.875 9.01313 11.7471 8.86958 12.5572 8.59118L14.0884 8.06848C14.1641 8.0361 14.2472 8.01667 14.3327 8.01141C14.4181 8.00615 14.504 8.01518 14.5849 8.03792C14.6658 8.06066 14.7399 8.09662 14.8026 8.14353C14.8654 8.19044 14.9153 8.24728 14.9492 8.31046C14.9832 8.37365 15.0005 8.4418 15 8.51062C14.9995 8.57944 14.9812 8.64743 14.9464 8.7103C14.9115 8.77316 14.8608 8.82954 14.7974 8.87587C14.734 8.9222 14.6594 8.95748 14.5782 8.97947L13.047 9.50715C12.0861 9.83413 11.0529 10.0018 10.0093 9.99998V9.99998Z" fill="#00F7FF"/>
</svg>
