<svg width="20" height="20" viewBox="0 0 20 20" fill="none" xmlns="http://www.w3.org/2000/svg">
<path d="M19.6928 2.77868L17.3928 0.482253C17.1941 0.295423 16.9316 0.191406 16.6589 0.191406C16.3862 0.191406 16.1237 0.295423 15.925 0.482253L13.6285 2.78225C13.5319 2.87849 13.4552 2.99286 13.4029 3.11881C13.3506 3.24475 13.3236 3.3798 13.3236 3.51618C13.3236 3.65257 13.3506 3.78761 13.4029 3.91356C13.4552 4.03951 13.5319 4.15388 13.6285 4.25011C13.7248 4.34676 13.8392 4.42344 13.9651 4.47577C14.091 4.5281 14.2261 4.55504 14.3625 4.55504C14.4989 4.55504 14.6339 4.5281 14.7599 4.47577C14.8858 4.42344 15.0002 4.34676 15.0964 4.25011L15.6571 3.6894V15.118C15.6693 15.4264 15.6191 15.7342 15.5094 16.0228C15.3998 16.3114 15.233 16.5749 15.019 16.7974C14.8051 17.02 14.5484 17.1971 14.2643 17.318C13.9803 17.439 13.6748 17.5013 13.366 17.5013C13.0573 17.5013 12.7518 17.439 12.4677 17.318C12.1837 17.1971 11.927 17.02 11.7131 16.7974C11.4991 16.5749 11.3323 16.3114 11.2227 16.0228C11.113 15.7342 11.0628 15.4264 11.075 15.118V5.18225C11.0424 4.04216 10.5666 2.95969 9.74871 2.16478C8.93079 1.36988 7.83517 0.925199 6.69462 0.925199C5.55406 0.925199 4.45845 1.36988 3.64052 2.16478C2.8226 2.95969 2.34682 4.04216 2.31426 5.18225V16.2858L1.78569 15.7394C1.59057 15.5433 1.32555 15.4328 1.04893 15.4321C0.772313 15.4315 0.50676 15.5407 0.310689 15.7358C0.114618 15.9309 0.00409081 16.196 0.00342103 16.4726C0.00275125 16.7492 0.111994 17.0148 0.307118 17.2108L2.60712 19.5073C2.80194 19.7016 3.06588 19.8107 3.34105 19.8107C3.61621 19.8107 3.88015 19.7016 4.07498 19.5073L6.3714 17.2073C6.54996 17.0095 6.64572 16.7507 6.63892 16.4843C6.63212 16.2179 6.52327 15.9643 6.33486 15.7759C6.14645 15.5875 5.89287 15.4787 5.6265 15.4719C5.36013 15.4651 5.10133 15.5608 4.90355 15.7394L4.3964 16.2501V5.17868C4.41986 4.58296 4.673 4.01945 5.10277 3.60626C5.53255 3.19308 6.10558 2.96229 6.70176 2.96229C7.29794 2.96229 7.87097 3.19308 8.30075 3.60626C8.73052 4.01945 8.98367 4.58296 9.00712 5.17868V15.1037C9.03962 16.24 9.51387 17.3189 10.3291 18.1112C11.1444 18.9034 12.2364 19.3467 13.3732 19.3467C14.51 19.3467 15.602 18.9034 16.4173 18.1112C17.2325 17.3189 17.7068 16.24 17.7393 15.1037V3.75368L18.2143 4.24654C18.412 4.42509 18.6708 4.52086 18.9372 4.51406C19.2036 4.50726 19.4572 4.39841 19.6456 4.21C19.834 4.02158 19.9428 3.768 19.9496 3.50164C19.9564 3.23527 19.8607 2.97646 19.6821 2.77868H19.6928Z" fill="#00F7FF"/>
</svg>
