<svg width="20" height="20" viewBox="0 0 20 20" fill="none" xmlns="http://www.w3.org/2000/svg">
<path d="M18.3329 18.3142V7.09604C18.3329 6.9428 18.2727 6.79583 18.1655 6.68747C18.0583 6.57911 17.913 6.51823 17.7614 6.51823H11.6671V3.56417C11.6673 3.44268 11.6295 3.32425 11.5592 3.22571C11.4889 3.12716 11.3897 3.05352 11.2757 3.01525L2.41857 0.0294155C2.33265 0.000581525 2.24119 -0.00719956 2.15172 0.00671324C2.06224 0.020626 1.97732 0.0558346 1.90394 0.109439C1.83056 0.163043 1.77083 0.233508 1.72966 0.315031C1.68849 0.396553 1.66706 0.486799 1.66714 0.578336V18.3142H0.285714C0.209938 18.3142 0.137266 18.3447 0.0836837 18.3989C0.0301019 18.453 0 18.5265 0 18.6031V19.7111C0 19.87 0.128571 20 0.285714 20H19.7143C19.7901 20 19.8627 19.9696 19.9163 19.9154C19.9699 19.8612 20 19.7877 20 19.7111V18.6031C20 18.5265 19.9699 18.453 19.9163 18.3989C19.8627 18.3447 19.7901 18.3142 19.7143 18.3142H18.3329ZM3.33286 18.3142V2.13554L10 4.41067V6.51823H7.23857C7.16353 6.51823 7.08922 6.53318 7.0199 6.56221C6.95057 6.59125 6.88757 6.63381 6.83451 6.68747C6.78145 6.74112 6.73936 6.80482 6.71064 6.87492C6.68192 6.94503 6.66714 7.02016 6.66714 7.09604V18.3142H3.33286ZM8.33286 18.3142V8.20255H16.6671V18.3142H8.33286Z" fill="white"/>
</svg>
