<svg width="20" height="20" viewBox="0 0 20 20" fill="none" xmlns="http://www.w3.org/2000/svg">
<rect x="0.9" y="0.9" width="18.2" height="18.2" rx="1.1" stroke="#00F7FF" stroke-width="1.8"/>
<path d="M9.36672 5.99204C8.98107 5.82749 8.66408 5.5348 8.46937 5.16346C8.27466 4.79212 8.21418 4.36493 8.29816 3.95413C8.38213 3.54333 8.60541 3.17415 8.93023 2.90901C9.25505 2.64388 9.66147 2.49906 10.0808 2.49906C10.5001 2.49906 10.9065 2.64388 11.2313 2.90901C11.5561 3.17415 11.7794 3.54333 11.8634 3.95413C11.9473 4.36492 11.8869 4.79212 11.6922 5.16346C11.4974 5.5348 11.1805 5.82749 10.7948 5.99204L10.7935 14.2235C11.1792 14.388 11.4962 14.6807 11.6909 15.052C11.8856 15.4234 11.9461 15.8506 11.8621 16.2614C11.7781 16.6722 11.5548 17.0414 11.23 17.3065C10.9052 17.5716 10.4988 17.7164 10.0795 17.7164C9.66018 17.7164 9.25376 17.5716 8.92894 17.3065C8.60412 17.0414 8.38084 16.6722 8.29687 16.2614C8.21289 15.8506 8.27337 15.4234 8.46808 15.052C8.66279 14.6807 8.97978 14.388 9.36543 14.2235L9.36608 5.99269L9.36672 5.99204Z" fill="#00F7FF"/>
</svg>
