<svg width="20" height="20" viewBox="0 0 20 20" fill="none" xmlns="http://www.w3.org/2000/svg">
<path d="M5.92065 9.54377L4.42057 12.3681H15.5767L14.0766 9.54377H5.92065ZM5.49173 8.11494H14.5055C14.6359 8.11479 14.7639 8.15032 14.8756 8.2177C14.9872 8.28507 15.0783 8.38171 15.1389 8.49715L17.3946 12.747C17.4525 12.8559 17.4813 12.9779 17.4781 13.1012C17.4748 13.2245 17.4397 13.3448 17.3762 13.4506C17.3126 13.5563 17.2228 13.6437 17.1154 13.7044C17.0081 13.7651 16.8868 13.797 16.7634 13.7969H3.23495C3.11141 13.7974 2.98987 13.7658 2.88218 13.7052C2.7745 13.6447 2.68435 13.5573 2.62055 13.4515C2.55674 13.3457 2.52145 13.2252 2.51813 13.1017C2.5148 12.9783 2.54356 12.856 2.60158 12.747L4.85948 8.49715C4.92003 8.38188 5.01093 8.28535 5.12236 8.21799C5.2338 8.15062 5.36152 8.11499 5.49173 8.11494ZM9.99864 1.42966C9.94207 1.42892 9.886 1.44029 9.83419 1.463L7.4385 5.97281H12.5599L10.1664 1.46966C10.1154 1.44183 10.0579 1.42803 9.99975 1.42966H9.99864ZM9.99975 0.00194547C10.2781 -0.00719595 10.5539 0.0569685 10.7997 0.188009C11.0454 0.31905 11.2524 0.512364 11.3998 0.748581L14.3778 6.35501C14.4347 6.46392 14.4626 6.58568 14.4588 6.70852C14.4549 6.83136 14.4194 6.95113 14.3558 7.05625C14.2921 7.16137 14.2023 7.24828 14.0953 7.30859C13.9882 7.3689 13.8673 7.40057 13.7444 7.40053H6.24511C6.12229 7.40038 6.00158 7.36857 5.89464 7.30819C5.78769 7.2478 5.69812 7.16086 5.63457 7.05577C5.57102 6.95068 5.53563 6.83099 5.53183 6.70824C5.52803 6.58549 5.55593 6.46384 5.61285 6.35501L8.59968 0.748581C8.74701 0.512159 8.95392 0.318623 9.19965 0.187382C9.44538 0.0561417 9.72131 -0.00819134 9.99975 0.000834367V0.00194547ZM2.90604 15.9402L1.50597 18.5712H18.4913L17.0912 15.9435H2.90604V15.9402ZM2.4738 14.5147H17.5235C17.6527 14.5149 17.7794 14.5502 17.8901 14.6167C18.0009 14.6832 18.0915 14.7785 18.1524 14.8924L19.8303 18.0467C20.3559 18.9289 19.5969 20 18.4313 20H1.56819C0.403687 20 -0.354132 18.9289 0.168119 18.0467L1.84376 14.8891C1.9045 14.775 1.99507 14.6794 2.10583 14.6127C2.21659 14.546 2.34338 14.5106 2.47268 14.5102V14.5136L2.4738 14.5147Z" fill="#00F7FF"/>
</svg>
