<svg width="20" height="20" viewBox="0 0 20 20" fill="none" xmlns="http://www.w3.org/2000/svg">
<path d="M10 12C9.8877 12 9.7754 11.9709 9.67395 11.9124L1.35156 7.12291C1.1348 6.99818 1 6.75926 1 6.49989C1 6.24053 1.1348 6.00161 1.35156 5.87709L9.67395 1.08786C9.7738 1.03022 9.88593 1 9.9999 1C10.1139 1 10.226 1.03022 10.3258 1.08786L18.6484 5.87709C18.7549 5.93835 18.8436 6.02848 18.9055 6.13804C18.9673 6.2476 19 6.37257 19 6.49989C19 6.75926 18.8652 6.99818 18.6484 7.1227L10.326 11.9124C10.2261 11.9699 10.114 12 10 12ZM3.08607 6.49989L10 10.4788L16.9139 6.49989L10 2.52119L3.08607 6.49989Z" fill="#00F7FF"/>
<path d="M10.0001 15C9.88778 15 9.77548 14.9719 9.67403 14.9153L1.35164 10.2882C1.02378 10.1059 0.903646 9.68859 1.08365 9.3562C1.26385 9.02441 1.67568 8.90269 2.00353 9.08466L10.0001 13.5306L17.9964 9.08466C18.3251 8.90249 18.7363 9.024 18.9163 9.3562C19.0963 9.6888 18.9764 10.1059 18.6483 10.2882L10.3261 14.9153C10.2262 14.971 10.1141 15.0001 10.0001 15Z" fill="#00F7FF"/>
<path d="M10.0001 19C9.88778 19 9.77548 18.9719 9.67403 18.9153L1.35164 14.2885C1.02378 14.1061 0.903646 13.6889 1.08365 13.3565C1.26385 13.0245 1.67568 12.9034 2.00353 13.085L10.0001 17.5304L17.9964 13.0848C18.3251 12.9022 18.7363 13.0245 18.9163 13.3563C19.0963 13.6889 18.9764 14.1059 18.6483 14.2883L10.3261 18.9153C10.2262 18.9709 10.1141 19 10.0001 19Z" fill="#00F7FF"/>
</svg>
