<svg width="18" height="18" viewBox="0 0 18 18" fill="none" xmlns="http://www.w3.org/2000/svg">
<path d="M8.90002 2.04288C9.82624 2.04288 10.7241 2.22402 11.5688 2.58127C12.3852 2.92658 13.1186 3.42117 13.7488 4.05129C14.3789 4.6814 14.8735 5.41485 15.2188 6.23126C15.576 7.0759 15.7572 7.97381 15.7572 8.90002C15.7572 9.82624 15.576 10.7241 15.2188 11.5688C14.8735 12.3852 14.3789 13.1186 13.7488 13.7488C13.1186 14.3789 12.3852 14.8735 11.5688 15.2188C10.7241 15.576 9.82624 15.7572 8.90002 15.7572C7.97381 15.7572 7.07592 15.576 6.23126 15.2188C5.41485 14.8735 4.6814 14.3789 4.05129 13.7488C3.42117 13.1186 2.9266 12.3852 2.58127 11.5688C2.22402 10.7241 2.04288 9.82624 2.04288 8.90002C2.04288 7.97381 2.22402 7.07592 2.58127 6.23126C2.92658 5.41485 3.42117 4.6814 4.05129 4.05129C4.6814 3.42117 5.41485 2.9266 6.23126 2.58127C7.07592 2.22402 7.97381 2.04288 8.90002 2.04288V2.04288ZM8.90002 0.900024C4.48174 0.900024 0.900024 4.48174 0.900024 8.90002C0.900024 13.3183 4.48174 16.9 8.90002 16.9C13.3183 16.9 16.9 13.3183 16.9 8.90002C16.9 4.48174 13.3183 0.900024 8.90002 0.900024V0.900024Z" fill="white"/>
<path d="M12.8237 9.89998H8.77624C8.40275 9.89998 8.09998 9.64264 8.09998 9.32517V4.17478C8.09998 3.85732 8.40275 3.59998 8.77624 3.59998C9.14973 3.59998 9.4525 3.85732 9.4525 4.17478V8.75037H12.8237C13.1972 8.75037 13.5 9.00772 13.5 9.32517C13.5 9.64263 13.1972 9.89998 12.8237 9.89998Z" fill="white"/>
</svg>
