<svg width="20" height="20" viewBox="0 0 20 20" fill="none" xmlns="http://www.w3.org/2000/svg">
<path fill-rule="evenodd" clip-rule="evenodd" d="M6.46446 13.5485C7.40883 14.4937 8.66445 15.0143 9.99999 15.0143C11.3356 15.0143 12.5911 14.4937 13.5355 13.5485C14.4799 12.6032 15 11.3464 15 10.0095C15 8.67271 14.4799 7.41591 13.5355 6.47062C12.5912 5.52535 11.3356 5.00476 9.99999 5.00476C8.66445 5.00476 7.40883 5.52535 6.46446 6.47062C5.52009 7.41589 5 8.67271 5 10.0095C5 11.3464 5.52007 12.6032 6.46446 13.5485ZM6.37158 10.0095C6.37158 8.00689 7.9993 6.37761 10 6.37761C12.0008 6.37761 13.6285 8.00689 13.6285 10.0095C13.6285 12.0122 12.0008 13.6415 10 13.6415C7.9993 13.6415 6.37158 12.0122 6.37158 10.0095Z" fill="white"/>
<path fill-rule="evenodd" clip-rule="evenodd" d="M10.6849 2.85773C10.6849 3.23351 10.3782 3.53816 10 3.53816V3.53818C9.62178 3.53818 9.31516 3.23353 9.31516 2.85773V0.680454C9.31516 0.304675 9.6218 0 10 0C10.3782 0 10.6849 0.304675 10.6849 0.680454V2.85773ZM15.434 14.3887C15.6093 14.3887 15.7845 14.4551 15.9183 14.588V14.588L17.4678 16.1276C17.7352 16.3933 17.7352 16.8241 17.4678 17.0899C17.2003 17.3556 16.7667 17.3556 16.4993 17.0899L14.9497 15.5503C14.6823 15.2846 14.6823 14.8538 14.9497 14.588C15.0835 14.4552 15.2588 14.3887 15.434 14.3887ZM9.42366 17.1423C9.42366 16.7665 9.7303 16.4618 10.1085 16.4618V16.4618C10.4867 16.4618 10.7934 16.7665 10.7934 17.1423V19.3195C10.7934 19.6953 10.4867 20 10.1085 20C9.7303 20 9.42366 19.6953 9.42366 19.3195V17.1423ZM5.35938 14.3887C5.18411 14.3887 5.00886 14.4552 4.87514 14.588L3.3256 16.1276C3.05813 16.3934 3.05813 16.8242 3.3256 17.0899C3.59303 17.3557 4.02668 17.3557 4.29411 17.0899L5.84362 15.5503C6.11109 15.2846 6.11109 14.8538 5.84362 14.588C5.70993 14.4552 5.53466 14.3887 5.35938 14.3887ZM4.47851 5.41201C4.61223 5.54489 4.78748 5.61129 4.96275 5.61129C5.138 5.61129 5.3133 5.54484 5.44702 5.41201C5.71447 5.14626 5.71447 4.71544 5.44702 4.44973L3.8975 2.91016C3.63007 2.6444 3.19643 2.6444 2.929 2.91016C2.66153 3.17589 2.66153 3.60672 2.929 3.87243L4.47851 5.41199V5.41201ZM2.87622 10.6161H0.684856V10.6161C0.306646 10.6161 0 10.3115 0 9.93569C0 9.55991 0.306646 9.25523 0.684856 9.25523H2.87622C3.25443 9.25523 3.56107 9.55989 3.56107 9.93569C3.56107 10.3115 3.25443 10.6161 2.87622 10.6161ZM17.1238 10.6162H19.3151C19.6933 10.6162 20 10.3116 20 9.93575C20 9.55995 19.6933 9.25529 19.3151 9.25529H17.1238C16.7456 9.25529 16.4389 9.55995 16.4389 9.93575C16.4389 10.3115 16.7456 10.6162 17.1238 10.6162ZM15.5216 5.41197C15.3878 5.54483 15.2126 5.61125 15.0373 5.61125C14.862 5.61125 14.6868 5.54483 14.5531 5.41197C14.2856 5.14624 14.2856 4.7154 14.5531 4.44965L16.1026 2.91009C16.37 2.64434 16.8037 2.64434 17.0711 2.91009C17.3386 3.17583 17.3386 3.60664 17.0711 3.87239L15.5216 5.41197Z" fill="white"/>
</svg>
