<svg width="20" height="20" viewBox="0 0 20 20" fill="none" xmlns="http://www.w3.org/2000/svg">
<g clip-path="url(#clip0_2030_8380)">
<path d="M1.53512 2.09674V13.8482C1.53512 14.0745 1.80142 14.4643 2.01686 14.5649L9.96931 17.9079C9.95674 17.8953 10.007 17.9205 10.007 17.9205C10.007 17.9205 10.0585 17.9079 10.0453 17.9079L17.9972 14.5649C18.2001 14.4894 18.4795 14.0745 18.4795 13.8482V2.09674L10.451 4.48487L10.0202 4.61059L9.58871 4.48487L1.53512 2.09674ZM1.47169 0.626367L9.99445 3.0265L18.5172 0.626367C19.3167 0.400069 20.0013 0.87781 20.0013 1.71957V13.8231C20.0013 14.6403 19.367 15.5952 18.5938 15.9221L10.6288 19.2903C10.4002 19.3908 10.1847 19.4286 9.99445 19.4286C9.77625 19.4223 9.56113 19.3754 9.36013 19.2903L1.40825 15.9472C0.621923 15.6203 0.000173435 14.6654 0.000173435 13.8482V1.71957C-0.0123987 0.890382 0.660211 0.400069 1.47169 0.626367Z" fill="#00F7FF"/>
<path d="M5.69701 11.0494L3.93634 11.9843L4.28322 10.0002L2.85742 8.58529L4.84153 8.29442L5.70958 6.47489L6.58963 8.29442L8.57374 8.58529L7.13538 9.98765L7.48225 11.9718L5.69701 11.0494V11.0494ZM12.7151 8.73673L17.2039 7.20807C17.5885 7.08178 17.8114 6.63947 17.6754 6.23487C17.5382 5.84342 17.1171 5.61598 16.7205 5.75485L12.2317 7.2835C11.8471 7.4098 11.6242 7.85211 11.7602 8.2567C11.8974 8.66129 12.3185 8.87559 12.7151 8.73673ZM12.7151 11.7826L17.2039 10.2534C17.5885 10.1265 17.8114 9.68478 17.6754 9.28019C17.5382 8.88874 17.1171 8.66129 16.7205 8.80016L12.2317 10.3288C11.8471 10.4551 11.6242 10.8974 11.7602 11.302C11.7913 11.3963 11.8407 11.4835 11.9055 11.5587C11.9704 11.6339 12.0494 11.6955 12.1381 11.7401C12.2268 11.7847 12.3234 11.8113 12.4224 11.8185C12.5214 11.8257 12.6209 11.8133 12.7151 11.782V11.7826ZM12.7151 14.8148L17.2039 13.2855C17.5885 13.1598 17.8114 12.7169 17.6754 12.3129C17.5382 11.9209 17.1171 11.6935 16.7205 11.8329L12.2317 13.3616C11.8471 13.4878 11.6242 13.9302 11.7602 14.3347C11.8974 14.7388 12.3185 14.9536 12.7151 14.8148Z" fill="#00F7FF"/>
</g>
<defs>
<clipPath id="clip0_2030_8380">
<rect width="20" height="20" fill="white"/>
</clipPath>
</defs>
</svg>
