<svg width="20" height="20" viewBox="0 0 20 20" fill="none" xmlns="http://www.w3.org/2000/svg">
<g clip-path="url(#clip0_2132_7587)">
<path d="M10.518 4.66364C11.8089 4.66364 12.8544 3.62091 12.8544 2.33273C12.8536 1.71364 12.6071 1.12017 12.169 0.682755C11.7309 0.245335 11.1371 -0.000239807 10.518 1.59565e-06C10.2115 -0.000356763 9.90801 0.0596497 9.62475 0.176595C9.34148 0.29354 9.08402 0.465134 8.86707 0.681579C8.65012 0.898024 8.47792 1.15508 8.36032 1.43807C8.24271 1.72107 8.18199 2.02445 8.18163 2.33091C8.18212 2.95015 8.42851 3.54386 8.86664 3.98147C9.30476 4.41909 9.89875 4.66479 10.518 4.66455V4.66364ZM5.28618 13.86C4.9752 13.323 4.46383 12.9314 3.86435 12.7712C3.26487 12.611 2.62631 12.6952 2.08891 13.0055C1.82292 13.1582 1.58969 13.3619 1.40261 13.6049C1.21553 13.8479 1.07827 14.1255 0.998708 14.4217C0.919146 14.7179 0.898846 15.0269 0.938973 15.331C0.9791 15.6351 1.07886 15.9282 1.23254 16.1936C1.54352 16.7306 2.0549 17.1222 2.65437 17.2824C3.25385 17.4427 3.89241 17.3584 4.42982 17.0482C4.69554 16.8952 4.9285 16.6914 5.11538 16.4483C5.30226 16.2052 5.43938 15.9277 5.51892 15.6316C5.59846 15.3355 5.61884 15.0266 5.5789 14.7226C5.53897 14.4187 5.4395 14.1255 5.28618 13.86ZM18.3725 12.7727C18.1065 12.6187 17.8127 12.5187 17.5079 12.4783C17.2031 12.4379 16.8934 12.458 16.5964 12.5373C16.2994 12.6167 16.0209 12.7538 15.7769 12.9408C15.5329 13.1278 15.3282 13.3611 15.1744 13.6273C15.0208 13.8928 14.9212 14.186 14.8812 14.4901C14.8412 14.7941 14.8616 15.1031 14.9413 15.3993C15.0209 15.6955 15.1582 15.973 15.3453 16.216C15.5324 16.459 15.7657 16.6627 16.0316 16.8155C16.2977 16.9694 16.5915 17.0695 16.8963 17.1099C17.2011 17.1503 17.5108 17.1302 17.8078 17.0509C18.1048 16.9715 18.3833 16.8344 18.6273 16.6474C18.8713 16.4604 19.076 16.2271 19.2298 15.9609C19.383 15.6953 19.4823 15.4021 19.5221 15.0981C19.5619 14.7941 19.5414 14.4853 19.4618 14.1892C19.3822 13.8931 19.245 13.6156 19.0581 13.3726C18.8712 13.1295 18.6383 12.9257 18.3725 12.7727ZM13.9853 4.23182C15.2959 4.90914 16.3802 5.95456 17.1048 7.23962C17.8295 8.52469 18.163 9.99345 18.0644 11.4655C18.0398 11.8573 18.3371 12.1982 18.7316 12.2227L18.778 12.2245C19.1507 12.2245 19.4662 11.9355 19.4907 11.5591C19.6159 9.68671 19.1514 7.82216 18.1625 6.22727C17.3048 4.84567 16.0912 3.72028 14.6489 2.96909C14.5657 2.9256 14.4747 2.89893 14.3812 2.8906C14.2877 2.88228 14.1935 2.89246 14.1039 2.92058C14.0143 2.94869 13.9312 2.99418 13.8592 3.05445C13.7872 3.11472 13.7278 3.18858 13.6844 3.27182C13.6404 3.35447 13.6133 3.44503 13.6047 3.53824C13.596 3.63145 13.606 3.72545 13.634 3.81477C13.662 3.90409 13.7075 3.98696 13.7678 4.05856C13.8281 4.13015 13.902 4.18905 13.9853 4.23182ZM2.15982 12.1782C2.17345 12.1782 2.18891 12.1782 2.20254 12.1764C2.39151 12.1653 2.56838 12.0798 2.69434 11.9385C2.82029 11.7972 2.88504 11.6117 2.87436 11.4227C2.78347 9.94957 3.12531 8.48198 3.85782 7.20062C4.59033 5.91926 5.68152 4.88005 6.99709 4.21091C7.16502 4.12411 7.29159 3.97416 7.34896 3.79404C7.40633 3.61392 7.3898 3.41839 7.303 3.25046C7.26002 3.16731 7.20109 3.09343 7.12956 3.03306C7.05803 2.97269 6.97531 2.92699 6.88613 2.89858C6.70601 2.84122 6.51047 2.85775 6.34254 2.94455C4.88711 3.69119 3.66077 4.81764 2.79345 6.20455C1.80457 7.78959 1.33428 9.64343 1.448 11.5082C1.46982 11.8845 1.78436 12.1782 2.15982 12.1782ZM14.5144 17.4009C13.3024 18.1609 11.9004 18.563 10.4698 18.5609C9.01891 18.5609 7.60618 18.1518 6.388 17.3791C6.30903 17.3287 6.22089 17.2943 6.12863 17.2779C6.03637 17.2615 5.94178 17.2635 5.85027 17.2836C5.75876 17.3038 5.67213 17.3418 5.59531 17.3955C5.51848 17.4491 5.45298 17.5174 5.40254 17.5964C5.3521 17.6753 5.31771 17.7635 5.30133 17.8557C5.28496 17.948 5.28691 18.0426 5.30709 18.1341C5.32726 18.2256 5.36526 18.3122 5.41892 18.3891C5.47258 18.4659 5.54084 18.5314 5.61982 18.5818C7.06981 19.5025 8.75223 19.9907 10.4698 19.9891C12.1689 19.9908 13.834 19.5127 15.2735 18.61C15.3528 18.5602 15.4216 18.4952 15.4759 18.4187C15.5302 18.3423 15.5689 18.2559 15.5898 18.1646C15.6107 18.0732 15.6133 17.9786 15.5977 17.8862C15.582 17.7937 15.5483 17.7053 15.4985 17.6259C15.4486 17.5465 15.3836 17.4777 15.3072 17.4235C15.2308 17.3692 15.1444 17.3305 15.053 17.3096C14.9616 17.2887 14.867 17.286 14.7746 17.3017C14.6822 17.3174 14.5938 17.3511 14.5144 17.4009Z" fill="#00F7FF"/>
</g>
<defs>
<clipPath id="clip0_2132_7587">
<rect width="20" height="20" fill="white"/>
</clipPath>
</defs>
</svg>
